<?xml version="1.0" encoding="UTF-8"?>
<!DOCTYPE svg PUBLIC "-//W3C//DTD SVG 1.1//EN"
    "http://www.w3.org/Graphics/SVG/1.1/DTD/svg11.dtd">
<svg xmlns="http://www.w3.org/2000/svg" xmlns:xlink="http://www.w3.org/1999/xlink" version="1.1" width="300.0" height="185.41409147095175" font-size="1" viewBox="0 0 300 185"><g><g stroke="rgb(0,0,0)" stroke-opacity="1.0" fill="rgb(0,0,0)" fill-opacity="0.0" stroke-width="1.0e-2" stroke-linecap="butt" stroke-linejoin="miter" font-size="1.0em" stroke-miterlimit="10.0"><g transform="matrix(114.59461771999489,0.0,0.0,114.59461771999489,150.0,92.70704573547587)"><g><g><g><g fill="rgb(217,217,217)" fill-opacity="1.0" stroke-width="0.0"><path d="M 1.3089620000000004,0.8090000000000002 l -2.906479501518789e-17,-0.4045 h -0.26179240000000004 l -2.906479501518789e-17,0.4045 h 0.26179240000000015 Z" /></g><g fill="rgb(218,218,235)" fill-opacity="1.0" stroke-width="0.0"><path d="M 1.0471696000000004,0.8090000000000002 l -2.906479501518789e-17,-0.4045 h -0.26179240000000004 l -2.906479501518789e-17,0.4045 h 0.26179240000000015 Z" /></g></g><g><g><g fill="rgb(199,233,192)" fill-opacity="1.0" stroke-width="0.0"><path d="M 0.7853772000000003,0.8090000000000002 l -2.906479501518789e-17,-0.4045 h -0.26179240000000004 l -2.906479501518789e-17,0.4045 h 0.26179240000000015 Z" /></g><g fill="rgb(253,208,162)" fill-opacity="1.0" stroke-width="0.0"><path d="M 0.5235848000000002,0.8090000000000002 l -2.906479501518789e-17,-0.4045 h -0.26179240000000004 l -2.906479501518789e-17,0.4045 h 0.26179240000000015 Z" /></g></g><g fill="rgb(198,219,239)" fill-opacity="1.0" stroke-width="0.0"><path d="M 0.26179240000000015,0.8090000000000002 l -2.906479501518789e-17,-0.4045 h -0.26179240000000004 l -2.906479501518789e-17,0.4045 h 0.26179240000000015 Z" /></g><g fill="rgb(222,158,214)" fill-opacity="1.0" stroke-width="0.0"><path d="M 2.7755575615628914e-17,0.8090000000000002 l -2.906479501518789e-17,-0.4045 h -0.26179240000000004 l -2.906479501518789e-17,0.4045 h 0.26179240000000015 Z" /></g></g><g><g fill="rgb(231,150,156)" fill-opacity="1.0" stroke-width="0.0"><path d="M -0.26179240000000004,0.8090000000000002 l -2.906479501518789e-17,-0.4045 h -0.26179240000000004 l -2.906479501518789e-17,0.4045 h 0.26179240000000015 Z" /></g><g fill="rgb(231,203,148)" fill-opacity="1.0" stroke-width="0.0"><path d="M -0.5235848000000002,0.8090000000000002 l -2.906479501518789e-17,-0.4045 h -0.26179240000000004 l -2.906479501518789e-17,0.4045 h 0.26179240000000015 Z" /></g></g><g fill="rgb(206,219,156)" fill-opacity="1.0" stroke-width="0.0"><path d="M -0.7853772000000003,0.8090000000000002 l -2.906479501518789e-17,-0.4045 h -0.26179240000000004 l -2.906479501518789e-17,0.4045 h 0.26179240000000015 Z" /></g><g fill="rgb(156,158,222)" fill-opacity="1.0" stroke-width="0.0"><path d="M -1.0471696000000004,0.8090000000000002 l -2.906479501518789e-17,-0.4045 h -0.26179240000000004 l -2.906479501518789e-17,0.4045 h 0.26179240000000015 Z" /></g></g><g><g><g fill="rgb(189,189,189)" fill-opacity="1.0" stroke-width="0.0"><path d="M 1.3089620000000004,0.4045000000000001 l -2.906479501518789e-17,-0.4045 h -0.26179240000000004 l -2.906479501518789e-17,0.4045 h 0.26179240000000015 Z" /></g><g fill="rgb(188,189,220)" fill-opacity="1.0" stroke-width="0.0"><path d="M 1.0471696000000004,0.4045000000000001 l -2.906479501518789e-17,-0.4045 h -0.26179240000000004 l -2.906479501518789e-17,0.4045 h 0.26179240000000015 Z" /></g></g><g><g><g fill="rgb(161,217,155)" fill-opacity="1.0" stroke-width="0.0"><path d="M 0.7853772000000003,0.4045000000000001 l -2.906479501518789e-17,-0.4045 h -0.26179240000000004 l -2.906479501518789e-17,0.4045 h 0.26179240000000015 Z" /></g><g fill="rgb(253,174,107)" fill-opacity="1.0" stroke-width="0.0"><path d="M 0.5235848000000002,0.4045000000000001 l -2.906479501518789e-17,-0.4045 h -0.26179240000000004 l -2.906479501518789e-17,0.4045 h 0.26179240000000015 Z" /></g></g><g fill="rgb(158,202,225)" fill-opacity="1.0" stroke-width="0.0"><path d="M 0.26179240000000015,0.4045000000000001 l -2.906479501518789e-17,-0.4045 h -0.26179240000000004 l -2.906479501518789e-17,0.4045 h 0.26179240000000015 Z" /></g><g fill="rgb(206,109,189)" fill-opacity="1.0" stroke-width="0.0"><path d="M 2.7755575615628914e-17,0.4045000000000001 l -2.906479501518789e-17,-0.4045 h -0.26179240000000004 l -2.906479501518789e-17,0.4045 h 0.26179240000000015 Z" /></g></g><g><g fill="rgb(214,97,107)" fill-opacity="1.0" stroke-width="0.0"><path d="M -0.26179240000000004,0.4045000000000001 l -2.906479501518789e-17,-0.4045 h -0.26179240000000004 l -2.906479501518789e-17,0.4045 h 0.26179240000000015 Z" /></g><g fill="rgb(231,186,82)" fill-opacity="1.0" stroke-width="0.0"><path d="M -0.5235848000000002,0.4045000000000001 l -2.906479501518789e-17,-0.4045 h -0.26179240000000004 l -2.906479501518789e-17,0.4045 h 0.26179240000000015 Z" /></g></g><g fill="rgb(181,207,107)" fill-opacity="1.0" stroke-width="0.0"><path d="M -0.7853772000000003,0.4045000000000001 l -2.906479501518789e-17,-0.4045 h -0.26179240000000004 l -2.906479501518789e-17,0.4045 h 0.26179240000000015 Z" /></g><g fill="rgb(107,110,207)" fill-opacity="1.0" stroke-width="0.0"><path d="M -1.0471696000000004,0.4045000000000001 l -2.906479501518789e-17,-0.4045 h -0.26179240000000004 l -2.906479501518789e-17,0.4045 h 0.26179240000000015 Z" /></g></g></g><g><g><g fill="rgb(150,150,150)" fill-opacity="1.0" stroke-width="0.0"><path d="M 1.3089620000000004,2.7755575615628914e-17 l -2.906479501518789e-17,-0.4045 h -0.26179240000000004 l -2.906479501518789e-17,0.4045 h 0.26179240000000015 Z" /></g><g fill="rgb(158,154,200)" fill-opacity="1.0" stroke-width="0.0"><path d="M 1.0471696000000004,2.7755575615628914e-17 l -2.906479501518789e-17,-0.4045 h -0.26179240000000004 l -2.906479501518789e-17,0.4045 h 0.26179240000000015 Z" /></g></g><g><g><g fill="rgb(116,196,118)" fill-opacity="1.0" stroke-width="0.0"><path d="M 0.7853772000000003,2.7755575615628914e-17 l -2.906479501518789e-17,-0.4045 h -0.26179240000000004 l -2.906479501518789e-17,0.4045 h 0.26179240000000015 Z" /></g><g fill="rgb(253,141,60)" fill-opacity="1.0" stroke-width="0.0"><path d="M 0.5235848000000002,2.7755575615628914e-17 l -2.906479501518789e-17,-0.4045 h -0.26179240000000004 l -2.906479501518789e-17,0.4045 h 0.26179240000000015 Z" /></g></g><g fill="rgb(107,174,214)" fill-opacity="1.0" stroke-width="0.0"><path d="M 0.26179240000000015,2.7755575615628914e-17 l -2.906479501518789e-17,-0.4045 h -0.26179240000000004 l -2.906479501518789e-17,0.4045 h 0.26179240000000015 Z" /></g><g fill="rgb(165,81,148)" fill-opacity="1.0" stroke-width="0.0"><path d="M 2.7755575615628914e-17,2.7755575615628914e-17 l -2.906479501518789e-17,-0.4045 h -0.26179240000000004 l -2.906479501518789e-17,0.4045 h 0.26179240000000015 Z" /></g></g><g><g fill="rgb(173,73,74)" fill-opacity="1.0" stroke-width="0.0"><path d="M -0.26179240000000004,2.7755575615628914e-17 l -2.906479501518789e-17,-0.4045 h -0.26179240000000004 l -2.906479501518789e-17,0.4045 h 0.26179240000000015 Z" /></g><g fill="rgb(189,158,57)" fill-opacity="1.0" stroke-width="0.0"><path d="M -0.5235848000000002,2.7755575615628914e-17 l -2.906479501518789e-17,-0.4045 h -0.26179240000000004 l -2.906479501518789e-17,0.4045 h 0.26179240000000015 Z" /></g></g><g fill="rgb(140,162,82)" fill-opacity="1.0" stroke-width="0.0"><path d="M -0.7853772000000003,2.7755575615628914e-17 l -2.906479501518789e-17,-0.4045 h -0.26179240000000004 l -2.906479501518789e-17,0.4045 h 0.26179240000000015 Z" /></g><g fill="rgb(82,84,163)" fill-opacity="1.0" stroke-width="0.0"><path d="M -1.0471696000000004,2.7755575615628914e-17 l -2.906479501518789e-17,-0.4045 h -0.26179240000000004 l -2.906479501518789e-17,0.4045 h 0.26179240000000015 Z" /></g></g><g><g><g fill="rgb(99,99,99)" fill-opacity="1.0" stroke-width="0.0"><path d="M 1.3089620000000004,-0.40449999999999997 l -2.906479501518789e-17,-0.4045 h -0.26179240000000004 l -2.906479501518789e-17,0.4045 h 0.26179240000000015 Z" /></g><g fill="rgb(117,107,177)" fill-opacity="1.0" stroke-width="0.0"><path d="M 1.0471696000000004,-0.40449999999999997 l -2.906479501518789e-17,-0.4045 h -0.26179240000000004 l -2.906479501518789e-17,0.4045 h 0.26179240000000015 Z" /></g></g><g><g><g fill="rgb(49,163,84)" fill-opacity="1.0" stroke-width="0.0"><path d="M 0.7853772000000003,-0.40449999999999997 l -2.906479501518789e-17,-0.4045 h -0.26179240000000004 l -2.906479501518789e-17,0.4045 h 0.26179240000000015 Z" /></g><g fill="rgb(230,85,13)" fill-opacity="1.0" stroke-width="0.0"><path d="M 0.5235848000000002,-0.40449999999999997 l -2.906479501518789e-17,-0.4045 h -0.26179240000000004 l -2.906479501518789e-17,0.4045 h 0.26179240000000015 Z" /></g></g><g fill="rgb(49,130,189)" fill-opacity="1.0" stroke-width="0.0"><path d="M 0.26179240000000015,-0.40449999999999997 l -2.906479501518789e-17,-0.4045 h -0.26179240000000004 l -2.906479501518789e-17,0.4045 h 0.26179240000000015 Z" /></g><g fill="rgb(123,65,115)" fill-opacity="1.0" stroke-width="0.0"><path d="M 2.7755575615628914e-17,-0.40449999999999997 l -2.906479501518789e-17,-0.4045 h -0.26179240000000004 l -2.906479501518789e-17,0.4045 h 0.26179240000000015 Z" /></g></g><g><g fill="rgb(132,60,57)" fill-opacity="1.0" stroke-width="0.0"><path d="M -0.26179240000000004,-0.40449999999999997 l -2.906479501518789e-17,-0.4045 h -0.26179240000000004 l -2.906479501518789e-17,0.4045 h 0.26179240000000015 Z" /></g><g fill="rgb(140,109,49)" fill-opacity="1.0" stroke-width="0.0"><path d="M -0.5235848000000002,-0.40449999999999997 l -2.906479501518789e-17,-0.4045 h -0.26179240000000004 l -2.906479501518789e-17,0.4045 h 0.26179240000000015 Z" /></g></g><g fill="rgb(99,121,57)" fill-opacity="1.0" stroke-width="0.0"><path d="M -0.7853772000000003,-0.40449999999999997 l -2.906479501518789e-17,-0.4045 h -0.26179240000000004 l -2.906479501518789e-17,0.4045 h 0.26179240000000015 Z" /></g><g fill="rgb(57,59,121)" fill-opacity="1.0" stroke-width="0.0"><path d="M -1.0471696000000004,-0.40449999999999997 l -2.906479501518789e-17,-0.4045 h -0.26179240000000004 l -2.906479501518789e-17,0.4045 h 0.26179240000000015 Z" /></g></g></g></g></g></svg>