<?xml version="1.0" encoding="UTF-8"?>
<!DOCTYPE svg PUBLIC "-//W3C//DTD SVG 1.1//EN"
    "http://www.w3.org/Graphics/SVG/1.1/DTD/svg11.dtd">
<svg xmlns="http://www.w3.org/2000/svg" xmlns:xlink="http://www.w3.org/1999/xlink" version="1.1" width="100.0" height="61.804697156983906" font-size="1" viewBox="0 0 100 62"><g><g stroke="rgb(0,0,0)" stroke-opacity="1.0" fill="rgb(0,0,0)" fill-opacity="0.0" stroke-width="1.0e-2" stroke-linecap="butt" stroke-linejoin="miter" font-size="1.0em" stroke-miterlimit="10.0"><g transform="matrix(38.19820590666496,0.0,0.0,38.19820590666496,50.00000000000001,30.902348578491953)"><g><g fill="rgb(0,60,48)" fill-opacity="1.0" stroke-width="0.0"><path d="M 1.3089620000000004,0.809 l -2.642254092289808e-17,-1.618 h -0.23799309090909096 l -2.642254092289808e-17,1.618 h 0.23799309090909102 Z" /></g><g fill="rgb(1,102,94)" fill-opacity="1.0" stroke-width="0.0"><path d="M 1.0709689090909094,0.809 l -2.642254092289808e-17,-1.618 h -0.23799309090909096 l -2.642254092289808e-17,1.618 h 0.23799309090909102 Z" /></g><g fill="rgb(53,151,143)" fill-opacity="1.0" stroke-width="0.0"><path d="M 0.8329758181818184,0.809 l -2.642254092289808e-17,-1.618 h -0.23799309090909096 l -2.642254092289808e-17,1.618 h 0.23799309090909102 Z" /></g></g><g><g><g fill="rgb(128,205,193)" fill-opacity="1.0" stroke-width="0.0"><path d="M 0.5949827272727274,0.809 l -2.642254092289808e-17,-1.618 h -0.23799309090909096 l -2.642254092289808e-17,1.618 h 0.23799309090909102 Z" /></g><g fill="rgb(199,234,229)" fill-opacity="1.0" stroke-width="0.0"><path d="M 0.3569896363636364,0.809 l -2.642254092289808e-17,-1.618 h -0.23799309090909096 l -2.642254092289808e-17,1.618 h 0.23799309090909102 Z" /></g></g><g fill="rgb(245,245,245)" fill-opacity="1.0" stroke-width="0.0"><path d="M 0.11899654545454537,0.809 l -2.642254092289808e-17,-1.618 h -0.23799309090909096 l -2.642254092289808e-17,1.618 h 0.23799309090909102 Z" /></g><g fill="rgb(246,232,195)" fill-opacity="1.0" stroke-width="0.0"><path d="M -0.11899654545454565,0.809 l -2.642254092289808e-17,-1.618 h -0.23799309090909096 l -2.642254092289808e-17,1.618 h 0.23799309090909102 Z" /></g></g><g><g fill="rgb(223,194,125)" fill-opacity="1.0" stroke-width="0.0"><path d="M -0.35698963636363656,0.809 l -2.642254092289808e-17,-1.618 h -0.23799309090909096 l -2.642254092289808e-17,1.618 h 0.23799309090909102 Z" /></g><g fill="rgb(191,129,45)" fill-opacity="1.0" stroke-width="0.0"><path d="M -0.5949827272727276,0.809 l -2.642254092289808e-17,-1.618 h -0.23799309090909096 l -2.642254092289808e-17,1.618 h 0.23799309090909102 Z" /></g></g><g fill="rgb(140,81,10)" fill-opacity="1.0" stroke-width="0.0"><path d="M -0.8329758181818187,0.809 l -2.642254092289808e-17,-1.618 h -0.23799309090909096 l -2.642254092289808e-17,1.618 h 0.23799309090909102 Z" /></g><g fill="rgb(84,48,5)" fill-opacity="1.0" stroke-width="0.0"><path d="M -1.0709689090909098,0.809 l -2.642254092289808e-17,-1.618 h -0.23799309090909096 l -2.642254092289808e-17,1.618 h 0.23799309090909102 Z" /></g></g></g></g></svg>