<?xml version="1.0" encoding="UTF-8"?>
<!DOCTYPE svg PUBLIC "-//W3C//DTD SVG 1.1//EN"
    "http://www.w3.org/Graphics/SVG/1.1/DTD/svg11.dtd">
<svg xmlns="http://www.w3.org/2000/svg" xmlns:xlink="http://www.w3.org/1999/xlink" version="1.1" width="100.00000000000001" height="61.80469715698392" font-size="1" viewBox="0 0 100 62"><g><g stroke="rgb(0,0,0)" stroke-opacity="1.0" fill="rgb(0,0,0)" fill-opacity="0.0" stroke-width="1.0e-2" stroke-linecap="butt" stroke-linejoin="miter" font-size="1.0em" stroke-miterlimit="10.0"><g transform="matrix(38.19820590666497,0.0,0.0,38.19820590666497,50.00000000000001,30.90234857849196)"><g><g><g fill="rgb(177,89,40)" fill-opacity="1.0" stroke-width="0.0"><path d="M 1.3089620000000006,0.809 l -2.422066251265657e-17,-1.618 h -0.21816033333333334 l -2.422066251265657e-17,1.618 h 0.2181603333333334 Z" /></g><g fill="rgb(255,255,153)" fill-opacity="1.0" stroke-width="0.0"><path d="M 1.0908016666666671,0.809 l -2.422066251265657e-17,-1.618 h -0.21816033333333334 l -2.422066251265657e-17,1.618 h 0.2181603333333334 Z" /></g></g><g fill="rgb(106,61,154)" fill-opacity="1.0" stroke-width="0.0"><path d="M 0.8726413333333336,0.809 l -2.422066251265657e-17,-1.618 h -0.21816033333333334 l -2.422066251265657e-17,1.618 h 0.2181603333333334 Z" /></g><g fill="rgb(202,178,214)" fill-opacity="1.0" stroke-width="0.0"><path d="M 0.6544810000000003,0.809 l -2.422066251265657e-17,-1.618 h -0.21816033333333334 l -2.422066251265657e-17,1.618 h 0.2181603333333334 Z" /></g></g><g><g><g fill="rgb(255,127,0)" fill-opacity="1.0" stroke-width="0.0"><path d="M 0.43632066666666686,0.809 l -2.422066251265657e-17,-1.618 h -0.21816033333333334 l -2.422066251265657e-17,1.618 h 0.2181603333333334 Z" /></g><g fill="rgb(253,191,111)" fill-opacity="1.0" stroke-width="0.0"><path d="M 0.21816033333333346,0.809 l -2.422066251265657e-17,-1.618 h -0.21816033333333334 l -2.422066251265657e-17,1.618 h 0.2181603333333334 Z" /></g></g><g fill="rgb(227,26,28)" fill-opacity="1.0" stroke-width="0.0"><path d="M 5.551115123125783e-17,0.809 l -2.422066251265657e-17,-1.618 h -0.21816033333333334 l -2.422066251265657e-17,1.618 h 0.2181603333333334 Z" /></g><g fill="rgb(251,154,153)" fill-opacity="1.0" stroke-width="0.0"><path d="M -0.21816033333333334,0.809 l -2.422066251265657e-17,-1.618 h -0.21816033333333334 l -2.422066251265657e-17,1.618 h 0.2181603333333334 Z" /></g></g><g><g fill="rgb(51,160,44)" fill-opacity="1.0" stroke-width="0.0"><path d="M -0.43632066666666675,0.809 l -2.422066251265657e-17,-1.618 h -0.21816033333333334 l -2.422066251265657e-17,1.618 h 0.2181603333333334 Z" /></g><g fill="rgb(178,223,138)" fill-opacity="1.0" stroke-width="0.0"><path d="M -0.6544810000000001,0.809 l -2.422066251265657e-17,-1.618 h -0.21816033333333334 l -2.422066251265657e-17,1.618 h 0.2181603333333334 Z" /></g></g><g fill="rgb(31,120,180)" fill-opacity="1.0" stroke-width="0.0"><path d="M -0.8726413333333336,0.809 l -2.422066251265657e-17,-1.618 h -0.21816033333333334 l -2.422066251265657e-17,1.618 h 0.2181603333333334 Z" /></g><g fill="rgb(166,206,227)" fill-opacity="1.0" stroke-width="0.0"><path d="M -1.090801666666667,0.809 l -2.422066251265657e-17,-1.618 h -0.21816033333333334 l -2.422066251265657e-17,1.618 h 0.2181603333333334 Z" /></g></g></g></g></svg>