<?xml version="1.0" encoding="UTF-8"?>
<!DOCTYPE svg PUBLIC "-//W3C//DTD SVG 1.1//EN"
    "http://www.w3.org/Graphics/SVG/1.1/DTD/svg11.dtd">
<svg xmlns="http://www.w3.org/2000/svg" xmlns:xlink="http://www.w3.org/1999/xlink" version="1.1" width="200.0" height="199.98635906074432" font-size="1" viewBox="0 0 200 200"><g><g stroke="rgb(0,0,0)" stroke-opacity="1.0" fill="rgb(0,0,0)" fill-opacity="0.0" stroke-width="1.0e-2" stroke-linecap="butt" stroke-linejoin="miter" font-size="1.0em" stroke-miterlimit="10.0"><g transform="matrix(99.99317953037216,0.0,0.0,99.99317953037216,100.0,99.99317953037216)"><g fill="rgb(162,105,99)" fill-opacity="1.0" stroke-width="0.0"><path d="M 0.0,0.0 l 0.9510565162951534,0.3090169943749477 c 0.13387427725748496,-0.4120226591665965 -1.2783855923257814e-2,-0.8633899812498246 -0.36327126400268 -1.118033988749895l -0.5877852522924734,0.8090169943749472 Z" /></g><g fill="rgb(189,50,92)" fill-opacity="1.0" stroke-width="0.0"><path d="M 0.0,0.0 l -2.220446049250313e-16,0.9999999999999999 c 0.43322626164387507,9.61955541098625e-17 0.8171822390376686,-0.2789603464584558 0.9510565162951536 -0.6909830056250522l -0.9510565162951534,-0.3090169943749477 Z" /></g><g fill="rgb(176,117,79)" fill-opacity="1.0" stroke-width="0.0"><path d="M 0.0,0.0 l -0.9510565162951536,0.30901699437494723 c 0.13387427725748477,0.41202265916659664 0.5178302546512783,0.6909830056250525 0.9510565162951534 0.6909830056250529l 2.220446049250313e-16,-1.0 Z" /></g><g fill="rgb(161,41,78)" fill-opacity="1.0" stroke-width="0.0"><path d="M 0.0,0.0 l -0.587785252292473,-0.8090169943749476 c -0.35048740807942247,0.25464400750007005 -0.4971455412601654,0.7060113295832982 -0.36327126400268067 1.118033988749895l 0.9510565162951536,-0.30901699437494734 Z" /></g><g fill="rgb(189,73,50)" fill-opacity="1.0" stroke-width="0.0"><path d="M 0.0,0.0 l 0.5877852522924732,-0.8090169943749473 c -0.35048740807942236,-0.25464400750007016 -0.8250830965055238,-0.25464400750007016 -1.1755705045849463 -2.220446049250313e-16l 0.587785252292473,0.8090169943749476 Z" /></g></g></g></g></svg>