<?xml version="1.0" encoding="UTF-8"?>
<!DOCTYPE svg PUBLIC "-//W3C//DTD SVG 1.1//EN"
    "http://www.w3.org/Graphics/SVG/1.1/DTD/svg11.dtd">
<svg xmlns="http://www.w3.org/2000/svg" xmlns:xlink="http://www.w3.org/1999/xlink" version="1.1" width="200.0" height="200.0" font-size="1" viewBox="0 0 200 200"><g><g stroke="rgb(0,0,0)" stroke-opacity="1.0" fill="rgb(0,0,0)" fill-opacity="0.0" stroke-width="1.0e-2" stroke-linecap="butt" stroke-linejoin="miter" font-size="1.0em" stroke-miterlimit="10.0"><g transform="matrix(99.99999999999997,0.0,0.0,99.99999999999997,100.0,100.0)"><g fill="rgb(64,19,11)" fill-opacity="1.0" stroke-width="0.0"><path d="M 0.0,0.0 l 0.7071067811865474,0.7071067811865477 c 0.39052429175127007,-0.3905242917512699 0.39052429175127035,-1.0236892706218248 4.440892098500626e-16 -1.414213562373095l -0.7071067811865478,0.7071067811865472 Z" /></g><g fill="rgb(143,119,117)" fill-opacity="1.0" stroke-width="0.0"><path d="M 0.0,0.0 l -0.7071067811865477,0.7071067811865474 c 0.3905242917512699,0.39052429175127007 1.0236892706218248,0.39052429175127035 1.414213562373095 4.440892098500626e-16l -0.7071067811865472,-0.7071067811865478 Z" /></g><g fill="rgb(244,233,232)" fill-opacity="1.0" stroke-width="0.0"><path d="M 0.0,0.0 l -0.7071067811865475,-0.7071067811865476 c -0.39052429175127,0.39052429175126996 -0.3905242917512702,1.023689270621825 -2.220446049250313e-16 1.414213562373095l 0.7071067811865477,-0.7071067811865474 Z" /></g><g fill="rgb(189,73,50)" fill-opacity="1.0" stroke-width="0.0"><path d="M 0.0,0.0 l 0.7071067811865476,-0.7071067811865475 c -0.39052429175126996,-0.39052429175127 -1.023689270621825,-0.3905242917512702 -1.414213562373095 -2.220446049250313e-16l 0.7071067811865474,0.7071067811865477 Z" /></g></g></g></g></svg>