<?xml version="1.0" encoding="UTF-8"?>
<!DOCTYPE svg PUBLIC "-//W3C//DTD SVG 1.1//EN"
    "http://www.w3.org/Graphics/SVG/1.1/DTD/svg11.dtd">
<svg xmlns="http://www.w3.org/2000/svg" xmlns:xlink="http://www.w3.org/1999/xlink" version="1.1" width="300.0" height="300.0000000000002" font-size="1" viewBox="0 0 300 300"><g><g stroke="rgb(0,0,0)" stroke-opacity="1.0" fill="rgb(0,0,0)" fill-opacity="0.0" stroke-width="1.0e-2" stroke-linecap="butt" stroke-linejoin="miter" font-size="1.0em" stroke-miterlimit="10.0"><g transform="matrix(150.00000000000026,0.0,0.0,150.00000000000026,150.0000000000001,150.00000000000026)"><g fill="rgb(228,0,69)" fill-opacity="1.0" stroke-width="0.0"><path d="M 0.0,0.0 l 0.3826834323650909,-0.9238795325112868 c -8.073901837988416e-2,-3.344319642563859e-2 -0.1655136009386206,-5.615847736093757e-2 -0.25215724014503826 -6.756532886252385e-2l -0.13052619222005263,0.9914448613738107 Z" /></g><g fill="rgb(205,0,116)" fill-opacity="1.0" stroke-width="0.0"><path d="M 0.0,0.0 l 0.6087614290087218,-0.7933533402912349 c -6.933216687829806e-2,-5.320044278077906e-2 -0.1453389782637468,-9.708299579441303e-2 -0.22607799664363087 -0.13052619222005182l -0.3826834323650909,0.9238795325112867 Z" /></g><g fill="rgb(166,0,166)" fill-opacity="1.0" stroke-width="0.0"><path d="M 0.0,0.0 l 0.7933533402912362,-0.6087614290087202 c -5.32004427807791e-2,-6.933216687829803e-2 -0.11525974440421657,-0.1313914685017355 -0.1845919112825145 -0.18459191128251473l -0.6087614290087217,0.7933533402912349 Z" /></g><g fill="rgb(113,9,170)" fill-opacity="1.0" stroke-width="0.0"><path d="M 0.0,0.0 l 0.9238795325112875,-0.38268343236508917 c -3.3443196425638644e-2,-8.073901837988413e-2 -7.73257494392726e-2,-0.15674582976533288 -0.13052619222005152 -0.22607799664363104l -0.793353340291236,0.6087614290087202 Z" /></g><g fill="rgb(83,15,173)" fill-opacity="1.0" stroke-width="0.0"><path d="M 0.0,0.0 l 0.991444861373811,-0.1305261922200508 c -1.1406851501586135e-2,-8.664363920641768e-2 -3.412213243688511e-2,-0.17141822176515412 -6.756532886252356e-2 -0.2521572401450383l -0.9238795325112875,0.3826834323650891 Z" /></g><g fill="rgb(57,20,175)" fill-opacity="1.0" stroke-width="0.0"><path d="M 0.0,0.0 l 0.9914448613738107,0.13052619222005243 c 1.140685150158606e-2,-8.664363920641768e-2 1.1406851501586048e-2,-0.17440874523368557 1.1796119636642288e-16 -0.2610523844401033l -0.9914448613738108,0.13052619222005088 Z" /></g><g fill="rgb(27,27,179)" fill-opacity="1.0" stroke-width="0.0"><path d="M 0.0,0.0 l 0.9238795325112867,0.3826834323650906 c 3.344319642563856e-2,-8.073901837988415e-2 5.615847736093753e-2,-0.16551360093862058 6.756532886252378e-2 -0.2521572401450382l -0.9914448613738105,-0.1305261922200524 Z" /></g><g fill="rgb(18,64,171)" fill-opacity="1.0" stroke-width="0.0"><path d="M 0.0,0.0 l 0.7933533402912349,0.6087614290087214 c 5.3200442780779025e-2,-6.933216687829806e-2 9.708299579441297e-2,-0.1453389782637468 0.13052619222005174 -0.22607799664363087l -0.9238795325112867,-0.38268343236509056 Z" /></g><g fill="rgb(11,97,164)" fill-opacity="1.0" stroke-width="0.0"><path d="M 0.0,0.0 l 0.6087614290087202,0.7933533402912358 c 6.9332166878298e-2,-5.32004427807791e-2 0.13139146850173544,-0.11525974440421657 0.18459191128251465 -0.18459191128251448l -0.7933533402912348,-0.6087614290087213 Z" /></g><g fill="rgb(0,153,153)" fill-opacity="1.0" stroke-width="0.0"><path d="M 0.0,0.0 l 0.3826834323650893,0.9238795325112872 c 8.07390183798841e-2,-3.344319642563865e-2 0.15674582976533283,-7.732574943927262e-2 0.22607799664363096 -0.13052619222005155l -0.6087614290087202,-0.7933533402912356 Z" /></g><g fill="rgb(0,175,100)" fill-opacity="1.0" stroke-width="0.0"><path d="M 0.0,0.0 l 0.13052619222005102,0.9914448613738107 c 8.664363920641766e-2,-1.1406851501586155e-2 0.17141822176515406,-3.4122132436885146e-2 0.25215724014503826 -6.75653288625236e-2l -0.3826834323650893,-0.9238795325112871 Z" /></g><g fill="rgb(0,204,0)" fill-opacity="1.0" stroke-width="0.0"><path d="M 0.0,0.0 l -0.1305261922200522,0.9914448613738105 c 8.664363920641767e-2,1.1406851501586041e-2 0.17440874523368555,1.1406851501586011e-2 0.26105238444010326 7.632783294297951e-17l -0.13052619222005105,-0.9914448613738106 Z" /></g><g fill="rgb(103,227,0)" fill-opacity="1.0" stroke-width="0.0"><path d="M 0.0,0.0 l -0.3826834323650904,0.9238795325112867 c 8.073901837988415e-2,3.344319642563854e-2 0.16551360093862058,5.615847736093749e-2 0.2521572401450382 6.756532886252373e-2l 0.13052619222005218,-0.9914448613738105 Z" /></g><g fill="rgb(159,238,0)" fill-opacity="1.0" stroke-width="0.0"><path d="M 0.0,0.0 l -0.6087614290087212,0.7933533402912349 c 6.933216687829806e-2,5.320044278077901e-2 0.1453389782637468,9.708299579441293e-2 0.22607799664363085 0.13052619222005166l 0.3826834323650904,-0.9238795325112866 Z" /></g><g fill="rgb(204,246,0)" fill-opacity="1.0" stroke-width="0.0"><path d="M 0.0,0.0 l -0.7933533402912356,0.6087614290087203 c 5.3200442780779116e-2,6.933216687829798e-2 0.1152597444042166,0.13139146850173541 0.1845919112825145 0.1845919112825146l 0.6087614290087211,-0.7933533402912349 Z" /></g><g fill="rgb(255,255,0)" fill-opacity="1.0" stroke-width="0.0"><path d="M 0.0,0.0 l -0.923879532511287,0.3826834323650894 c 3.3443196425638665e-2,8.073901837988408e-2 7.732574943927263e-2,0.1567458297653328 0.13052619222005157 0.2260779966436309l 0.7933533402912354,-0.6087614290087203 Z" /></g><g fill="rgb(255,232,0)" fill-opacity="1.0" stroke-width="0.0"><path d="M 0.0,0.0 l -0.9914448613738106,0.1305261922200512 c 1.1406851501586171e-2,8.664363920641764e-2 3.412213243688518e-2,0.17141822176515406 6.756532886252364e-2 0.2521572401450382l 0.923879532511287,-0.3826834323650894 Z" /></g><g fill="rgb(255,211,0)" fill-opacity="1.0" stroke-width="0.0"><path d="M 0.0,0.0 l -0.9914448613738104,-0.13052619222005193 c -1.1406851501586017e-2,8.664363920641766e-2 -1.1406851501585965e-2,0.17440874523368552 0.0 0.26105238444010315l 0.9914448613738104,-0.1305261922200512 Z" /></g><g fill="rgb(255,191,0)" fill-opacity="1.0" stroke-width="0.0"><path d="M 0.0,0.0 l -0.9238795325112866,-0.38268343236509 c -3.344319642563851e-2,8.073901837988413e-2 -5.615847736093742e-2,0.16551360093862055 -6.756532886252364e-2 0.25215724014503815l 0.9914448613738103,0.13052619222005185 Z" /></g><g fill="rgb(255,170,0)" fill-opacity="1.0" stroke-width="0.0"><path d="M 0.0,0.0 l -0.7933533402912349,-0.6087614290087209 c -5.3200442780778984e-2,6.933216687829806e-2 -9.708299579441287e-2,0.1453389782637468 -0.13052619222005157 0.22607799664363085l 0.9238795325112865,0.38268343236509006 Z" /></g><g fill="rgb(255,146,0)" fill-opacity="1.0" stroke-width="0.0"><path d="M 0.0,0.0 l -0.6087614290087204,-0.7933533402912353 c -6.933216687829795e-2,5.320044278077912e-2 -0.13139146850173533,0.1152597444042166 -0.1845919112825145 0.1845919112825145l 0.7933533402912349,0.6087614290087208 Z" /></g><g fill="rgb(255,116,0)" fill-opacity="1.0" stroke-width="0.0"><path d="M 0.0,0.0 l -0.3826834323650896,-0.9238795325112867 c -8.073901837988406e-2,3.3443196425638685e-2 -0.15674582976533274,7.732574943927267e-2 -0.2260779966436308 0.13052619222005163l 0.6087614290087204,0.7933533402912352 Z" /></g><g fill="rgb(255,73,0)" fill-opacity="1.0" stroke-width="0.0"><path d="M 0.0,0.0 l -0.13052619222005143,-0.9914448613738105 c -8.664363920641764e-2,1.1406851501586192e-2 -0.17141822176515403,3.412213243688522e-2 -0.2521572401450382 6.75653288625237e-2l 0.3826834323650896,0.9238795325112867 Z" /></g><g fill="rgb(255,0,0)" fill-opacity="1.0" stroke-width="0.0"><path d="M 0.0,0.0 l 0.1305261922200517,-0.9914448613738104 c -8.664363920641766e-2,-1.1406851501585996e-2 -0.17440874523368552,-1.1406851501585926e-2 -0.26105238444010315 5.551115123125783e-17l 0.13052619222005143,0.9914448613738103 Z" /></g></g></g></g></svg>