<?xml version="1.0" encoding="UTF-8"?>
<!DOCTYPE svg PUBLIC "-//W3C//DTD SVG 1.1//EN"
    "http://www.w3.org/Graphics/SVG/1.1/DTD/svg11.dtd">
<svg xmlns="http://www.w3.org/2000/svg" xmlns:xlink="http://www.w3.org/1999/xlink" version="1.1" width="300.0" height="185.41409147095175" font-size="1" viewBox="0 0 300 185"><g><g stroke="rgb(0,0,0)" stroke-opacity="1.0" fill="rgb(0,0,0)" fill-opacity="0.0" stroke-width="1.0e-2" stroke-linecap="butt" stroke-linejoin="miter" font-size="1.0em" stroke-miterlimit="10.0"><g transform="matrix(114.59461771999487,0.0,0.0,114.59461771999487,150.0,92.70704573547587)"><g><g><g><g><g><g fill="rgb(125,5,82)" fill-opacity="1.0" stroke-width="0.0"><path d="M 1.3089620000000006,0.8090000000000002 l -1.4532397507593944e-17,-0.10786666666666667 h -0.13089620000000002 l -1.4532397507593944e-17,0.10786666666666667 h 0.13089620000000007 Z" /></g><g fill="rgb(100,149,237)" fill-opacity="1.0" stroke-width="0.0"><path d="M 1.1780658000000006,0.8090000000000002 l -1.4532397507593944e-17,-0.10786666666666667 h -0.13089620000000002 l -1.4532397507593944e-17,0.10786666666666667 h 0.13089620000000007 Z" /></g></g><g fill="rgb(62,169,159)" fill-opacity="1.0" stroke-width="0.0"><path d="M 1.0471696000000006,0.8090000000000002 l -1.4532397507593944e-17,-0.10786666666666667 h -0.13089620000000002 l -1.4532397507593944e-17,0.10786666666666667 h 0.13089620000000007 Z" /></g><g fill="rgb(201,190,98)" fill-opacity="1.0" stroke-width="0.0"><path d="M 0.9162734000000006,0.8090000000000002 l -1.4532397507593944e-17,-0.10786666666666667 h -0.13089620000000002 l -1.4532397507593944e-17,0.10786666666666667 h 0.13089620000000007 Z" /></g></g><g><g><g><g fill="rgb(126,56,23)" fill-opacity="1.0" stroke-width="0.0"><path d="M 0.7853772000000001,0.8090000000000002 l -1.4532397507593944e-17,-0.10786666666666667 h -0.13089620000000002 l -1.4532397507593944e-17,0.10786666666666667 h 0.13089620000000007 Z" /></g><g fill="rgb(209,101,135)" fill-opacity="1.0" stroke-width="0.0"><path d="M 0.6544810000000001,0.8090000000000002 l -1.4532397507593944e-17,-0.10786666666666667 h -0.13089620000000002 l -1.4532397507593944e-17,0.10786666666666667 h 0.13089620000000007 Z" /></g></g><g fill="rgb(132,103,215)" fill-opacity="1.0" stroke-width="0.0"><path d="M 0.5235848,0.8090000000000002 l -1.4532397507593944e-17,-0.10786666666666667 h -0.13089620000000002 l -1.4532397507593944e-17,0.10786666666666667 h 0.13089620000000007 Z" /></g><g fill="rgb(67,198,219)" fill-opacity="1.0" stroke-width="0.0"><path d="M 0.39268859999999994,0.8090000000000002 l -1.4532397507593944e-17,-0.10786666666666667 h -0.13089620000000002 l -1.4532397507593944e-17,0.10786666666666667 h 0.13089620000000007 Z" /></g></g><g><g fill="rgb(137,195,92)" fill-opacity="1.0" stroke-width="0.0"><path d="M 0.2617923999999999,0.8090000000000002 l -1.4532397507593944e-17,-0.10786666666666667 h -0.13089620000000002 l -1.4532397507593944e-17,0.10786666666666667 h 0.13089620000000007 Z" /></g><g fill="rgb(222,184,135)" fill-opacity="1.0" stroke-width="0.0"><path d="M 0.13089619999999985,0.8090000000000002 l -1.4532397507593944e-17,-0.10786666666666667 h -0.13089620000000002 l -1.4532397507593944e-17,0.10786666666666667 h 0.13089620000000007 Z" /></g></g><g fill="rgb(255,255,255)" fill-opacity="1.0" stroke-width="0.0"><path d="M -1.8041124150158794e-16,0.8090000000000002 l -1.4532397507593944e-17,-0.10786666666666667 h -0.13089620000000002 l -1.4532397507593944e-17,0.10786666666666667 h 0.13089620000000007 Z" /></g><g fill="rgb(195,142,199)" fill-opacity="1.0" stroke-width="0.0"><path d="M -0.13089620000000024,0.8090000000000002 l -1.4532397507593944e-17,-0.10786666666666667 h -0.13089620000000002 l -1.4532397507593944e-17,0.10786666666666667 h 0.13089620000000007 Z" /></g></g><g><g><g fill="rgb(43,84,126)" fill-opacity="1.0" stroke-width="0.0"><path d="M -0.26179240000000026,0.8090000000000002 l -1.4532397507593944e-17,-0.10786666666666667 h -0.13089620000000002 l -1.4532397507593944e-17,0.10786666666666667 h 0.13089620000000007 Z" /></g><g fill="rgb(78,146,88)" fill-opacity="1.0" stroke-width="0.0"><path d="M -0.39268860000000033,0.8090000000000002 l -1.4532397507593944e-17,-0.10786666666666667 h -0.13089620000000002 l -1.4532397507593944e-17,0.10786666666666667 h 0.13089620000000007 Z" /></g></g><g fill="rgb(253,208,23)" fill-opacity="1.0" stroke-width="0.0"><path d="M -0.5235848000000004,0.8090000000000002 l -1.4532397507593944e-17,-0.10786666666666667 h -0.13089620000000002 l -1.4532397507593944e-17,0.10786666666666667 h 0.13089620000000007 Z" /></g><g fill="rgb(102,99,98)" fill-opacity="1.0" stroke-width="0.0"><path d="M -0.6544810000000004,0.8090000000000002 l -1.4532397507593944e-17,-0.10786666666666667 h -0.13089620000000002 l -1.4532397507593944e-17,0.10786666666666667 h 0.13089620000000007 Z" /></g></g><g><g fill="rgb(193,34,103)" fill-opacity="1.0" stroke-width="0.0"><path d="M -0.7853772000000006,0.8090000000000002 l -1.4532397507593944e-17,-0.10786666666666667 h -0.13089620000000002 l -1.4532397507593944e-17,0.10786666666666667 h 0.13089620000000007 Z" /></g><g fill="rgb(0,32,194)" fill-opacity="1.0" stroke-width="0.0"><path d="M -0.9162734000000006,0.8090000000000002 l -1.4532397507593944e-17,-0.10786666666666667 h -0.13089620000000002 l -1.4532397507593944e-17,0.10786666666666667 h 0.13089620000000007 Z" /></g></g><g fill="rgb(80,235,236)" fill-opacity="1.0" stroke-width="0.0"><path d="M -1.0471696000000006,0.8090000000000002 l -1.4532397507593944e-17,-0.10786666666666667 h -0.13089620000000002 l -1.4532397507593944e-17,0.10786666666666667 h 0.13089620000000007 Z" /></g><g fill="rgb(161,201,53)" fill-opacity="1.0" stroke-width="0.0"><path d="M -1.1780658000000006,0.8090000000000002 l -1.4532397507593944e-17,-0.10786666666666667 h -0.13089620000000002 l -1.4532397507593944e-17,0.10786666666666667 h 0.13089620000000007 Z" /></g></g><g><g><g><g fill="rgb(161,201,53)" fill-opacity="1.0" stroke-width="0.0"><path d="M 1.3089620000000006,0.7011333333333334 l -1.4532397507593944e-17,-0.10786666666666667 h -0.13089620000000002 l -1.4532397507593944e-17,0.10786666666666667 h 0.13089620000000007 Z" /></g><g fill="rgb(72,60,50)" fill-opacity="1.0" stroke-width="0.0"><path d="M 1.1780658000000006,0.7011333333333334 l -1.4532397507593944e-17,-0.10786666666666667 h -0.13089620000000002 l -1.4532397507593944e-17,0.10786666666666667 h 0.13089620000000007 Z" /></g></g><g fill="rgb(153,0,18)" fill-opacity="1.0" stroke-width="0.0"><path d="M 1.0471696000000006,0.7011333333333334 l -1.4532397507593944e-17,-0.10786666666666667 h -0.13089620000000002 l -1.4532397507593944e-17,0.10786666666666667 h 0.13089620000000007 Z" /></g><g fill="rgb(87,27,126)" fill-opacity="1.0" stroke-width="0.0"><path d="M 0.9162734000000006,0.7011333333333334 l -1.4532397507593944e-17,-0.10786666666666667 h -0.13089620000000002 l -1.4532397507593944e-17,0.10786666666666667 h 0.13089620000000007 Z" /></g></g><g><g><g><g fill="rgb(130,202,250)" fill-opacity="1.0" stroke-width="0.0"><path d="M 0.7853772000000001,0.7011333333333334 l -1.4532397507593944e-17,-0.10786666666666667 h -0.13089620000000002 l -1.4532397507593944e-17,0.10786666666666667 h 0.13089620000000007 Z" /></g><g fill="rgb(139,179,129)" fill-opacity="1.0" stroke-width="0.0"><path d="M 0.6544810000000001,0.7011333333333334 l -1.4532397507593944e-17,-0.10786666666666667 h -0.13089620000000002 l -1.4532397507593944e-17,0.10786666666666667 h 0.13089620000000007 Z" /></g></g><g fill="rgb(251,177,23)" fill-opacity="1.0" stroke-width="0.0"><path d="M 0.5235848,0.7011333333333334 l -1.4532397507593944e-17,-0.10786666666666667 h -0.13089620000000002 l -1.4532397507593944e-17,0.10786666666666667 h 0.13089620000000007 Z" /></g><g fill="rgb(179,132,129)" fill-opacity="1.0" stroke-width="0.0"><path d="M 0.39268859999999994,0.7011333333333334 l -1.4532397507593944e-17,-0.10786666666666667 h -0.13089620000000002 l -1.4532397507593944e-17,0.10786666666666667 h 0.13089620000000007 Z" /></g></g><g><g fill="rgb(227,49,157)" fill-opacity="1.0" stroke-width="0.0"><path d="M 0.2617923999999999,0.7011333333333334 l -1.4532397507593944e-17,-0.10786666666666667 h -0.13089620000000002 l -1.4532397507593944e-17,0.10786666666666667 h 0.13089620000000007 Z" /></g><g fill="rgb(102,152,255)" fill-opacity="1.0" stroke-width="0.0"><path d="M 0.13089619999999985,0.7011333333333334 l -1.4532397507593944e-17,-0.10786666666666667 h -0.13089620000000002 l -1.4532397507593944e-17,0.10786666666666667 h 0.13089620000000007 Z" /></g></g><g fill="rgb(207,236,236)" fill-opacity="1.0" stroke-width="0.0"><path d="M -1.8041124150158794e-16,0.7011333333333334 l -1.4532397507593944e-17,-0.10786666666666667 h -0.13089620000000002 l -1.4532397507593944e-17,0.10786666666666667 h 0.13089620000000007 Z" /></g><g fill="rgb(173,169,110)" fill-opacity="1.0" stroke-width="0.0"><path d="M -0.13089620000000024,0.7011333333333334 l -1.4532397507593944e-17,-0.10786666666666667 h -0.13089620000000002 l -1.4532397507593944e-17,0.10786666666666667 h 0.13089620000000007 Z" /></g></g><g><g><g fill="rgb(248,116,49)" fill-opacity="1.0" stroke-width="0.0"><path d="M -0.26179240000000026,0.7011333333333334 l -1.4532397507593944e-17,-0.10786666666666667 h -0.13089620000000002 l -1.4532397507593944e-17,0.10786666666666667 h 0.13089620000000007 Z" /></g><g fill="rgb(250,175,190)" fill-opacity="1.0" stroke-width="0.0"><path d="M -0.39268860000000033,0.7011333333333334 l -1.4532397507593944e-17,-0.10786666666666667 h -0.13089620000000002 l -1.4532397507593944e-17,0.10786666666666667 h 0.13089620000000007 Z" /></g></g><g fill="rgb(78,56,126)" fill-opacity="1.0" stroke-width="0.0"><path d="M -0.5235848000000004,0.7011333333333334 l -1.4532397507593944e-17,-0.10786666666666667 h -0.13089620000000002 l -1.4532397507593944e-17,0.10786666666666667 h 0.13089620000000007 Z" /></g><g fill="rgb(189,237,255)" fill-opacity="1.0" stroke-width="0.0"><path d="M -0.6544810000000004,0.7011333333333334 l -1.4532397507593944e-17,-0.10786666666666667 h -0.13089620000000002 l -1.4532397507593944e-17,0.10786666666666667 h 0.13089620000000007 Z" /></g></g><g><g fill="rgb(133,187,101)" fill-opacity="1.0" stroke-width="0.0"><path d="M -0.7853772000000006,0.7011333333333334 l -1.4532397507593944e-17,-0.10786666666666667 h -0.13089620000000002 l -1.4532397507593944e-17,0.10786666666666667 h 0.13089620000000007 Z" /></g><g fill="rgb(255,166,47)" fill-opacity="1.0" stroke-width="0.0"><path d="M -0.9162734000000006,0.7011333333333334 l -1.4532397507593944e-17,-0.10786666666666667 h -0.13089620000000002 l -1.4532397507593944e-17,0.10786666666666667 h 0.13089620000000007 Z" /></g></g><g fill="rgb(193,27,23)" fill-opacity="1.0" stroke-width="0.0"><path d="M -1.0471696000000006,0.7011333333333334 l -1.4532397507593944e-17,-0.10786666666666667 h -0.13089620000000002 l -1.4532397507593944e-17,0.10786666666666667 h 0.13089620000000007 Z" /></g><g fill="rgb(176,72,181)" fill-opacity="1.0" stroke-width="0.0"><path d="M -1.1780658000000006,0.7011333333333334 l -1.4532397507593944e-17,-0.10786666666666667 h -0.13089620000000002 l -1.4532397507593944e-17,0.10786666666666667 h 0.13089620000000007 Z" /></g></g><g><g><g><g fill="rgb(176,72,181)" fill-opacity="1.0" stroke-width="0.0"><path d="M 1.3089620000000006,0.5932666666666668 l -1.4532397507593944e-17,-0.10786666666666667 h -0.13089620000000002 l -1.4532397507593944e-17,0.10786666666666667 h 0.13089620000000007 Z" /></g><g fill="rgb(180,207,236)" fill-opacity="1.0" stroke-width="0.0"><path d="M 1.1780658000000006,0.5932666666666668 l -1.4532397507593944e-17,-0.10786666666666667 h -0.13089620000000002 l -1.4532397507593944e-17,0.10786666666666667 h 0.13089620000000007 Z" /></g></g><g fill="rgb(100,233,134)" fill-opacity="1.0" stroke-width="0.0"><path d="M 1.0471696000000006,0.5932666666666668 l -1.4532397507593944e-17,-0.10786666666666667 h -0.13089620000000002 l -1.4532397507593944e-17,0.10786666666666667 h 0.13089620000000007 Z" /></g><g fill="rgb(200,181,96)" fill-opacity="1.0" stroke-width="0.0"><path d="M 0.9162734000000006,0.5932666666666668 l -1.4532397507593944e-17,-0.10786666666666667 h -0.13089620000000002 l -1.4532397507593944e-17,0.10786666666666667 h 0.13089620000000007 Z" /></g></g><g><g><g><g fill="rgb(255,127,80)" fill-opacity="1.0" stroke-width="0.0"><path d="M 0.7853772000000001,0.5932666666666668 l -1.4532397507593944e-17,-0.10786666666666667 h -0.13089620000000002 l -1.4532397507593944e-17,0.10786666666666667 h 0.13089620000000007 Z" /></g><g fill="rgb(253,238,244)" fill-opacity="1.0" stroke-width="0.0"><path d="M 0.6544810000000001,0.5932666666666668 l -1.4532397507593944e-17,-0.10786666666666667 h -0.13089620000000002 l -1.4532397507593944e-17,0.10786666666666667 h 0.13089620000000007 Z" /></g></g><g fill="rgb(227,228,250)" fill-opacity="1.0" stroke-width="0.0"><path d="M 0.5235848,0.5932666666666668 l -1.4532397507593944e-17,-0.10786666666666667 h -0.13089620000000002 l -1.4532397507593944e-17,0.10786666666666667 h 0.13089620000000007 Z" /></g><g fill="rgb(154,254,255)" fill-opacity="1.0" stroke-width="0.0"><path d="M 0.39268859999999994,0.5932666666666668 l -1.4532397507593944e-17,-0.10786666666666667 h -0.13089620000000002 l -1.4532397507593944e-17,0.10786666666666667 h 0.13089620000000007 Z" /></g></g><g><g fill="rgb(156,176,113)" fill-opacity="1.0" stroke-width="0.0"><path d="M 0.2617923999999999,0.5932666666666668 l -1.4532397507593944e-17,-0.10786666666666667 h -0.13089620000000002 l -1.4532397507593944e-17,0.10786666666666667 h 0.13089620000000007 Z" /></g><g fill="rgb(200,129,65)" fill-opacity="1.0" stroke-width="0.0"><path d="M 0.13089619999999985,0.5932666666666668 l -1.4532397507593944e-17,-0.10786666666666667 h -0.13089620000000002 l -1.4532397507593944e-17,0.10786666666666667 h 0.13089620000000007 Z" /></g></g><g fill="rgb(159,0,15)" fill-opacity="1.0" stroke-width="0.0"><path d="M -1.8041124150158794e-16,0.5932666666666668 l -1.4532397507593944e-17,-0.10786666666666667 h -0.13089620000000002 l -1.4532397507593944e-17,0.10786666666666667 h 0.13089620000000007 Z" /></g><g fill="rgb(196,90,236)" fill-opacity="1.0" stroke-width="0.0"><path d="M -0.13089620000000024,0.5932666666666668 l -1.4532397507593944e-17,-0.10786666666666667 h -0.13089620000000002 l -1.4532397507593944e-17,0.10786666666666667 h 0.13089620000000007 Z" /></g></g><g><g><g fill="rgb(86,109,126)" fill-opacity="1.0" stroke-width="0.0"><path d="M -0.26179240000000026,0.5932666666666668 l -1.4532397507593944e-17,-0.10786666666666667 h -0.13089620000000002 l -1.4532397507593944e-17,0.10786666666666667 h 0.13089620000000007 Z" /></g><g fill="rgb(195,253,184)" fill-opacity="1.0" stroke-width="0.0"><path d="M -0.39268860000000033,0.5932666666666668 l -1.4532397507593944e-17,-0.10786666666666667 h -0.13089620000000002 l -1.4532397507593944e-17,0.10786666666666667 h 0.13089620000000007 Z" /></g></g><g fill="rgb(251,185,23)" fill-opacity="1.0" stroke-width="0.0"><path d="M -0.5235848000000004,0.5932666666666668 l -1.4532397507593944e-17,-0.10786666666666667 h -0.13089620000000002 l -1.4532397507593944e-17,0.10786666666666667 h 0.13089620000000007 Z" /></g><g fill="rgb(255,36,0)" fill-opacity="1.0" stroke-width="0.0"><path d="M -0.6544810000000004,0.5932666666666668 l -1.4532397507593944e-17,-0.10786666666666667 h -0.13089620000000002 l -1.4532397507593944e-17,0.10786666666666667 h 0.13089620000000007 Z" /></g></g><g><g fill="rgb(246,96,171)" fill-opacity="1.0" stroke-width="0.0"><path d="M -0.7853772000000006,0.5932666666666668 l -1.4532397507593944e-17,-0.10786666666666667 h -0.13089620000000002 l -1.4532397507593944e-17,0.10786666666666667 h 0.13089620000000007 Z" /></g><g fill="rgb(43,56,86)" fill-opacity="1.0" stroke-width="0.0"><path d="M -0.9162734000000006,0.5932666666666668 l -1.4532397507593944e-17,-0.10786666666666667 h -0.13089620000000002 l -1.4532397507593944e-17,0.10786666666666667 h 0.13089620000000007 Z" /></g></g><g fill="rgb(204,255,255)" fill-opacity="1.0" stroke-width="0.0"><path d="M -1.0471696000000006,0.5932666666666668 l -1.4532397507593944e-17,-0.10786666666666667 h -0.13089620000000002 l -1.4532397507593944e-17,0.10786666666666667 h 0.13089620000000007 Z" /></g><g fill="rgb(132,132,130)" fill-opacity="1.0" stroke-width="0.0"><path d="M -1.1780658000000006,0.5932666666666668 l -1.4532397507593944e-17,-0.10786666666666667 h -0.13089620000000002 l -1.4532397507593944e-17,0.10786666666666667 h 0.13089620000000007 Z" /></g></g></g><g><g><g><g><g fill="rgb(132,132,130)" fill-opacity="1.0" stroke-width="0.0"><path d="M 1.3089620000000006,0.4854000000000001 l -1.4532397507593944e-17,-0.10786666666666667 h -0.13089620000000002 l -1.4532397507593944e-17,0.10786666666666667 h 0.13089620000000007 Z" /></g><g fill="rgb(195,88,23)" fill-opacity="1.0" stroke-width="0.0"><path d="M 1.1780658000000006,0.4854000000000001 l -1.4532397507593944e-17,-0.10786666666666667 h -0.13089620000000002 l -1.4532397507593944e-17,0.10786666666666667 h 0.13089620000000007 Z" /></g></g><g fill="rgb(252,108,133)" fill-opacity="1.0" stroke-width="0.0"><path d="M 1.0471696000000006,0.4854000000000001 l -1.4532397507593944e-17,-0.10786666666666667 h -0.13089620000000002 l -1.4532397507593944e-17,0.10786666666666667 h 0.13089620000000007 Z" /></g><g fill="rgb(108,45,199)" fill-opacity="1.0" stroke-width="0.0"><path d="M 0.9162734000000006,0.4854000000000001 l -1.4532397507593944e-17,-0.10786666666666667 h -0.13089620000000002 l -1.4532397507593944e-17,0.10786666666666667 h 0.13089620000000007 Z" /></g></g><g><g><g><g fill="rgb(56,172,236)" fill-opacity="1.0" stroke-width="0.0"><path d="M 0.7853772000000001,0.4854000000000001 l -1.4532397507593944e-17,-0.10786666666666667 h -0.13089620000000002 l -1.4532397507593944e-17,0.10786666666666667 h 0.13089620000000007 Z" /></g><g fill="rgb(89,232,23)" fill-opacity="1.0" stroke-width="0.0"><path d="M 0.6544810000000001,0.4854000000000001 l -1.4532397507593944e-17,-0.10786666666666667 h -0.13089620000000002 l -1.4532397507593944e-17,0.10786666666666667 h 0.13089620000000007 Z" /></g></g><g fill="rgb(242,187,102)" fill-opacity="1.0" stroke-width="0.0"><path d="M 0.5235848,0.4854000000000001 l -1.4532397507593944e-17,-0.10786666666666667 h -0.13089620000000002 l -1.4532397507593944e-17,0.10786666666666667 h 0.13089620000000007 Z" /></g><g fill="rgb(251,187,185)" fill-opacity="1.0" stroke-width="0.0"><path d="M 0.39268859999999994,0.4854000000000001 l -1.4532397507593944e-17,-0.10786666666666667 h -0.13089620000000002 l -1.4532397507593944e-17,0.10786666666666667 h 0.13089620000000007 Z" /></g></g><g><g fill="rgb(125,27,126)" fill-opacity="1.0" stroke-width="0.0"><path d="M 0.2617923999999999,0.4854000000000001 l -1.4532397507593944e-17,-0.10786666666666667 h -0.13089620000000002 l -1.4532397507593944e-17,0.10786666666666667 h 0.13089620000000007 Z" /></g><g fill="rgb(101,115,131)" fill-opacity="1.0" stroke-width="0.0"><path d="M 0.13089619999999985,0.4854000000000001 l -1.4532397507593944e-17,-0.10786666666666667 h -0.13089620000000002 l -1.4532397507593944e-17,0.10786666666666667 h 0.13089620000000007 Z" /></g></g><g fill="rgb(48,103,84)" fill-opacity="1.0" stroke-width="0.0"><path d="M -1.8041124150158794e-16,0.4854000000000001 l -1.4532397507593944e-17,-0.10786666666666667 h -0.13089620000000002 l -1.4532397507593944e-17,0.10786666666666667 h 0.13089620000000007 Z" /></g><g fill="rgb(255,216,1)" fill-opacity="1.0" stroke-width="0.0"><path d="M -0.13089620000000024,0.4854000000000001 l -1.4532397507593944e-17,-0.10786666666666667 h -0.13089620000000002 l -1.4532397507593944e-17,0.10786666666666667 h 0.13089620000000007 Z" /></g></g><g><g><g fill="rgb(126,53,23)" fill-opacity="1.0" stroke-width="0.0"><path d="M -0.26179240000000026,0.4854000000000001 l -1.4532397507593944e-17,-0.10786666666666667 h -0.13089620000000002 l -1.4532397507593944e-17,0.10786666666666667 h 0.13089620000000007 Z" /></g><g fill="rgb(52,40,44)" fill-opacity="1.0" stroke-width="0.0"><path d="M -0.39268860000000033,0.4854000000000001 l -1.4532397507593944e-17,-0.10786666666666667 h -0.13089620000000002 l -1.4532397507593944e-17,0.10786666666666667 h 0.13089620000000007 Z" /></g></g><g fill="rgb(115,106,255)" fill-opacity="1.0" stroke-width="0.0"><path d="M -0.5235848000000004,0.4854000000000001 l -1.4532397507593944e-17,-0.10786666666666667 h -0.13089620000000002 l -1.4532397507593944e-17,0.10786666666666667 h 0.13089620000000007 Z" /></g><g fill="rgb(94,125,126)" fill-opacity="1.0" stroke-width="0.0"><path d="M -0.6544810000000004,0.4854000000000001 l -1.4532397507593944e-17,-0.10786666666666667 h -0.13089620000000002 l -1.4532397507593944e-17,0.10786666666666667 h 0.13089620000000007 Z" /></g></g><g><g fill="rgb(138,251,23)" fill-opacity="1.0" stroke-width="0.0"><path d="M -0.7853772000000006,0.4854000000000001 l -1.4532397507593944e-17,-0.10786666666666667 h -0.13089620000000002 l -1.4532397507593944e-17,0.10786666666666667 h 0.13089620000000007 Z" /></g><g fill="rgb(226,167,111)" fill-opacity="1.0" stroke-width="0.0"><path d="M -0.9162734000000006,0.4854000000000001 l -1.4532397507593944e-17,-0.10786666666666667 h -0.13089620000000002 l -1.4532397507593944e-17,0.10786666666666667 h 0.13089620000000007 Z" /></g></g><g fill="rgb(59,49,49)" fill-opacity="1.0" stroke-width="0.0"><path d="M -1.0471696000000006,0.4854000000000001 l -1.4532397507593944e-17,-0.10786666666666667 h -0.13089620000000002 l -1.4532397507593944e-17,0.10786666666666667 h 0.13089620000000007 Z" /></g><g fill="rgb(106,40,126)" fill-opacity="1.0" stroke-width="0.0"><path d="M -1.1780658000000006,0.4854000000000001 l -1.4532397507593944e-17,-0.10786666666666667 h -0.13089620000000002 l -1.4532397507593944e-17,0.10786666666666667 h 0.13089620000000007 Z" /></g></g><g><g><g><g fill="rgb(106,40,126)" fill-opacity="1.0" stroke-width="0.0"><path d="M 1.3089620000000006,0.37753333333333344 l -1.4532397507593944e-17,-0.10786666666666667 h -0.13089620000000002 l -1.4532397507593944e-17,0.10786666666666667 h 0.13089620000000007 Z" /></g><g fill="rgb(240,248,255)" fill-opacity="1.0" stroke-width="0.0"><path d="M 1.1780658000000006,0.37753333333333344 l -1.4532397507593944e-17,-0.10786666666666667 h -0.13089620000000002 l -1.4532397507593944e-17,0.10786666666666667 h 0.13089620000000007 Z" /></g></g><g fill="rgb(152,255,152)" fill-opacity="1.0" stroke-width="0.0"><path d="M 1.0471696000000006,0.37753333333333344 l -1.4532397507593944e-17,-0.10786666666666667 h -0.13089620000000002 l -1.4532397507593944e-17,0.10786666666666667 h 0.13089620000000007 Z" /></g><g fill="rgb(194,178,128)" fill-opacity="1.0" stroke-width="0.0"><path d="M 0.9162734000000006,0.37753333333333344 l -1.4532397507593944e-17,-0.10786666666666667 h -0.13089620000000002 l -1.4532397507593944e-17,0.10786666666666667 h 0.13089620000000007 Z" /></g></g><g><g><g><g fill="rgb(109,105,104)" fill-opacity="1.0" stroke-width="0.0"><path d="M 0.7853772000000001,0.37753333333333344 l -1.4532397507593944e-17,-0.10786666666666667 h -0.13089620000000002 l -1.4532397507593944e-17,0.10786666666666667 h 0.13089620000000007 Z" /></g><g fill="rgb(245,40,135)" fill-opacity="1.0" stroke-width="0.0"><path d="M 0.6544810000000001,0.37753333333333344 l -1.4532397507593944e-17,-0.10786666666666667 h -0.13089620000000002 l -1.4532397507593944e-17,0.10786666666666667 h 0.13089620000000007 Z" /></g></g><g fill="rgb(43,96,222)" fill-opacity="1.0" stroke-width="0.0"><path d="M 0.5235848,0.37753333333333344 l -1.4532397507593944e-17,-0.10786666666666667 h -0.13089620000000002 l -1.4532397507593944e-17,0.10786666666666667 h 0.13089620000000007 Z" /></g><g fill="rgb(120,199,199)" fill-opacity="1.0" stroke-width="0.0"><path d="M 0.39268859999999994,0.37753333333333344 l -1.4532397507593944e-17,-0.10786666666666667 h -0.13089620000000002 l -1.4532397507593944e-17,0.10786666666666667 h 0.13089620000000007 Z" /></g></g><g><g fill="rgb(255,255,194)" fill-opacity="1.0" stroke-width="0.0"><path d="M 0.2617923999999999,0.37753333333333344 l -1.4532397507593944e-17,-0.10786666666666667 h -0.13089620000000002 l -1.4532397507593944e-17,0.10786666666666667 h 0.13089620000000007 Z" /></g><g fill="rgb(248,114,23)" fill-opacity="1.0" stroke-width="0.0"><path d="M 0.13089619999999985,0.37753333333333344 l -1.4532397507593944e-17,-0.10786666666666667 h -0.13089620000000002 l -1.4532397507593944e-17,0.10786666666666667 h 0.13089620000000007 Z" /></g></g><g fill="rgb(250,175,186)" fill-opacity="1.0" stroke-width="0.0"><path d="M -1.8041124150158794e-16,0.37753333333333344 l -1.4532397507593944e-17,-0.10786666666666667 h -0.13089620000000002 l -1.4532397507593944e-17,0.10786666666666667 h 0.13089620000000007 Z" /></g><g fill="rgb(132,45,206)" fill-opacity="1.0" stroke-width="0.0"><path d="M -0.13089620000000024,0.37753333333333344 l -1.4532397507593944e-17,-0.10786666666666667 h -0.13089620000000002 l -1.4532397507593944e-17,0.10786666666666667 h 0.13089620000000007 Z" /></g></g><g><g><g fill="rgb(188,198,204)" fill-opacity="1.0" stroke-width="0.0"><path d="M -0.26179240000000026,0.37753333333333344 l -1.4532397507593944e-17,-0.10786666666666667 h -0.13089620000000002 l -1.4532397507593944e-17,0.10786666666666667 h 0.13089620000000007 Z" /></g><g fill="rgb(65,163,23)" fill-opacity="1.0" stroke-width="0.0"><path d="M -0.39268860000000033,0.37753333333333344 l -1.4532397507593944e-17,-0.10786666666666667 h -0.13089620000000002 l -1.4532397507593944e-17,0.10786666666666667 h 0.13089620000000007 Z" /></g></g><g fill="rgb(197,137,23)" fill-opacity="1.0" stroke-width="0.0"><path d="M -0.5235848000000004,0.37753333333333344 l -1.4532397507593944e-17,-0.10786666666666667 h -0.13089620000000002 l -1.4532397507593944e-17,0.10786666666666667 h 0.13089620000000007 Z" /></g><g fill="rgb(232,173,170)" fill-opacity="1.0" stroke-width="0.0"><path d="M -0.6544810000000004,0.37753333333333344 l -1.4532397507593944e-17,-0.10786666666666667 h -0.13089620000000002 l -1.4532397507593944e-17,0.10786666666666667 h 0.13089620000000007 Z" /></g></g><g><g fill="rgb(200,162,200)" fill-opacity="1.0" stroke-width="0.0"><path d="M -0.7853772000000006,0.37753333333333344 l -1.4532397507593944e-17,-0.10786666666666667 h -0.13089620000000002 l -1.4532397507593944e-17,0.10786666666666667 h 0.13089620000000007 Z" /></g><g fill="rgb(198,222,255)" fill-opacity="1.0" stroke-width="0.0"><path d="M -0.9162734000000006,0.37753333333333344 l -1.4532397507593944e-17,-0.10786666666666667 h -0.13089620000000002 l -1.4532397507593944e-17,0.10786666666666667 h 0.13089620000000007 Z" /></g></g><g fill="rgb(147,255,232)" fill-opacity="1.0" stroke-width="0.0"><path d="M -1.0471696000000006,0.37753333333333344 l -1.4532397507593944e-17,-0.10786666666666667 h -0.13089620000000002 l -1.4532397507593944e-17,0.10786666666666667 h 0.13089620000000007 Z" /></g><g fill="rgb(236,229,182)" fill-opacity="1.0" stroke-width="0.0"><path d="M -1.1780658000000006,0.37753333333333344 l -1.4532397507593944e-17,-0.10786666666666667 h -0.13089620000000002 l -1.4532397507593944e-17,0.10786666666666667 h 0.13089620000000007 Z" /></g></g></g><g><g><g><g fill="rgb(236,229,182)" fill-opacity="1.0" stroke-width="0.0"><path d="M 1.3089620000000006,0.2696666666666668 l -1.4532397507593944e-17,-0.10786666666666667 h -0.13089620000000002 l -1.4532397507593944e-17,0.10786666666666667 h 0.13089620000000007 Z" /></g><g fill="rgb(231,138,97)" fill-opacity="1.0" stroke-width="0.0"><path d="M 1.1780658000000006,0.2696666666666668 l -1.4532397507593944e-17,-0.10786666666666667 h -0.13089620000000002 l -1.4532397507593944e-17,0.10786666666666667 h 0.13089620000000007 Z" /></g></g><g fill="rgb(247,120,161)" fill-opacity="1.0" stroke-width="0.0"><path d="M 1.0471696000000006,0.2696666666666668 l -1.4532397507593944e-17,-0.10786666666666667 h -0.13089620000000002 l -1.4532397507593944e-17,0.10786666666666667 h 0.13089620000000007 Z" /></g><g fill="rgb(94,90,128)" fill-opacity="1.0" stroke-width="0.0"><path d="M 0.9162734000000006,0.2696666666666668 l -1.4532397507593944e-17,-0.10786666666666667 h -0.13089620000000002 l -1.4532397507593944e-17,0.10786666666666667 h 0.13089620000000007 Z" /></g></g><g><g><g><g fill="rgb(119,191,199)" fill-opacity="1.0" stroke-width="0.0"><path d="M 0.7853772000000001,0.2696666666666668 l -1.4532397507593944e-17,-0.10786666666666667 h -0.13089620000000002 l -1.4532397507593944e-17,0.10786666666666667 h 0.13089620000000007 Z" /></g><g fill="rgb(108,196,23)" fill-opacity="1.0" stroke-width="0.0"><path d="M 0.6544810000000001,0.2696666666666668 l -1.4532397507593944e-17,-0.10786666666666667 h -0.13089620000000002 l -1.4532397507593944e-17,0.10786666666666667 h 0.13089620000000007 Z" /></g></g><g fill="rgb(193,154,107)" fill-opacity="1.0" stroke-width="0.0"><path d="M 0.5235848,0.2696666666666668 l -1.4532397507593944e-17,-0.10786666666666667 h -0.13089620000000002 l -1.4532397507593944e-17,0.10786666666666667 h 0.13089620000000007 Z" /></g><g fill="rgb(98,93,93)" fill-opacity="1.0" stroke-width="0.0"><path d="M 0.39268859999999994,0.2696666666666668 l -1.4532397507593944e-17,-0.10786666666666667 h -0.13089620000000002 l -1.4532397507593944e-17,0.10786666666666667 h 0.13089620000000007 Z" /></g></g><g><g fill="rgb(230,169,236)" fill-opacity="1.0" stroke-width="0.0"><path d="M 0.2617923999999999,0.2696666666666668 l -1.4532397507593944e-17,-0.10786666666666667 h -0.13089620000000002 l -1.4532397507593944e-17,0.10786666666666667 h 0.13089620000000007 Z" /></g><g fill="rgb(53,126,199)" fill-opacity="1.0" stroke-width="0.0"><path d="M 0.13089619999999985,0.2696666666666668 l -1.4532397507593944e-17,-0.10786666666666667 h -0.13089620000000002 l -1.4532397507593944e-17,0.10786666666666667 h 0.13089620000000007 Z" /></g></g><g fill="rgb(87,233,100)" fill-opacity="1.0" stroke-width="0.0"><path d="M -1.8041124150158794e-16,0.2696666666666668 l -1.4532397507593944e-17,-0.10786666666666667 h -0.13089620000000002 l -1.4532397507593944e-17,0.10786666666666667 h 0.13089620000000007 Z" /></g><g fill="rgb(199,163,23)" fill-opacity="1.0" stroke-width="0.0"><path d="M -0.13089620000000024,0.2696666666666668 l -1.4532397507593944e-17,-0.10786666666666667 h -0.13089620000000002 l -1.4532397507593944e-17,0.10786666666666667 h 0.13089620000000007 Z" /></g></g><g><g><g fill="rgb(114,110,109)" fill-opacity="1.0" stroke-width="0.0"><path d="M -0.26179240000000026,0.2696666666666668 l -1.4532397507593944e-17,-0.10786666666666667 h -0.13089620000000002 l -1.4532397507593944e-17,0.10786666666666667 h 0.13089620000000007 Z" /></g><g fill="rgb(194,82,131)" fill-opacity="1.0" stroke-width="0.0"><path d="M -0.39268860000000033,0.2696666666666668 l -1.4532397507593944e-17,-0.10786666666666667 h -0.13089620000000002 l -1.4532397507593944e-17,0.10786666666666667 h 0.13089620000000007 Z" /></g></g><g fill="rgb(115,124,161)" fill-opacity="1.0" stroke-width="0.0"><path d="M -0.5235848000000004,0.2696666666666668 l -1.4532397507593944e-17,-0.10786666666666667 h -0.13089620000000002 l -1.4532397507593944e-17,0.10786666666666667 h 0.13089620000000007 Z" /></g><g fill="rgb(0,128,128)" fill-opacity="1.0" stroke-width="0.0"><path d="M -0.6544810000000004,0.2696666666666668 l -1.4532397507593944e-17,-0.10786666666666667 h -0.13089620000000002 l -1.4532397507593944e-17,0.10786666666666667 h 0.13089620000000007 Z" /></g></g><g><g fill="rgb(157,194,9)" fill-opacity="1.0" stroke-width="0.0"><path d="M -0.7853772000000006,0.2696666666666668 l -1.4532397507593944e-17,-0.10786666666666667 h -0.13089620000000002 l -1.4532397507593944e-17,0.10786666666666667 h 0.13089620000000007 Z" /></g><g fill="rgb(237,201,175)" fill-opacity="1.0" stroke-width="0.0"><path d="M -0.9162734000000006,0.2696666666666668 l -1.4532397507593944e-17,-0.10786666666666667 h -0.13089620000000002 l -1.4532397507593944e-17,0.10786666666666667 h 0.13089620000000007 Z" /></g></g><g fill="rgb(70,62,63)" fill-opacity="1.0" stroke-width="0.0"><path d="M -1.0471696000000006,0.2696666666666668 l -1.4532397507593944e-17,-0.10786666666666667 h -0.13089620000000002 l -1.4532397507593944e-17,0.10786666666666667 h 0.13089620000000007 Z" /></g><g fill="rgb(176,65,255)" fill-opacity="1.0" stroke-width="0.0"><path d="M -1.1780658000000006,0.2696666666666668 l -1.4532397507593944e-17,-0.10786666666666667 h -0.13089620000000002 l -1.4532397507593944e-17,0.10786666666666667 h 0.13089620000000007 Z" /></g></g><g><g><g><g fill="rgb(176,65,255)" fill-opacity="1.0" stroke-width="0.0"><path d="M 1.3089620000000006,0.1618000000000001 l -1.4532397507593944e-17,-0.10786666666666667 h -0.13089620000000002 l -1.4532397507593944e-17,0.10786666666666667 h 0.13089620000000007 Z" /></g><g fill="rgb(173,223,255)" fill-opacity="1.0" stroke-width="0.0"><path d="M 1.1780658000000006,0.1618000000000001 l -1.4532397507593944e-17,-0.10786666666666667 h -0.13089620000000002 l -1.4532397507593944e-17,0.10786666666666667 h 0.13089620000000007 Z" /></g></g><g fill="rgb(74,160,44)" fill-opacity="1.0" stroke-width="0.0"><path d="M 1.0471696000000006,0.1618000000000001 l -1.4532397507593944e-17,-0.10786666666666667 h -0.13089620000000002 l -1.4532397507593944e-17,0.10786666666666667 h 0.13089620000000007 Z" /></g><g fill="rgb(229,228,226)" fill-opacity="1.0" stroke-width="0.0"><path d="M 0.9162734000000006,0.1618000000000001 l -1.4532397507593944e-17,-0.10786666666666667 h -0.13089620000000002 l -1.4532397507593944e-17,0.10786666666666667 h 0.13089620000000007 Z" /></g></g><g><g><g><g fill="rgb(228,34,23)" fill-opacity="1.0" stroke-width="0.0"><path d="M 0.7853772000000001,0.1618000000000001 l -1.4532397507593944e-17,-0.10786666666666667 h -0.13089620000000002 l -1.4532397507593944e-17,0.10786666666666667 h 0.13089620000000007 Z" /></g><g fill="rgb(193,34,131)" fill-opacity="1.0" stroke-width="0.0"><path d="M 0.6544810000000001,0.1618000000000001 l -1.4532397507593944e-17,-0.10786666666666667 h -0.13089620000000002 l -1.4532397507593944e-17,0.10786666666666667 h 0.13089620000000007 Z" /></g></g><g fill="rgb(100,109,126)" fill-opacity="1.0" stroke-width="0.0"><path d="M 0.5235848,0.1618000000000001 l -1.4532397507593944e-17,-0.10786666666666667 h -0.13089620000000002 l -1.4532397507593944e-17,0.10786666666666667 h 0.13089620000000007 Z" /></g><g fill="rgb(129,216,208)" fill-opacity="1.0" stroke-width="0.0"><path d="M 0.39268859999999994,0.1618000000000001 l -1.4532397507593944e-17,-0.10786666666666667 h -0.13089620000000002 l -1.4532397507593944e-17,0.10786666666666667 h 0.13089620000000007 Z" /></g></g><g><g fill="rgb(255,243,128)" fill-opacity="1.0" stroke-width="0.0"><path d="M 0.2617923999999999,0.1618000000000001 l -1.4532397507593944e-17,-0.10786666666666667 h -0.13089620000000002 l -1.4532397507593944e-17,0.10786666666666667 h 0.13089620000000007 Z" /></g><g fill="rgb(192,64,0)" fill-opacity="1.0" stroke-width="0.0"><path d="M 0.13089619999999985,0.1618000000000001 l -1.4532397507593944e-17,-0.10786666666666667 h -0.13089620000000002 l -1.4532397507593944e-17,0.10786666666666667 h 0.13089620000000007 Z" /></g></g><g fill="rgb(127,82,93)" fill-opacity="1.0" stroke-width="0.0"><path d="M -1.8041124150158794e-16,0.1618000000000001 l -1.4532397507593944e-17,-0.10786666666666667 h -0.13089620000000002 l -1.4532397507593944e-17,0.10786666666666667 h 0.13089620000000007 Z" /></g><g fill="rgb(158,123,255)" fill-opacity="1.0" stroke-width="0.0"><path d="M -0.13089620000000024,0.1618000000000001 l -1.4532397507593944e-17,-0.10786666666666667 h -0.13089620000000002 l -1.4532397507593944e-17,0.10786666666666667 h 0.13089620000000007 Z" /></g></g><g><g><g fill="rgb(37,56,60)" fill-opacity="1.0" stroke-width="0.0"><path d="M -0.26179240000000026,0.1618000000000001 l -1.4532397507593944e-17,-0.10786666666666667 h -0.13089620000000002 l -1.4532397507593944e-17,0.10786666666666667 h 0.13089620000000007 Z" /></g><g fill="rgb(67,124,23)" fill-opacity="1.0" stroke-width="0.0"><path d="M -0.39268860000000033,0.1618000000000001 l -1.4532397507593944e-17,-0.10786666666666667 h -0.13089620000000002 l -1.4532397507593944e-17,0.10786666666666667 h 0.13089620000000007 Z" /></g></g><g fill="rgb(127,82,23)" fill-opacity="1.0" stroke-width="0.0"><path d="M -0.5235848000000004,0.1618000000000001 l -1.4532397507593944e-17,-0.10786666666666667 h -0.13089620000000002 l -1.4532397507593944e-17,0.10786666666666667 h 0.13089620000000007 Z" /></g><g fill="rgb(228,27,23)" fill-opacity="1.0" stroke-width="0.0"><path d="M -0.6544810000000004,0.1618000000000001 l -1.4532397507593944e-17,-0.10786666666666667 h -0.13089620000000002 l -1.4532397507593944e-17,0.10786666666666667 h 0.13089620000000007 Z" /></g></g><g><g fill="rgb(226,56,236)" fill-opacity="1.0" stroke-width="0.0"><path d="M -0.7853772000000006,0.1618000000000001 l -1.4532397507593944e-17,-0.10786666666666667 h -0.13089620000000002 l -1.4532397507593944e-17,0.10786666666666667 h 0.13089620000000007 Z" /></g><g fill="rgb(152,175,199)" fill-opacity="1.0" stroke-width="0.0"><path d="M -0.9162734000000006,0.1618000000000001 l -1.4532397507593944e-17,-0.10786666666666667 h -0.13089620000000002 l -1.4532397507593944e-17,0.10786666666666667 h 0.13089620000000007 Z" /></g></g><g fill="rgb(56,124,68)" fill-opacity="1.0" stroke-width="0.0"><path d="M -1.0471696000000006,0.1618000000000001 l -1.4532397507593944e-17,-0.10786666666666667 h -0.13089620000000002 l -1.4532397507593944e-17,0.10786666666666667 h 0.13089620000000007 Z" /></g><g fill="rgb(243,229,171)" fill-opacity="1.0" stroke-width="0.0"><path d="M -1.1780658000000006,0.1618000000000001 l -1.4532397507593944e-17,-0.10786666666666667 h -0.13089620000000002 l -1.4532397507593944e-17,0.10786666666666667 h 0.13089620000000007 Z" /></g></g></g><g><g><g><g><g><g fill="rgb(243,229,171)" fill-opacity="1.0" stroke-width="0.0"><path d="M 1.3089620000000006,5.393333333333332e-2 l -1.4532397507593944e-17,-0.10786666666666667 h -0.13089620000000002 l -1.4532397507593944e-17,0.10786666666666667 h 0.13089620000000007 Z" /></g><g fill="rgb(195,98,65)" fill-opacity="1.0" stroke-width="0.0"><path d="M 1.1780658000000006,5.393333333333332e-2 l -1.4532397507593944e-17,-0.10786666666666667 h -0.13089620000000002 l -1.4532397507593944e-17,0.10786666666666667 h 0.13089620000000007 Z" /></g></g><g fill="rgb(193,40,105)" fill-opacity="1.0" stroke-width="0.0"><path d="M 1.0471696000000006,5.393333333333332e-2 l -1.4532397507593944e-17,-0.10786666666666667 h -0.13089620000000002 l -1.4532397507593944e-17,0.10786666666666667 h 0.13089620000000007 Z" /></g><g fill="rgb(21,27,84)" fill-opacity="1.0" stroke-width="0.0"><path d="M 0.9162734000000006,5.393333333333332e-2 l -1.4532397507593944e-17,-0.10786666666666667 h -0.13089620000000002 l -1.4532397507593944e-17,0.10786666666666667 h 0.13089620000000007 Z" /></g></g><g><g><g><g fill="rgb(72,204,205)" fill-opacity="1.0" stroke-width="0.0"><path d="M 0.7853772000000001,5.393333333333332e-2 l -1.4532397507593944e-17,-0.10786666666666667 h -0.13089620000000002 l -1.4532397507593944e-17,0.10786666666666667 h 0.13089620000000007 Z" /></g><g fill="rgb(204,251,93)" fill-opacity="1.0" stroke-width="0.0"><path d="M 0.6544810000000001,5.393333333333332e-2 l -1.4532397507593944e-17,-0.10786666666666667 h -0.13089620000000002 l -1.4532397507593944e-17,0.10786666666666667 h 0.13089620000000007 Z" /></g></g><g fill="rgb(131,92,59)" fill-opacity="1.0" stroke-width="0.0"><path d="M 0.5235848,5.393333333333332e-2 l -1.4532397507593944e-17,-0.10786666666666667 h -0.13089620000000002 l -1.4532397507593944e-17,0.10786666666666667 h 0.13089620000000007 Z" /></g><g fill="rgb(65,56,57)" fill-opacity="1.0" stroke-width="0.0"><path d="M 0.39268859999999994,5.393333333333332e-2 l -1.4532397507593944e-17,-0.10786666666666667 h -0.13089620000000002 l -1.4532397507593944e-17,0.10786666666666667 h 0.13089620000000007 Z" /></g></g><g><g fill="rgb(224,176,255)" fill-opacity="1.0" stroke-width="0.0"><path d="M 0.2617923999999999,5.393333333333332e-2 l -1.4532397507593944e-17,-0.10786666666666667 h -0.13089620000000002 l -1.4532397507593944e-17,0.10786666666666667 h 0.13089620000000007 Z" /></g><g fill="rgb(101,158,199)" fill-opacity="1.0" stroke-width="0.0"><path d="M 0.13089619999999985,5.393333333333332e-2 l -1.4532397507593944e-17,-0.10786666666666667 h -0.13089620000000002 l -1.4532397507593944e-17,0.10786666666666667 h 0.13089620000000007 Z" /></g></g><g fill="rgb(153,198,142)" fill-opacity="1.0" stroke-width="0.0"><path d="M -1.8041124150158794e-16,5.393333333333332e-2 l -1.4532397507593944e-17,-0.10786666666666667 h -0.13089620000000002 l -1.4532397507593944e-17,0.10786666666666667 h 0.13089620000000007 Z" /></g><g fill="rgb(198,142,23)" fill-opacity="1.0" stroke-width="0.0"><path d="M -0.13089620000000024,5.393333333333332e-2 l -1.4532397507593944e-17,-0.10786666666666667 h -0.13089620000000002 l -1.4532397507593944e-17,0.10786666666666667 h 0.13089620000000007 Z" /></g></g><g><g><g fill="rgb(246,40,23)" fill-opacity="1.0" stroke-width="0.0"><path d="M -0.26179240000000026,5.393333333333332e-2 l -1.4532397507593944e-17,-0.10786666666666667 h -0.13089620000000002 l -1.4532397507593944e-17,0.10786666666666667 h 0.13089620000000007 Z" /></g><g fill="rgb(97,64,81)" fill-opacity="1.0" stroke-width="0.0"><path d="M -0.39268860000000033,5.393333333333332e-2 l -1.4532397507593944e-17,-0.10786666666666667 h -0.13089620000000002 l -1.4532397507593944e-17,0.10786666666666667 h 0.13089620000000007 Z" /></g></g><g fill="rgb(114,143,206)" fill-opacity="1.0" stroke-width="0.0"><path d="M -0.5235848000000004,5.393333333333332e-2 l -1.4532397507593944e-17,-0.10786666666666667 h -0.13089620000000002 l -1.4532397507593944e-17,0.10786666666666667 h 0.13089620000000007 Z" /></g><g fill="rgb(224,255,255)" fill-opacity="1.0" stroke-width="0.0"><path d="M -0.6544810000000004,5.393333333333332e-2 l -1.4532397507593944e-17,-0.10786666666666667 h -0.13089620000000002 l -1.4532397507593944e-17,0.10786666666666667 h 0.13089620000000007 Z" /></g></g><g><g fill="rgb(255,255,204)" fill-opacity="1.0" stroke-width="0.0"><path d="M -0.7853772000000006,5.393333333333332e-2 l -1.4532397507593944e-17,-0.10786666666666667 h -0.13089620000000002 l -1.4532397507593944e-17,0.10786666666666667 h 0.13089620000000007 Z" /></g><g fill="rgb(230,108,44)" fill-opacity="1.0" stroke-width="0.0"><path d="M -0.9162734000000006,5.393333333333332e-2 l -1.4532397507593944e-17,-0.10786666666666667 h -0.13089620000000002 l -1.4532397507593944e-17,0.10786666666666667 h 0.13089620000000007 Z" /></g></g><g fill="rgb(196,135,147)" fill-opacity="1.0" stroke-width="0.0"><path d="M -1.0471696000000006,5.393333333333332e-2 l -1.4532397507593944e-17,-0.10786666666666667 h -0.13089620000000002 l -1.4532397507593944e-17,0.10786666666666667 h 0.13089620000000007 Z" /></g><g fill="rgb(127,56,236)" fill-opacity="1.0" stroke-width="0.0"><path d="M -1.1780658000000006,5.393333333333332e-2 l -1.4532397507593944e-17,-0.10786666666666667 h -0.13089620000000002 l -1.4532397507593944e-17,0.10786666666666667 h 0.13089620000000007 Z" /></g></g><g><g><g><g fill="rgb(127,56,236)" fill-opacity="1.0" stroke-width="0.0"><path d="M 1.3089620000000006,-5.393333333333336e-2 l -1.4532397507593944e-17,-0.10786666666666667 h -0.13089620000000002 l -1.4532397507593944e-17,0.10786666666666667 h 0.13089620000000007 Z" /></g><g fill="rgb(149,185,199)" fill-opacity="1.0" stroke-width="0.0"><path d="M 1.1780658000000006,-5.393333333333336e-2 l -1.4532397507593944e-17,-0.10786666666666667 h -0.13089620000000002 l -1.4532397507593944e-17,0.10786666666666667 h 0.13089620000000007 Z" /></g></g><g fill="rgb(37,65,23)" fill-opacity="1.0" stroke-width="0.0"><path d="M 1.0471696000000006,-5.393333333333336e-2 l -1.4532397507593944e-17,-0.10786666666666667 h -0.13089620000000002 l -1.4532397507593944e-17,0.10786666666666667 h 0.13089620000000007 Z" /></g><g fill="rgb(255,235,205)" fill-opacity="1.0" stroke-width="0.0"><path d="M 0.9162734000000006,-5.393333333333336e-2 l -1.4532397507593944e-17,-0.10786666666666667 h -0.13089620000000002 l -1.4532397507593944e-17,0.10786666666666667 h 0.13089620000000007 Z" /></g></g><g><g><g><g fill="rgb(247,93,89)" fill-opacity="1.0" stroke-width="0.0"><path d="M 0.7853772000000001,-5.393333333333336e-2 l -1.4532397507593944e-17,-0.10786666666666667 h -0.13089620000000002 l -1.4532397507593944e-17,0.10786666666666667 h 0.13089620000000007 Z" /></g><g fill="rgb(210,185,211)" fill-opacity="1.0" stroke-width="0.0"><path d="M 0.6544810000000001,-5.393333333333336e-2 l -1.4532397507593944e-17,-0.10786666666666667 h -0.13089620000000002 l -1.4532397507593944e-17,0.10786666666666667 h 0.13089620000000007 Z" /></g></g><g fill="rgb(194,223,255)" fill-opacity="1.0" stroke-width="0.0"><path d="M 0.5235848,-5.393333333333336e-2 l -1.4532397507593944e-17,-0.10786666666666667 h -0.13089620000000002 l -1.4532397507593944e-17,0.10786666666666667 h 0.13089620000000007 Z" /></g><g fill="rgb(84,197,113)" fill-opacity="1.0" stroke-width="0.0"><path d="M 0.39268859999999994,-5.393333333333336e-2 l -1.4532397507593944e-17,-0.10786666666666667 h -0.13089620000000002 l -1.4532397507593944e-17,0.10786666666666667 h 0.13089620000000007 Z" /></g></g><g><g fill="rgb(255,232,124)" fill-opacity="1.0" stroke-width="0.0"><path d="M 0.2617923999999999,-5.393333333333336e-2 l -1.4532397507593944e-17,-0.10786666666666667 h -0.13089620000000002 l -1.4532397507593944e-17,0.10786666666666667 h 0.13089620000000007 Z" /></g><g fill="rgb(225,139,107)" fill-opacity="1.0" stroke-width="0.0"><path d="M 0.13089619999999985,-5.393333333333336e-2 l -1.4532397507593944e-17,-0.10786666666666667 h -0.13089620000000002 l -1.4532397507593944e-17,0.10786666666666667 h 0.13089620000000007 Z" /></g></g><g fill="rgb(235,221,226)" fill-opacity="1.0" stroke-width="0.0"><path d="M -1.8041124150158794e-16,-5.393333333333336e-2 l -1.4532397507593944e-17,-0.10786666666666667 h -0.13089620000000002 l -1.4532397507593944e-17,0.10786666666666667 h 0.13089620000000007 Z" /></g><g fill="rgb(0,0,128)" fill-opacity="1.0" stroke-width="0.0"><path d="M -0.13089620000000024,-5.393333333333336e-2 l -1.4532397507593944e-17,-0.10786666666666667 h -0.13089620000000002 l -1.4532397507593944e-17,0.10786666666666667 h 0.13089620000000007 Z" /></g></g><g><g><g fill="rgb(142,235,236)" fill-opacity="1.0" stroke-width="0.0"><path d="M -0.26179240000000026,-5.393333333333336e-2 l -1.4532397507593944e-17,-0.10786666666666667 h -0.13089620000000002 l -1.4532397507593944e-17,0.10786666666666667 h 0.13089620000000007 Z" /></g><g fill="rgb(177,251,23)" fill-opacity="1.0" stroke-width="0.0"><path d="M -0.39268860000000033,-5.393333333333336e-2 l -1.4532397507593944e-17,-0.10786666666666667 h -0.13089620000000002 l -1.4532397507593944e-17,0.10786666666666667 h 0.13089620000000007 Z" /></g></g><g fill="rgb(238,154,77)" fill-opacity="1.0" stroke-width="0.0"><path d="M -0.5235848000000004,-5.393333333333336e-2 l -1.4532397507593944e-17,-0.10786666666666667 h -0.13089620000000002 l -1.4532397507593944e-17,0.10786666666666667 h 0.13089620000000007 Z" /></g><g fill="rgb(127,78,82)" fill-opacity="1.0" stroke-width="0.0"><path d="M -0.6544810000000004,-5.393333333333336e-2 l -1.4532397507593944e-17,-0.10786666666666667 h -0.13089620000000002 l -1.4532397507593944e-17,0.10786666666666667 h 0.13089620000000007 Z" /></g></g><g><g fill="rgb(212,98,255)" fill-opacity="1.0" stroke-width="0.0"><path d="M -0.7853772000000006,-5.393333333333336e-2 l -1.4532397507593944e-17,-0.10786666666666667 h -0.13089620000000002 l -1.4532397507593944e-17,0.10786666666666667 h 0.13089620000000007 Z" /></g><g fill="rgb(121,186,236)" fill-opacity="1.0" stroke-width="0.0"><path d="M -0.9162734000000006,-5.393333333333336e-2 l -1.4532397507593944e-17,-0.10786666666666667 h -0.13089620000000002 l -1.4532397507593944e-17,0.10786666666666667 h 0.13089620000000007 Z" /></g></g><g fill="rgb(52,124,44)" fill-opacity="1.0" stroke-width="0.0"><path d="M -1.0471696000000006,-5.393333333333336e-2 l -1.4532397507593944e-17,-0.10786666666666667 h -0.13089620000000002 l -1.4532397507593944e-17,0.10786666666666667 h 0.13089620000000007 Z" /></g><g fill="rgb(212,160,23)" fill-opacity="1.0" stroke-width="0.0"><path d="M -1.1780658000000006,-5.393333333333336e-2 l -1.4532397507593944e-17,-0.10786666666666667 h -0.13089620000000002 l -1.4532397507593944e-17,0.10786666666666667 h 0.13089620000000007 Z" /></g></g></g><g><g><g><g fill="rgb(212,160,23)" fill-opacity="1.0" stroke-width="0.0"><path d="M 1.3089620000000006,-0.16180000000000005 l -1.4532397507593944e-17,-0.10786666666666667 h -0.13089620000000002 l -1.4532397507593944e-17,0.10786666666666667 h 0.13089620000000007 Z" /></g><g fill="rgb(229,91,60)" fill-opacity="1.0" stroke-width="0.0"><path d="M 1.1780658000000006,-0.16180000000000005 l -1.4532397507593944e-17,-0.10786666666666667 h -0.13089620000000002 l -1.4532397507593944e-17,0.10786666666666667 h 0.13089620000000007 Z" /></g></g><g fill="rgb(129,5,65)" fill-opacity="1.0" stroke-width="0.0"><path d="M 1.0471696000000006,-0.16180000000000005 l -1.4532397507593944e-17,-0.10786666666666667 h -0.13089620000000002 l -1.4532397507593944e-17,0.10786666666666667 h 0.13089620000000007 Z" /></g><g fill="rgb(43,101,236)" fill-opacity="1.0" stroke-width="0.0"><path d="M 0.9162734000000006,-0.16180000000000005 l -1.4532397507593944e-17,-0.10786666666666667 h -0.13089620000000002 l -1.4532397507593944e-17,0.10786666666666667 h 0.13089620000000007 Z" /></g></g><g><g><g><g fill="rgb(0,255,255)" fill-opacity="1.0" stroke-width="0.0"><path d="M 0.7853772000000001,-0.16180000000000005 l -1.4532397507593944e-17,-0.10786666666666667 h -0.13089620000000002 l -1.4532397507593944e-17,0.10786666666666667 h 0.13089620000000007 Z" /></g><g fill="rgb(182,182,180)" fill-opacity="1.0" stroke-width="0.0"><path d="M 0.6544810000000001,-0.16180000000000005 l -1.4532397507593944e-17,-0.10786666666666667 h -0.13089620000000002 l -1.4532397507593944e-17,0.10786666666666667 h 0.13089620000000007 Z" /></g></g><g fill="rgb(200,90,23)" fill-opacity="1.0" stroke-width="0.0"><path d="M 0.5235848,-0.16180000000000005 l -1.4532397507593944e-17,-0.10786666666666667 h -0.13089620000000002 l -1.4532397507593944e-17,0.10786666666666667 h 0.13089620000000007 Z" /></g><g fill="rgb(80,74,75)" fill-opacity="1.0" stroke-width="0.0"><path d="M 0.39268859999999994,-0.16180000000000005 l -1.4532397507593944e-17,-0.10786666666666667 h -0.13089620000000002 l -1.4532397507593944e-17,0.10786666666666667 h 0.13089620000000007 Z" /></g></g><g><g fill="rgb(70,27,126)" fill-opacity="1.0" stroke-width="0.0"><path d="M 0.2617923999999999,-0.16180000000000005 l -1.4532397507593944e-17,-0.10786666666666667 h -0.13089620000000002 l -1.4532397507593944e-17,0.10786666666666667 h 0.13089620000000007 Z" /></g><g fill="rgb(59,185,255)" fill-opacity="1.0" stroke-width="0.0"><path d="M 0.13089619999999985,-0.16180000000000005 l -1.4532397507593944e-17,-0.10786666666666667 h -0.13089620000000002 l -1.4532397507593944e-17,0.10786666666666667 h 0.13089620000000007 Z" /></g></g><g fill="rgb(95,251,23)" fill-opacity="1.0" stroke-width="0.0"><path d="M -1.8041124150158794e-16,-0.16180000000000005 l -1.4532397507593944e-17,-0.10786666666666667 h -0.13089620000000002 l -1.4532397507593944e-17,0.10786666666666667 h 0.13089620000000007 Z" /></g><g fill="rgb(175,120,23)" fill-opacity="1.0" stroke-width="0.0"><path d="M -0.13089620000000024,-0.16180000000000005 l -1.4532397507593944e-17,-0.10786666666666667 h -0.13089620000000002 l -1.4532397507593944e-17,0.10786666666666667 h 0.13089620000000007 Z" /></g></g><g><g><g fill="rgb(197,144,142)" fill-opacity="1.0" stroke-width="0.0"><path d="M -0.26179240000000026,-0.16180000000000005 l -1.4532397507593944e-17,-0.10786666666666667 h -0.13089620000000002 l -1.4532397507593944e-17,0.10786666666666667 h 0.13089620000000007 Z" /></g><g fill="rgb(255,0,255)" fill-opacity="1.0" stroke-width="0.0"><path d="M -0.39268860000000033,-0.16180000000000005 l -1.4532397507593944e-17,-0.10786666666666667 h -0.13089620000000002 l -1.4532397507593944e-17,0.10786666666666667 h 0.13089620000000007 Z" /></g></g><g fill="rgb(109,123,141)" fill-opacity="1.0" stroke-width="0.0"><path d="M -0.5235848000000004,-0.16180000000000005 l -1.4532397507593944e-17,-0.10786666666666667 h -0.13089620000000002 l -1.4532397507593944e-17,0.10786666666666667 h 0.13089620000000007 Z" /></g><g fill="rgb(78,137,117)" fill-opacity="1.0" stroke-width="0.0"><path d="M -0.6544810000000004,-0.16180000000000005 l -1.4532397507593944e-17,-0.10786666666666667 h -0.13089620000000002 l -1.4532397507593944e-17,0.10786666666666667 h 0.13089620000000007 Z" /></g></g><g><g fill="rgb(130,120,57)" fill-opacity="1.0" stroke-width="0.0"><path d="M -0.7853772000000006,-0.16180000000000005 l -1.4532397507593944e-17,-0.10786666666666667 h -0.13089620000000002 l -1.4532397507593944e-17,0.10786666666666667 h 0.13089620000000007 Z" /></g><g fill="rgb(249,150,107)" fill-opacity="1.0" stroke-width="0.0"><path d="M -0.9162734000000006,-0.16180000000000005 l -1.4532397507593944e-17,-0.10786666666666667 h -0.13089620000000002 l -1.4532397507593944e-17,0.10786666666666667 h 0.13089620000000007 Z" /></g></g><g fill="rgb(126,53,77)" fill-opacity="1.0" stroke-width="0.0"><path d="M -1.0471696000000006,-0.16180000000000005 l -1.4532397507593944e-17,-0.10786666666666667 h -0.13089620000000002 l -1.4532397507593944e-17,0.10786666666666667 h 0.13089620000000007 Z" /></g><g fill="rgb(105,96,236)" fill-opacity="1.0" stroke-width="0.0"><path d="M -1.1780658000000006,-0.16180000000000005 l -1.4532397507593944e-17,-0.10786666666666667 h -0.13089620000000002 l -1.4532397507593944e-17,0.10786666666666667 h 0.13089620000000007 Z" /></g></g><g><g><g><g fill="rgb(105,96,236)" fill-opacity="1.0" stroke-width="0.0"><path d="M 1.3089620000000006,-0.2696666666666667 l -1.4532397507593944e-17,-0.10786666666666667 h -0.13089620000000002 l -1.4532397507593944e-17,0.10786666666666667 h 0.13089620000000007 Z" /></g><g fill="rgb(67,191,199)" fill-opacity="1.0" stroke-width="0.0"><path d="M 1.1780658000000006,-0.2696666666666667 l -1.4532397507593944e-17,-0.10786666666666667 h -0.13089620000000002 l -1.4532397507593944e-17,0.10786666666666667 h 0.13089620000000007 Z" /></g></g><g fill="rgb(135,247,23)" fill-opacity="1.0" stroke-width="0.0"><path d="M 1.0471696000000006,-0.2696666666666667 l -1.4532397507593944e-17,-0.10786666666666667 h -0.13089620000000002 l -1.4532397507593944e-17,0.10786666666666667 h 0.13089620000000007 Z" /></g><g fill="rgb(205,127,50)" fill-opacity="1.0" stroke-width="0.0"><path d="M 0.9162734000000006,-0.2696666666666667 l -1.4532397507593944e-17,-0.10786666666666667 h -0.13089620000000002 l -1.4532397507593944e-17,0.10786666666666667 h 0.13089620000000007 Z" /></g></g><g><g><g><g fill="rgb(76,70,70)" fill-opacity="1.0" stroke-width="0.0"><path d="M 0.7853772000000001,-0.2696666666666667 l -1.4532397507593944e-17,-0.10786666666666667 h -0.13089620000000002 l -1.4532397507593944e-17,0.10786666666666667 h 0.13089620000000007 Z" /></g><g fill="rgb(233,207,236)" fill-opacity="1.0" stroke-width="0.0"><path d="M 0.6544810000000001,-0.2696666666666667 l -1.4532397507593944e-17,-0.10786666666666667 h -0.13089620000000002 l -1.4532397507593944e-17,0.10786666666666667 h 0.13089620000000007 Z" /></g></g><g fill="rgb(86,165,236)" fill-opacity="1.0" stroke-width="0.0"><path d="M 0.5235848,-0.2696666666666667 l -1.4532397507593944e-17,-0.10786666666666667 h -0.13089620000000002 l -1.4532397507593944e-17,0.10786666666666667 h 0.13089620000000007 Z" /></g><g fill="rgb(52,114,53)" fill-opacity="1.0" stroke-width="0.0"><path d="M 0.39268859999999994,-0.2696666666666667 l -1.4532397507593944e-17,-0.10786666666666667 h -0.13089620000000002 l -1.4532397507593944e-17,0.10786666666666667 h 0.13089620000000007 Z" /></g></g><g><g fill="rgb(255,219,88)" fill-opacity="1.0" stroke-width="0.0"><path d="M 0.2617923999999999,-0.2696666666666667 l -1.4532397507593944e-17,-0.10786666666666667 h -0.13089620000000002 l -1.4532397507593944e-17,0.10786666666666667 h 0.13089620000000007 Z" /></g><g fill="rgb(115,111,110)" fill-opacity="1.0" stroke-width="0.0"><path d="M 0.13089619999999985,-0.2696666666666667 l -1.4532397507593944e-17,-0.10786666666666667 h -0.13089620000000002 l -1.4532397507593944e-17,0.10786666666666667 h 0.13089620000000007 Z" /></g></g><g fill="rgb(228,40,124)" fill-opacity="1.0" stroke-width="0.0"><path d="M -1.8041124150158794e-16,-0.2696666666666667 l -1.4532397507593944e-17,-0.10786666666666667 h -0.13089620000000002 l -1.4532397507593944e-17,0.10786666666666667 h 0.13089620000000007 Z" /></g><g fill="rgb(37,84,199)" fill-opacity="1.0" stroke-width="0.0"><path d="M -0.13089620000000024,-0.2696666666666667 l -1.4532397507593944e-17,-0.10786666666666667 h -0.13089620000000002 l -1.4532397507593944e-17,0.10786666666666667 h 0.13089620000000007 Z" /></g></g><g><g><g fill="rgb(70,199,199)" fill-opacity="1.0" stroke-width="0.0"><path d="M -0.26179240000000026,-0.2696666666666667 l -1.4532397507593944e-17,-0.10786666666666667 h -0.13089620000000002 l -1.4532397507593944e-17,0.10786666666666667 h 0.13089620000000007 Z" /></g><g fill="rgb(178,194,72)" fill-opacity="1.0" stroke-width="0.0"><path d="M -0.39268860000000033,-0.2696666666666667 l -1.4532397507593944e-17,-0.10786666666666667 h -0.13089620000000002 l -1.4532397507593944e-17,0.10786666666666667 h 0.13089620000000007 Z" /></g></g><g fill="rgb(111,78,55)" fill-opacity="1.0" stroke-width="0.0"><path d="M -0.5235848000000004,-0.2696666666666667 l -1.4532397507593944e-17,-0.10786666666666667 h -0.13089620000000002 l -1.4532397507593944e-17,0.10786666666666667 h 0.13089620000000007 Z" /></g><g fill="rgb(128,5,23)" fill-opacity="1.0" stroke-width="0.0"><path d="M -0.6544810000000004,-0.2696666666666667 l -1.4532397507593944e-17,-0.10786666666666667 h -0.13089620000000002 l -1.4532397507593944e-17,0.10786666666666667 h 0.13089620000000007 Z" /></g></g><g><g fill="rgb(75,0,130)" fill-opacity="1.0" stroke-width="0.0"><path d="M -0.7853772000000006,-0.2696666666666667 l -1.4532397507593944e-17,-0.10786666666666667 h -0.13089620000000002 l -1.4532397507593944e-17,0.10786666666666667 h 0.13089620000000007 Z" /></g><g fill="rgb(135,175,199)" fill-opacity="1.0" stroke-width="0.0"><path d="M -0.9162734000000006,-0.2696666666666667 l -1.4532397507593944e-17,-0.10786666666666667 h -0.13089620000000002 l -1.4532397507593944e-17,0.10786666666666667 h 0.13089620000000007 Z" /></g></g><g fill="rgb(52,124,23)" fill-opacity="1.0" stroke-width="0.0"><path d="M -1.0471696000000006,-0.2696666666666667 l -1.4532397507593944e-17,-0.10786666666666667 h -0.13089620000000002 l -1.4532397507593944e-17,0.10786666666666667 h 0.13089620000000007 Z" /></g><g fill="rgb(73,61,38)" fill-opacity="1.0" stroke-width="0.0"><path d="M -1.1780658000000006,-0.2696666666666667 l -1.4532397507593944e-17,-0.10786666666666667 h -0.13089620000000002 l -1.4532397507593944e-17,0.10786666666666667 h 0.13089620000000007 Z" /></g></g></g><g><g><g><g><g fill="rgb(73,61,38)" fill-opacity="1.0" stroke-width="0.0"><path d="M 1.3089620000000006,-0.37753333333333344 l -1.4532397507593944e-17,-0.10786666666666667 h -0.13089620000000002 l -1.4532397507593944e-17,0.10786666666666667 h 0.13089620000000007 Z" /></g><g fill="rgb(246,34,23)" fill-opacity="1.0" stroke-width="0.0"><path d="M 1.1780658000000006,-0.37753333333333344 l -1.4532397507593944e-17,-0.10786666666666667 h -0.13089620000000002 l -1.4532397507593944e-17,0.10786666666666667 h 0.13089620000000007 Z" /></g></g><g fill="rgb(185,59,143)" fill-opacity="1.0" stroke-width="0.0"><path d="M 1.0471696000000006,-0.37753333333333344 l -1.4532397507593944e-17,-0.10786666666666667 h -0.13089620000000002 l -1.4532397507593944e-17,0.10786666666666667 h 0.13089620000000007 Z" /></g><g fill="rgb(97,109,126)" fill-opacity="1.0" stroke-width="0.0"><path d="M 0.9162734000000006,-0.37753333333333344 l -1.4532397507593944e-17,-0.10786666666666667 h -0.13089620000000002 l -1.4532397507593944e-17,0.10786666666666667 h 0.13089620000000007 Z" /></g></g><g><g><g><g fill="rgb(67,141,128)" fill-opacity="1.0" stroke-width="0.0"><path d="M 0.7853772000000001,-0.37753333333333344 l -1.4532397507593944e-17,-0.10786666666666667 h -0.13089620000000002 l -1.4532397507593944e-17,0.10786666666666667 h 0.13089620000000007 Z" /></g><g fill="rgb(255,248,198)" fill-opacity="1.0" stroke-width="0.0"><path d="M 0.6544810000000001,-0.37753333333333344 l -1.4532397507593944e-17,-0.10786666666666667 h -0.13089620000000002 l -1.4532397507593944e-17,0.10786666666666667 h 0.13089620000000007 Z" /></g></g><g fill="rgb(127,70,44)" fill-opacity="1.0" stroke-width="0.0"><path d="M 0.5235848,-0.37753333333333344 l -1.4532397507593944e-17,-0.10786666666666667 h -0.13089620000000002 l -1.4532397507593944e-17,0.10786666666666667 h 0.13089620000000007 Z" /></g><g fill="rgb(229,110,148)" fill-opacity="1.0" stroke-width="0.0"><path d="M 0.39268859999999994,-0.37753333333333344 l -1.4532397507593944e-17,-0.10786666666666667 h -0.13089620000000002 l -1.4532397507593944e-17,0.10786666666666667 h 0.13089620000000007 Z" /></g></g><g><g fill="rgb(145,114,236)" fill-opacity="1.0" stroke-width="0.0"><path d="M 0.2617923999999999,-0.37753333333333344 l -1.4532397507593944e-17,-0.10786666666666667 h -0.13089620000000002 l -1.4532397507593944e-17,0.10786666666666667 h 0.13089620000000007 Z" /></g><g fill="rgb(76,120,126)" fill-opacity="1.0" stroke-width="0.0"><path d="M 0.13089619999999985,-0.37753333333333344 l -1.4532397507593944e-17,-0.10786666666666667 h -0.13089620000000002 l -1.4532397507593944e-17,0.10786666666666667 h 0.13089620000000007 Z" /></g></g><g fill="rgb(120,134,107)" fill-opacity="1.0" stroke-width="0.0"><path d="M -1.8041124150158794e-16,-0.37753333333333344 l -1.4532397507593944e-17,-0.10786666666666667 h -0.13089620000000002 l -1.4532397507593944e-17,0.10786666666666667 h 0.13089620000000007 Z" /></g><g fill="rgb(120,109,95)" fill-opacity="1.0" stroke-width="0.0"><path d="M -0.13089620000000024,-0.37753333333333344 l -1.4532397507593944e-17,-0.10786666666666667 h -0.13089620000000002 l -1.4532397507593944e-17,0.10786666666666667 h 0.13089620000000007 Z" /></g></g><g><g><g fill="rgb(255,0,0)" fill-opacity="1.0" stroke-width="0.0"><path d="M -0.26179240000000026,-0.37753333333333344 l -1.4532397507593944e-17,-0.10786666666666667 h -0.13089620000000002 l -1.4532397507593944e-17,0.10786666666666667 h 0.13089620000000007 Z" /></g><g fill="rgb(249,183,255)" fill-opacity="1.0" stroke-width="0.0"><path d="M -0.39268860000000033,-0.37753333333333344 l -1.4532397507593944e-17,-0.10786666666666667 h -0.13089620000000002 l -1.4532397507593944e-17,0.10786666666666667 h 0.13089620000000007 Z" /></g></g><g fill="rgb(21,137,255)" fill-opacity="1.0" stroke-width="0.0"><path d="M -0.5235848000000004,-0.37753333333333344 l -1.4532397507593944e-17,-0.10786666666666667 h -0.13089620000000002 l -1.4532397507593944e-17,0.10786666666666667 h 0.13089620000000007 Z" /></g><g fill="rgb(94,251,110)" fill-opacity="1.0" stroke-width="0.0"><path d="M -0.6544810000000004,-0.37753333333333344 l -1.4532397507593944e-17,-0.10786666666666667 h -0.13089620000000002 l -1.4532397507593944e-17,0.10786666666666667 h 0.13089620000000007 Z" /></g></g><g><g fill="rgb(255,248,220)" fill-opacity="1.0" stroke-width="0.0"><path d="M -0.7853772000000006,-0.37753333333333344 l -1.4532397507593944e-17,-0.10786666666666667 h -0.13089620000000002 l -1.4532397507593944e-17,0.10786666666666667 h 0.13089620000000007 Z" /></g><g fill="rgb(230,116,81)" fill-opacity="1.0" stroke-width="0.0"><path d="M -0.9162734000000006,-0.37753333333333344 l -1.4532397507593944e-17,-0.10786666666666667 h -0.13089620000000002 l -1.4532397507593944e-17,0.10786666666666667 h 0.13089620000000007 Z" /></g></g><g fill="rgb(202,34,107)" fill-opacity="1.0" stroke-width="0.0"><path d="M -1.0471696000000006,-0.37753333333333344 l -1.4532397507593944e-17,-0.10786666666666667 h -0.13089620000000002 l -1.4532397507593944e-17,0.10786666666666667 h 0.13089620000000007 Z" /></g><g fill="rgb(31,69,252)" fill-opacity="1.0" stroke-width="0.0"><path d="M -1.1780658000000006,-0.37753333333333344 l -1.4532397507593944e-17,-0.10786666666666667 h -0.13089620000000002 l -1.4532397507593944e-17,0.10786666666666667 h 0.13089620000000007 Z" /></g></g><g><g><g><g fill="rgb(31,69,252)" fill-opacity="1.0" stroke-width="0.0"><path d="M 1.3089620000000006,-0.4854000000000001 l -1.4532397507593944e-17,-0.10786666666666667 h -0.13089620000000002 l -1.4532397507593944e-17,0.10786666666666667 h 0.13089620000000007 Z" /></g><g fill="rgb(87,254,255)" fill-opacity="1.0" stroke-width="0.0"><path d="M 1.1780658000000006,-0.4854000000000001 l -1.4532397507593944e-17,-0.10786666666666667 h -0.13089620000000002 l -1.4532397507593944e-17,0.10786666666666667 h 0.13089620000000007 Z" /></g></g><g fill="rgb(102,124,38)" fill-opacity="1.0" stroke-width="0.0"><path d="M 1.0471696000000006,-0.4854000000000001 l -1.4532397507593944e-17,-0.10786666666666667 h -0.13089620000000002 l -1.4532397507593944e-17,0.10786666666666667 h 0.13089620000000007 Z" /></g><g fill="rgb(255,203,164)" fill-opacity="1.0" stroke-width="0.0"><path d="M 0.9162734000000006,-0.4854000000000001 l -1.4532397507593944e-17,-0.10786666666666667 h -0.13089620000000002 l -1.4532397507593944e-17,0.10786666666666667 h 0.13089620000000007 Z" /></g></g><g><g><g><g fill="rgb(196,129,137)" fill-opacity="1.0" stroke-width="0.0"><path d="M 0.7853772000000001,-0.4854000000000001 l -1.4532397507593944e-17,-0.10786666666666667 h -0.13089620000000002 l -1.4532397507593944e-17,0.10786666666666667 h 0.13089620000000007 Z" /></g><g fill="rgb(141,56,201)" fill-opacity="1.0" stroke-width="0.0"><path d="M 0.6544810000000001,-0.4854000000000001 l -1.4532397507593944e-17,-0.10786666666666667 h -0.13089620000000002 l -1.4532397507593944e-17,0.10786666666666667 h 0.13089620000000007 Z" /></g></g><g fill="rgb(235,244,250)" fill-opacity="1.0" stroke-width="0.0"><path d="M 0.5235848,-0.4854000000000001 l -1.4532397507593944e-17,-0.10786666666666667 h -0.13089620000000002 l -1.4532397507593944e-17,0.10786666666666667 h 0.13089620000000007 Z" /></g><g fill="rgb(97,124,88)" fill-opacity="1.0" stroke-width="0.0"><path d="M 0.39268859999999994,-0.4854000000000001 l -1.4532397507593944e-17,-0.10786666666666667 h -0.13089620000000002 l -1.4532397507593944e-17,0.10786666666666667 h 0.13089620000000007 Z" /></g></g><g><g fill="rgb(232,163,23)" fill-opacity="1.0" stroke-width="0.0"><path d="M 0.2617923999999999,-0.4854000000000001 l -1.4532397507593944e-17,-0.10786666666666667 h -0.13089620000000002 l -1.4532397507593944e-17,0.10786666666666667 h 0.13089620000000007 Z" /></g><g fill="rgb(255,223,221)" fill-opacity="1.0" stroke-width="0.0"><path d="M 0.13089619999999985,-0.4854000000000001 l -1.4532397507593944e-17,-0.10786666666666667 h -0.13089620000000002 l -1.4532397507593944e-17,0.10786666666666667 h 0.13089620000000007 Z" /></g></g><g fill="rgb(245,53,170)" fill-opacity="1.0" stroke-width="0.0"><path d="M -1.8041124150158794e-16,-0.4854000000000001 l -1.4532397507593944e-17,-0.10786666666666667 h -0.13089620000000002 l -1.4532397507593944e-17,0.10786666666666667 h 0.13089620000000007 Z" /></g><g fill="rgb(0,65,194)" fill-opacity="1.0" stroke-width="0.0"><path d="M -0.13089620000000024,-0.4854000000000001 l -1.4532397507593944e-17,-0.10786666666666667 h -0.13089620000000002 l -1.4532397507593944e-17,0.10786666666666667 h 0.13089620000000007 Z" /></g></g><g><g><g fill="rgb(52,135,129)" fill-opacity="1.0" stroke-width="0.0"><path d="M -0.26179240000000026,-0.4854000000000001 l -1.4532397507593944e-17,-0.10786666666666667 h -0.13089620000000002 l -1.4532397507593944e-17,0.10786666666666667 h 0.13089620000000007 Z" /></g><g fill="rgb(237,226,117)" fill-opacity="1.0" stroke-width="0.0"><path d="M -0.39268860000000033,-0.4854000000000001 l -1.4532397507593944e-17,-0.10786666666666667 h -0.13089620000000002 l -1.4532397507593944e-17,0.10786666666666667 h 0.13089620000000007 Z" /></g></g><g fill="rgb(255,128,64)" fill-opacity="1.0" stroke-width="0.0"><path d="M -0.5235848000000004,-0.4854000000000001 l -1.4532397507593944e-17,-0.10786666666666667 h -0.13089620000000002 l -1.4532397507593944e-17,0.10786666666666667 h 0.13089620000000007 Z" /></g><g fill="rgb(231,161,176)" fill-opacity="1.0" stroke-width="0.0"><path d="M -0.6544810000000004,-0.4854000000000001 l -1.4532397507593944e-17,-0.10786666666666667 h -0.13089620000000002 l -1.4532397507593944e-17,0.10786666666666667 h 0.13089620000000007 Z" /></g></g><g><g fill="rgb(122,93,199)" fill-opacity="1.0" stroke-width="0.0"><path d="M -0.7853772000000006,-0.4854000000000001 l -1.4532397507593944e-17,-0.10786666666666667 h -0.13089620000000002 l -1.4532397507593944e-17,0.10786666666666667 h 0.13089620000000007 Z" /></g><g fill="rgb(175,220,236)" fill-opacity="1.0" stroke-width="0.0"><path d="M -0.9162734000000006,-0.4854000000000001 l -1.4532397507593944e-17,-0.10786666666666667 h -0.13089620000000002 l -1.4532397507593944e-17,0.10786666666666667 h 0.13089620000000007 Z" /></g></g><g fill="rgb(108,187,60)" fill-opacity="1.0" stroke-width="0.0"><path d="M -1.0471696000000006,-0.4854000000000001 l -1.4532397507593944e-17,-0.10786666666666667 h -0.13089620000000002 l -1.4532397507593944e-17,0.10786666666666667 h 0.13089620000000007 Z" /></g><g fill="rgb(250,235,215)" fill-opacity="1.0" stroke-width="0.0"><path d="M -1.1780658000000006,-0.4854000000000001 l -1.4532397507593944e-17,-0.10786666666666667 h -0.13089620000000002 l -1.4532397507593944e-17,0.10786666666666667 h 0.13089620000000007 Z" /></g></g></g><g><g><g><g fill="rgb(250,235,215)" fill-opacity="1.0" stroke-width="0.0"><path d="M 1.3089620000000006,-0.5932666666666668 l -1.4532397507593944e-17,-0.10786666666666667 h -0.13089620000000002 l -1.4532397507593944e-17,0.10786666666666667 h 0.13089620000000007 Z" /></g><g fill="rgb(229,84,81)" fill-opacity="1.0" stroke-width="0.0"><path d="M 1.1780658000000006,-0.5932666666666668 l -1.4532397507593944e-17,-0.10786666666666667 h -0.13089620000000002 l -1.4532397507593944e-17,0.10786666666666667 h 0.13089620000000007 Z" /></g></g><g fill="rgb(244,51,255)" fill-opacity="1.0" stroke-width="0.0"><path d="M 1.0471696000000006,-0.5932666666666668 l -1.4532397507593944e-17,-0.10786666666666667 h -0.13089620000000002 l -1.4532397507593944e-17,0.10786666666666667 h 0.13089620000000007 Z" /></g><g fill="rgb(21,125,236)" fill-opacity="1.0" stroke-width="0.0"><path d="M 0.9162734000000006,-0.5932666666666668 l -1.4532397507593944e-17,-0.10786666666666667 h -0.13089620000000002 l -1.4532397507593944e-17,0.10786666666666667 h 0.13089620000000007 Z" /></g></g><g><g><g><g fill="rgb(62,160,85)" fill-opacity="1.0" stroke-width="0.0"><path d="M 0.7853772000000001,-0.5932666666666668 l -1.4532397507593944e-17,-0.10786666666666667 h -0.13089620000000002 l -1.4532397507593944e-17,0.10786666666666667 h 0.13089620000000007 Z" /></g><g fill="rgb(234,193,23)" fill-opacity="1.0" stroke-width="0.0"><path d="M 0.6544810000000001,-0.5932666666666668 l -1.4532397507593944e-17,-0.10786666666666667 h -0.13089620000000002 l -1.4532397507593944e-17,0.10786666666666667 h 0.13089620000000007 Z" /></g></g><g fill="rgb(248,129,88)" fill-opacity="1.0" stroke-width="0.0"><path d="M 0.5235848,-0.5932666666666668 l -1.4532397507593944e-17,-0.10786666666666667 h -0.13089620000000002 l -1.4532397507593944e-17,0.10786666666666667 h 0.13089620000000007 Z" /></g><g fill="rgb(227,138,174)" fill-opacity="1.0" stroke-width="0.0"><path d="M 0.39268859999999994,-0.5932666666666668 l -1.4532397507593944e-17,-0.10786666666666667 h -0.13089620000000002 l -1.4532397507593944e-17,0.10786666666666667 h 0.13089620000000007 Z" /></g></g><g><g fill="rgb(21,27,141)" fill-opacity="1.0" stroke-width="0.0"><path d="M 0.2617923999999999,-0.5932666666666668 l -1.4532397507593944e-17,-0.10786666666666667 h -0.13089620000000002 l -1.4532397507593944e-17,0.10786666666666667 h 0.13089620000000007 Z" /></g><g fill="rgb(125,253,254)" fill-opacity="1.0" stroke-width="0.0"><path d="M 0.13089619999999985,-0.5932666666666668 l -1.4532397507593944e-17,-0.10786666666666667 h -0.13089620000000002 l -1.4532397507593944e-17,0.10786666666666667 h 0.13089620000000007 Z" /></g></g><g fill="rgb(188,233,84)" fill-opacity="1.0" stroke-width="0.0"><path d="M -1.8041124150158794e-16,-0.5932666666666668 l -1.4532397507593944e-17,-0.10786666666666667 h -0.13089620000000002 l -1.4532397507593944e-17,0.10786666666666667 h 0.13089620000000007 Z" /></g><g fill="rgb(248,128,23)" fill-opacity="1.0" stroke-width="0.0"><path d="M -0.13089620000000024,-0.5932666666666668 l -1.4532397507593944e-17,-0.10786666666666667 h -0.13089620000000002 l -1.4532397507593944e-17,0.10786666666666667 h 0.13089620000000007 Z" /></g></g><g><g><g fill="rgb(249,167,176)" fill-opacity="1.0" stroke-width="0.0"><path d="M -0.26179240000000026,-0.5932666666666668 l -1.4532397507593944e-17,-0.10786666666666667 h -0.13089620000000002 l -1.4532397507593944e-17,0.10786666666666667 h 0.13089620000000007 Z" /></g><g fill="rgb(254,252,255)" fill-opacity="1.0" stroke-width="0.0"><path d="M -0.39268860000000033,-0.5932666666666668 l -1.4532397507593944e-17,-0.10786666666666667 h -0.13089620000000002 l -1.4532397507593944e-17,0.10786666666666667 h 0.13089620000000007 Z" /></g></g><g fill="rgb(130,202,255)" fill-opacity="1.0" stroke-width="0.0"><path d="M -0.5235848000000004,-0.5932666666666668 l -1.4532397507593944e-17,-0.10786666666666667 h -0.13089620000000002 l -1.4532397507593944e-17,0.10786666666666667 h 0.13089620000000007 Z" /></g><g fill="rgb(181,234,170)" fill-opacity="1.0" stroke-width="0.0"><path d="M -0.6544810000000004,-0.5932666666666668 l -1.4532397507593944e-17,-0.10786666666666667 h -0.13089620000000002 l -1.4532397507593944e-17,0.10786666666666667 h 0.13089620000000007 Z" /></g></g><g><g fill="rgb(233,171,23)" fill-opacity="1.0" stroke-width="0.0"><path d="M -0.7853772000000006,-0.5932666666666668 l -1.4532397507593944e-17,-0.10786666666666667 h -0.13089620000000002 l -1.4532397507593944e-17,0.10786666666666667 h 0.13089620000000007 Z" /></g><g fill="rgb(220,56,31)" fill-opacity="1.0" stroke-width="0.0"><path d="M -0.9162734000000006,-0.5932666666666668 l -1.4532397507593944e-17,-0.10786666666666667 h -0.13089620000000002 l -1.4532397507593944e-17,0.10786666666666667 h 0.13089620000000007 Z" /></g></g><g fill="rgb(125,5,65)" fill-opacity="1.0" stroke-width="0.0"><path d="M -1.0471696000000006,-0.5932666666666668 l -1.4532397507593944e-17,-0.10786666666666667 h -0.13089620000000002 l -1.4532397507593944e-17,0.10786666666666667 h 0.13089620000000007 Z" /></g><g fill="rgb(72,99,160)" fill-opacity="1.0" stroke-width="0.0"><path d="M -1.1780658000000006,-0.5932666666666668 l -1.4532397507593944e-17,-0.10786666666666667 h -0.13089620000000002 l -1.4532397507593944e-17,0.10786666666666667 h 0.13089620000000007 Z" /></g></g><g><g><g><g fill="rgb(72,99,160)" fill-opacity="1.0" stroke-width="0.0"><path d="M 1.3089620000000006,-0.7011333333333334 l -1.4532397507593944e-17,-0.10786666666666667 h -0.13089620000000002 l -1.4532397507593944e-17,0.10786666666666667 h 0.13089620000000007 Z" /></g><g fill="rgb(240,255,255)" fill-opacity="1.0" stroke-width="0.0"><path d="M 1.1780658000000006,-0.7011333333333334 l -1.4532397507593944e-17,-0.10786666666666667 h -0.13089620000000002 l -1.4532397507593944e-17,0.10786666666666667 h 0.13089620000000007 Z" /></g></g><g fill="rgb(245,245,220)" fill-opacity="1.0" stroke-width="0.0"><path d="M 1.0471696000000006,-0.7011333333333334 l -1.4532397507593944e-17,-0.10786666666666667 h -0.13089620000000002 l -1.4532397507593944e-17,0.10786666666666667 h 0.13089620000000007 Z" /></g><g fill="rgb(138,65,23)" fill-opacity="1.0" stroke-width="0.0"><path d="M 0.9162734000000006,-0.7011333333333334 l -1.4532397507593944e-17,-0.10786666666666667 h -0.13089620000000002 l -1.4532397507593944e-17,0.10786666666666667 h 0.13089620000000007 Z" /></g></g><g><g><g><g fill="rgb(140,0,26)" fill-opacity="1.0" stroke-width="0.0"><path d="M 0.7853772000000001,-0.7011333333333334 l -1.4532397507593944e-17,-0.10786666666666667 h -0.13089620000000002 l -1.4532397507593944e-17,0.10786666666666667 h 0.13089620000000007 Z" /></g><g fill="rgb(137,59,255)" fill-opacity="1.0" stroke-width="0.0"><path d="M 0.6544810000000001,-0.7011333333333334 l -1.4532397507593944e-17,-0.10786666666666667 h -0.13089620000000002 l -1.4532397507593944e-17,0.10786666666666667 h 0.13089620000000007 Z" /></g></g><g fill="rgb(44,53,57)" fill-opacity="1.0" stroke-width="0.0"><path d="M 0.5235848,-0.7011333333333334 l -1.4532397507593944e-17,-0.10786666666666667 h -0.13089620000000002 l -1.4532397507593944e-17,0.10786666666666667 h 0.13089620000000007 Z" /></g><g fill="rgb(82,208,23)" fill-opacity="1.0" stroke-width="0.0"><path d="M 0.39268859999999994,-0.7011333333333334 l -1.4532397507593944e-17,-0.10786666666666667 h -0.13089620000000002 l -1.4532397507593944e-17,0.10786666666666667 h 0.13089620000000007 Z" /></g></g><g><g fill="rgb(150,111,51)" fill-opacity="1.0" stroke-width="0.0"><path d="M 0.2617923999999999,-0.7011333333333334 l -1.4532397507593944e-17,-0.10786666666666667 h -0.13089620000000002 l -1.4532397507593944e-17,0.10786666666666667 h 0.13089620000000007 Z" /></g><g fill="rgb(231,116,113)" fill-opacity="1.0" stroke-width="0.0"><path d="M 0.13089619999999985,-0.7011333333333334 l -1.4532397507593944e-17,-0.10786666666666667 h -0.13089620000000002 l -1.4532397507593944e-17,0.10786666666666667 h 0.13089620000000007 Z" /></g></g><g fill="rgb(88,55,89)" fill-opacity="1.0" stroke-width="0.0"><path d="M -1.8041124150158794e-16,-0.7011333333333334 l -1.4532397507593944e-17,-0.10786666666666667 h -0.13089620000000002 l -1.4532397507593944e-17,0.10786666666666667 h 0.13089620000000007 Z" /></g><g fill="rgb(21,105,199)" fill-opacity="1.0" stroke-width="0.0"><path d="M -0.13089620000000024,-0.7011333333333334 l -1.4532397507593944e-17,-0.10786666666666667 h -0.13089620000000002 l -1.4532397507593944e-17,0.10786666666666667 h 0.13089620000000007 Z" /></g></g><g><g><g fill="rgb(106,251,146)" fill-opacity="1.0" stroke-width="0.0"><path d="M -0.26179240000000026,-0.7011333333333334 l -1.4532397507593944e-17,-0.10786666666666667 h -0.13089620000000002 l -1.4532397507593944e-17,0.10786666666666667 h 0.13089620000000007 Z" /></g><g fill="rgb(237,218,116)" fill-opacity="1.0" stroke-width="0.0"><path d="M -0.39268860000000033,-0.7011333333333334 l -1.4532397507593944e-17,-0.10786666666666667 h -0.13089620000000002 l -1.4532397507593944e-17,0.10786666666666667 h 0.13089620000000007 Z" /></g></g><g fill="rgb(131,126,124)" fill-opacity="1.0" stroke-width="0.0"><path d="M -0.5235848000000004,-0.7011333333333334 l -1.4532397507593944e-17,-0.10786666666666667 h -0.13089620000000002 l -1.4532397507593944e-17,0.10786666666666667 h 0.13089620000000007 Z" /></g><g fill="rgb(253,215,228)" fill-opacity="1.0" stroke-width="0.0"><path d="M -0.6544810000000004,-0.7011333333333334 l -1.4532397507593944e-17,-0.10786666666666667 h -0.13089620000000002 l -1.4532397507593944e-17,0.10786666666666667 h 0.13089620000000007 Z" /></g></g><g><g fill="rgb(0,0,160)" fill-opacity="1.0" stroke-width="0.0"><path d="M -0.7853772000000006,-0.7011333333333334 l -1.4532397507593944e-17,-0.10786666666666667 h -0.13089620000000002 l -1.4532397507593944e-17,0.10786666666666667 h 0.13089620000000007 Z" /></g><g fill="rgb(48,125,126)" fill-opacity="1.0" stroke-width="0.0"><path d="M -0.9162734000000006,-0.7011333333333334 l -1.4532397507593944e-17,-0.10786666666666667 h -0.13089620000000002 l -1.4532397507593944e-17,0.10786666666666667 h 0.13089620000000007 Z" /></g></g><g fill="rgb(106,161,33)" fill-opacity="1.0" stroke-width="0.0"><path d="M -1.0471696000000006,-0.7011333333333334 l -1.4532397507593944e-17,-0.10786666666666667 h -0.13089620000000002 l -1.4532397507593944e-17,0.10786666666666667 h 0.13089620000000007 Z" /></g><g fill="rgb(184,115,51)" fill-opacity="1.0" stroke-width="0.0"><path d="M -1.1780658000000006,-0.7011333333333334 l -1.4532397507593944e-17,-0.10786666666666667 h -0.13089620000000002 l -1.4532397507593944e-17,0.10786666666666667 h 0.13089620000000007 Z" /></g></g></g></g></g></svg>