<?xml version="1.0" encoding="UTF-8"?>
<!DOCTYPE svg PUBLIC "-//W3C//DTD SVG 1.1//EN"
    "http://www.w3.org/Graphics/SVG/1.1/DTD/svg11.dtd">
<svg xmlns="http://www.w3.org/2000/svg" xmlns:xlink="http://www.w3.org/1999/xlink" version="1.1" width="300.0" height="185.41409147095172" font-size="1" viewBox="0 0 300 185"><g><g stroke="rgb(0,0,0)" stroke-opacity="1.0" fill="rgb(0,0,0)" fill-opacity="0.0" stroke-width="1.0e-2" stroke-linecap="butt" stroke-linejoin="miter" font-size="1.0em" stroke-miterlimit="10.0"><g transform="matrix(114.59461771999489,0.0,0.0,114.59461771999489,150.0,92.70704573547586)"><g><g><g fill="rgb(158,218,229)" fill-opacity="1.0" stroke-width="0.0"><path d="M 1.3089620000000004,0.8090000000000002 l -2.906479501518789e-17,-0.809 h -0.26179240000000004 l -2.906479501518789e-17,0.809 h 0.26179240000000015 Z" /></g><g fill="rgb(219,219,141)" fill-opacity="1.0" stroke-width="0.0"><path d="M 1.0471696000000004,0.8090000000000002 l -2.906479501518789e-17,-0.809 h -0.26179240000000004 l -2.906479501518789e-17,0.809 h 0.26179240000000015 Z" /></g></g><g><g><g fill="rgb(199,199,199)" fill-opacity="1.0" stroke-width="0.0"><path d="M 0.7853772000000003,0.8090000000000002 l -2.906479501518789e-17,-0.809 h -0.26179240000000004 l -2.906479501518789e-17,0.809 h 0.26179240000000015 Z" /></g><g fill="rgb(247,182,210)" fill-opacity="1.0" stroke-width="0.0"><path d="M 0.5235848000000002,0.8090000000000002 l -2.906479501518789e-17,-0.809 h -0.26179240000000004 l -2.906479501518789e-17,0.809 h 0.26179240000000015 Z" /></g></g><g fill="rgb(196,156,148)" fill-opacity="1.0" stroke-width="0.0"><path d="M 0.26179240000000015,0.8090000000000002 l -2.906479501518789e-17,-0.809 h -0.26179240000000004 l -2.906479501518789e-17,0.809 h 0.26179240000000015 Z" /></g><g fill="rgb(197,176,213)" fill-opacity="1.0" stroke-width="0.0"><path d="M 2.7755575615628914e-17,0.8090000000000002 l -2.906479501518789e-17,-0.809 h -0.26179240000000004 l -2.906479501518789e-17,0.809 h 0.26179240000000015 Z" /></g></g><g><g fill="rgb(255,152,150)" fill-opacity="1.0" stroke-width="0.0"><path d="M -0.26179240000000004,0.8090000000000002 l -2.906479501518789e-17,-0.809 h -0.26179240000000004 l -2.906479501518789e-17,0.809 h 0.26179240000000015 Z" /></g><g fill="rgb(152,223,138)" fill-opacity="1.0" stroke-width="0.0"><path d="M -0.5235848000000002,0.8090000000000002 l -2.906479501518789e-17,-0.809 h -0.26179240000000004 l -2.906479501518789e-17,0.809 h 0.26179240000000015 Z" /></g></g><g fill="rgb(255,187,120)" fill-opacity="1.0" stroke-width="0.0"><path d="M -0.7853772000000003,0.8090000000000002 l -2.906479501518789e-17,-0.809 h -0.26179240000000004 l -2.906479501518789e-17,0.809 h 0.26179240000000015 Z" /></g><g fill="rgb(174,199,232)" fill-opacity="1.0" stroke-width="0.0"><path d="M -1.0471696000000004,0.8090000000000002 l -2.906479501518789e-17,-0.809 h -0.26179240000000004 l -2.906479501518789e-17,0.809 h 0.26179240000000015 Z" /></g></g><g><g><g fill="rgb(23,190,207)" fill-opacity="1.0" stroke-width="0.0"><path d="M 1.3089620000000004,5.551115123125783e-17 l -2.906479501518789e-17,-0.809 h -0.26179240000000004 l -2.906479501518789e-17,0.809 h 0.26179240000000015 Z" /></g><g fill="rgb(188,189,34)" fill-opacity="1.0" stroke-width="0.0"><path d="M 1.0471696000000004,5.551115123125783e-17 l -2.906479501518789e-17,-0.809 h -0.26179240000000004 l -2.906479501518789e-17,0.809 h 0.26179240000000015 Z" /></g></g><g><g><g fill="rgb(127,127,127)" fill-opacity="1.0" stroke-width="0.0"><path d="M 0.7853772000000003,5.551115123125783e-17 l -2.906479501518789e-17,-0.809 h -0.26179240000000004 l -2.906479501518789e-17,0.809 h 0.26179240000000015 Z" /></g><g fill="rgb(227,119,194)" fill-opacity="1.0" stroke-width="0.0"><path d="M 0.5235848000000002,5.551115123125783e-17 l -2.906479501518789e-17,-0.809 h -0.26179240000000004 l -2.906479501518789e-17,0.809 h 0.26179240000000015 Z" /></g></g><g fill="rgb(140,86,75)" fill-opacity="1.0" stroke-width="0.0"><path d="M 0.26179240000000015,5.551115123125783e-17 l -2.906479501518789e-17,-0.809 h -0.26179240000000004 l -2.906479501518789e-17,0.809 h 0.26179240000000015 Z" /></g><g fill="rgb(148,103,189)" fill-opacity="1.0" stroke-width="0.0"><path d="M 2.7755575615628914e-17,5.551115123125783e-17 l -2.906479501518789e-17,-0.809 h -0.26179240000000004 l -2.906479501518789e-17,0.809 h 0.26179240000000015 Z" /></g></g><g><g fill="rgb(214,39,40)" fill-opacity="1.0" stroke-width="0.0"><path d="M -0.26179240000000004,5.551115123125783e-17 l -2.906479501518789e-17,-0.809 h -0.26179240000000004 l -2.906479501518789e-17,0.809 h 0.26179240000000015 Z" /></g><g fill="rgb(44,160,44)" fill-opacity="1.0" stroke-width="0.0"><path d="M -0.5235848000000002,5.551115123125783e-17 l -2.906479501518789e-17,-0.809 h -0.26179240000000004 l -2.906479501518789e-17,0.809 h 0.26179240000000015 Z" /></g></g><g fill="rgb(255,127,14)" fill-opacity="1.0" stroke-width="0.0"><path d="M -0.7853772000000003,5.551115123125783e-17 l -2.906479501518789e-17,-0.809 h -0.26179240000000004 l -2.906479501518789e-17,0.809 h 0.26179240000000015 Z" /></g><g fill="rgb(31,119,180)" fill-opacity="1.0" stroke-width="0.0"><path d="M -1.0471696000000004,5.551115123125783e-17 l -2.906479501518789e-17,-0.809 h -0.26179240000000004 l -2.906479501518789e-17,0.809 h 0.26179240000000015 Z" /></g></g></g></g></g></svg>