<?xml version="1.0" encoding="UTF-8"?>
<!DOCTYPE svg PUBLIC "-//W3C//DTD SVG 1.1//EN"
    "http://www.w3.org/Graphics/SVG/1.1/DTD/svg11.dtd">
<svg xmlns="http://www.w3.org/2000/svg" xmlns:xlink="http://www.w3.org/1999/xlink" version="1.1" width="100.00000000000001" height="61.804697156983934" font-size="1" viewBox="0 0 100 62"><g><g stroke="rgb(0,0,0)" stroke-opacity="1.0" fill="rgb(0,0,0)" fill-opacity="0.0" stroke-width="1.0e-2" stroke-linecap="butt" stroke-linejoin="miter" font-size="1.0em" stroke-miterlimit="10.0"><g transform="matrix(38.198205906664974,0.0,0.0,38.198205906664974,50.00000000000001,30.902348578491967)"><g fill="rgb(127,39,4)" fill-opacity="1.0" stroke-width="0.0"><path d="M 1.3089620000000002,0.809 l -3.22942166835421e-17,-1.618 h -0.2908804444444445 l -3.22942166835421e-17,1.618 h 0.2908804444444446 Z" /></g><g><g><g fill="rgb(166,54,3)" fill-opacity="1.0" stroke-width="0.0"><path d="M 1.0180815555555558,0.809 l -3.22942166835421e-17,-1.618 h -0.2908804444444445 l -3.22942166835421e-17,1.618 h 0.2908804444444446 Z" /></g><g fill="rgb(217,72,1)" fill-opacity="1.0" stroke-width="0.0"><path d="M 0.7272011111111114,0.809 l -3.22942166835421e-17,-1.618 h -0.2908804444444445 l -3.22942166835421e-17,1.618 h 0.2908804444444446 Z" /></g></g><g fill="rgb(241,105,19)" fill-opacity="1.0" stroke-width="0.0"><path d="M 0.4363206666666668,0.809 l -3.22942166835421e-17,-1.618 h -0.2908804444444445 l -3.22942166835421e-17,1.618 h 0.2908804444444446 Z" /></g><g fill="rgb(253,141,60)" fill-opacity="1.0" stroke-width="0.0"><path d="M 0.14544022222222228,0.809 l -3.22942166835421e-17,-1.618 h -0.2908804444444445 l -3.22942166835421e-17,1.618 h 0.2908804444444446 Z" /></g></g><g><g fill="rgb(253,174,107)" fill-opacity="1.0" stroke-width="0.0"><path d="M -0.14544022222222205,0.809 l -3.22942166835421e-17,-1.618 h -0.2908804444444445 l -3.22942166835421e-17,1.618 h 0.2908804444444446 Z" /></g><g fill="rgb(253,208,162)" fill-opacity="1.0" stroke-width="0.0"><path d="M -0.4363206666666666,0.809 l -3.22942166835421e-17,-1.618 h -0.2908804444444445 l -3.22942166835421e-17,1.618 h 0.2908804444444446 Z" /></g></g><g fill="rgb(254,230,206)" fill-opacity="1.0" stroke-width="0.0"><path d="M -0.7272011111111111,0.809 l -3.22942166835421e-17,-1.618 h -0.2908804444444445 l -3.22942166835421e-17,1.618 h 0.2908804444444446 Z" /></g><g fill="rgb(255,245,235)" fill-opacity="1.0" stroke-width="0.0"><path d="M -1.0180815555555558,0.809 l -3.22942166835421e-17,-1.618 h -0.2908804444444445 l -3.22942166835421e-17,1.618 h 0.2908804444444446 Z" /></g></g></g></g></svg>