<?xml version="1.0" encoding="UTF-8"?>
<!DOCTYPE svg PUBLIC "-//W3C//DTD SVG 1.1//EN"
    "http://www.w3.org/Graphics/SVG/1.1/DTD/svg11.dtd">
<svg xmlns="http://www.w3.org/2000/svg" xmlns:xlink="http://www.w3.org/1999/xlink" version="1.1" width="100.0" height="61.804697156983885" font-size="1" viewBox="0 0 100 62"><g><g stroke="rgb(0,0,0)" stroke-opacity="1.0" fill="rgb(0,0,0)" fill-opacity="0.0" stroke-width="1.0e-2" stroke-linecap="butt" stroke-linejoin="miter" font-size="1.0em" stroke-miterlimit="10.0"><g transform="matrix(38.198205906664946,0.0,0.0,38.198205906664946,50.0,30.902348578491942)"><g><g><g fill="rgb(179,179,179)" fill-opacity="1.0" stroke-width="0.0"><path d="M 1.308962000000001,0.809 l -3.633099376898486e-17,-1.618 h -0.32724050000000005 l -3.633099376898486e-17,1.618 h 0.32724050000000016 Z" /></g><g fill="rgb(229,196,148)" fill-opacity="1.0" stroke-width="0.0"><path d="M 0.9817215000000008,0.809 l -3.633099376898486e-17,-1.618 h -0.32724050000000005 l -3.633099376898486e-17,1.618 h 0.32724050000000016 Z" /></g></g><g fill="rgb(255,217,47)" fill-opacity="1.0" stroke-width="0.0"><path d="M 0.6544810000000005,0.809 l -3.633099376898486e-17,-1.618 h -0.32724050000000005 l -3.633099376898486e-17,1.618 h 0.32724050000000016 Z" /></g><g fill="rgb(166,216,84)" fill-opacity="1.0" stroke-width="0.0"><path d="M 0.3272405000000002,0.809 l -3.633099376898486e-17,-1.618 h -0.32724050000000005 l -3.633099376898486e-17,1.618 h 0.32724050000000016 Z" /></g></g><g><g fill="rgb(231,138,195)" fill-opacity="1.0" stroke-width="0.0"><path d="M -5.551115123125783e-17,0.809 l -3.633099376898486e-17,-1.618 h -0.32724050000000005 l -3.633099376898486e-17,1.618 h 0.32724050000000016 Z" /></g><g fill="rgb(141,160,203)" fill-opacity="1.0" stroke-width="0.0"><path d="M -0.3272405000000003,0.809 l -3.633099376898486e-17,-1.618 h -0.32724050000000005 l -3.633099376898486e-17,1.618 h 0.32724050000000016 Z" /></g></g><g fill="rgb(252,141,98)" fill-opacity="1.0" stroke-width="0.0"><path d="M -0.6544810000000005,0.809 l -3.633099376898486e-17,-1.618 h -0.32724050000000005 l -3.633099376898486e-17,1.618 h 0.32724050000000016 Z" /></g><g fill="rgb(102,194,165)" fill-opacity="1.0" stroke-width="0.0"><path d="M -0.9817215000000008,0.809 l -3.633099376898486e-17,-1.618 h -0.32724050000000005 l -3.633099376898486e-17,1.618 h 0.32724050000000016 Z" /></g></g></g></g></svg>