<?xml version="1.0" encoding="UTF-8"?>
<!DOCTYPE svg PUBLIC "-//W3C//DTD SVG 1.1//EN"
    "http://www.w3.org/Graphics/SVG/1.1/DTD/svg11.dtd">
<svg xmlns="http://www.w3.org/2000/svg" xmlns:xlink="http://www.w3.org/1999/xlink" version="1.1" width="100.0" height="61.804697156983906" font-size="1" viewBox="0 0 100 62"><g><g stroke="rgb(0,0,0)" stroke-opacity="1.0" fill="rgb(0,0,0)" fill-opacity="0.0" stroke-width="1.0e-2" stroke-linecap="butt" stroke-linejoin="miter" font-size="1.0em" stroke-miterlimit="10.0"><g transform="matrix(38.19820590666496,0.0,0.0,38.19820590666496,50.00000000000001,30.902348578491953)"><g><g fill="rgb(0,68,27)" fill-opacity="1.0" stroke-width="0.0"><path d="M 1.3089620000000004,0.809 l -2.642254092289808e-17,-1.618 h -0.23799309090909096 l -2.642254092289808e-17,1.618 h 0.23799309090909102 Z" /></g><g fill="rgb(27,120,55)" fill-opacity="1.0" stroke-width="0.0"><path d="M 1.0709689090909094,0.809 l -2.642254092289808e-17,-1.618 h -0.23799309090909096 l -2.642254092289808e-17,1.618 h 0.23799309090909102 Z" /></g><g fill="rgb(90,174,97)" fill-opacity="1.0" stroke-width="0.0"><path d="M 0.8329758181818184,0.809 l -2.642254092289808e-17,-1.618 h -0.23799309090909096 l -2.642254092289808e-17,1.618 h 0.23799309090909102 Z" /></g></g><g><g><g fill="rgb(166,219,160)" fill-opacity="1.0" stroke-width="0.0"><path d="M 0.5949827272727274,0.809 l -2.642254092289808e-17,-1.618 h -0.23799309090909096 l -2.642254092289808e-17,1.618 h 0.23799309090909102 Z" /></g><g fill="rgb(217,240,211)" fill-opacity="1.0" stroke-width="0.0"><path d="M 0.3569896363636364,0.809 l -2.642254092289808e-17,-1.618 h -0.23799309090909096 l -2.642254092289808e-17,1.618 h 0.23799309090909102 Z" /></g></g><g fill="rgb(247,247,247)" fill-opacity="1.0" stroke-width="0.0"><path d="M 0.11899654545454537,0.809 l -2.642254092289808e-17,-1.618 h -0.23799309090909096 l -2.642254092289808e-17,1.618 h 0.23799309090909102 Z" /></g><g fill="rgb(231,212,232)" fill-opacity="1.0" stroke-width="0.0"><path d="M -0.11899654545454565,0.809 l -2.642254092289808e-17,-1.618 h -0.23799309090909096 l -2.642254092289808e-17,1.618 h 0.23799309090909102 Z" /></g></g><g><g fill="rgb(194,165,207)" fill-opacity="1.0" stroke-width="0.0"><path d="M -0.35698963636363656,0.809 l -2.642254092289808e-17,-1.618 h -0.23799309090909096 l -2.642254092289808e-17,1.618 h 0.23799309090909102 Z" /></g><g fill="rgb(153,112,171)" fill-opacity="1.0" stroke-width="0.0"><path d="M -0.5949827272727276,0.809 l -2.642254092289808e-17,-1.618 h -0.23799309090909096 l -2.642254092289808e-17,1.618 h 0.23799309090909102 Z" /></g></g><g fill="rgb(118,42,131)" fill-opacity="1.0" stroke-width="0.0"><path d="M -0.8329758181818187,0.809 l -2.642254092289808e-17,-1.618 h -0.23799309090909096 l -2.642254092289808e-17,1.618 h 0.23799309090909102 Z" /></g><g fill="rgb(64,0,75)" fill-opacity="1.0" stroke-width="0.0"><path d="M -1.0709689090909098,0.809 l -2.642254092289808e-17,-1.618 h -0.23799309090909096 l -2.642254092289808e-17,1.618 h 0.23799309090909102 Z" /></g></g></g></g></svg>