<?xml version="1.0" encoding="UTF-8"?>
<!DOCTYPE svg PUBLIC "-//W3C//DTD SVG 1.1//EN"
    "http://www.w3.org/Graphics/SVG/1.1/DTD/svg11.dtd">
<svg xmlns="http://www.w3.org/2000/svg" xmlns:xlink="http://www.w3.org/1999/xlink" version="1.1" width="640.9254148600327" height="562.9446800612237" font-size="1" viewBox="0 0 641 563"><g><g transform="matrix(1.0,0.0,0.0,1.0,2.834645669291376,2.834645669291376)"><g stroke="rgb(0,0,0)" stroke-opacity="1.0" fill="rgb(255,255,255)" fill-opacity="1.0" stroke-width="0.28346456692913385" font-size="1.0em"><path d="M 640.9254148600328,562.9446800612237 l -1.4231403052900775e-13,-1125.8893601224474 h -1281.8508297200653 l -1.4231403052900775e-13,1125.8893601224474 Z" /></g></g><g transform="matrix(1.0,0.0,0.0,1.0,2.834645669291376,2.834645669291376)"><g stroke="rgb(0,0,0)" stroke-opacity="1.0" fill="rgb(0,0,0)" fill-opacity="0.0" stroke-width="0.28346456692913385" font-size="1.0em"></g></g><g transform="matrix(1.0,0.0,0.0,1.0,2.834645669291376,2.834645669291376)"><g stroke="rgb(0,0,0)" stroke-opacity="1.0" fill="rgb(0,0,0)" fill-opacity="0.0" stroke-width="0.28346456692913385" font-size="1.0em"></g></g><g transform="matrix(1.0,0.0,0.0,1.0,2.834645669291376,2.834645669291376)"><g stroke="rgb(0,0,0)" stroke-opacity="1.0" fill="rgb(128,255,0)" fill-opacity="0.25" stroke-width="0.28346456692913385" font-size="1.0em"></g></g><g transform="matrix(1.0,0.0,0.0,1.0,2.834645669291376,2.834645669291376)"><g stroke="rgb(0,0,0)" stroke-opacity="1.0" fill="rgb(128,255,0)" fill-opacity="0.25" stroke-width="0.28346456692913385" font-size="1.0em"></g></g><g transform="matrix(1.0,0.0,0.0,1.0,2.834645669291376,2.834645669291376)"><g stroke="rgb(0,0,0)" stroke-opacity="1.0" fill="rgb(128,255,0)" fill-opacity="0.25" stroke-width="0.28346456692913385" font-size="1.0em"><path d="M 38.76060378867135,548.771451714767 h 557.734915944107 v -17.356350948211947 h -557.734915944107 v 17.356350948211947 Z" /></g></g><g transform="matrix(1.0,0.0,0.0,1.0,2.834645669291376,2.834645669291376)"><g stroke="rgb(0,0,0)" stroke-opacity="1.0" fill="rgb(128,255,0)" fill-opacity="0.25" stroke-width="0.28346456692913385" font-size="1.0em"></g></g><g transform="matrix(1.0,0.0,0.0,1.0,2.834645669291376,2.834645669291376)"><g stroke="rgb(0,0,0)" stroke-opacity="1.0" fill="rgb(128,255,0)" fill-opacity="0.25" stroke-width="0.28346456692913385" font-size="1.0em"></g></g><g transform="matrix(1.0,0.0,0.0,1.0,2.834645669291376,2.834645669291376)"><g stroke="rgb(0,0,0)" stroke-opacity="1.0" fill="rgb(128,255,0)" fill-opacity="0.25" stroke-width="0.28346456692913385" font-size="1.0em"></g></g><g transform="matrix(1.0,0.0,0.0,1.0,2.834645669291376,2.834645669291376)"><g stroke="rgb(0,0,0)" stroke-opacity="1.0" fill="rgb(128,255,0)" fill-opacity="0.25" stroke-width="0.28346456692913385" font-size="1.0em"></g></g><g transform="matrix(1.0,0.0,0.0,1.0,2.834645669291376,2.834645669291376)"><g stroke="rgb(0,0,0)" stroke-opacity="1.0" fill="rgb(128,255,0)" fill-opacity="0.25" stroke-width="0.28346456692913385" font-size="1.0em"><path d="M 289.47437706080075,511.21652559340623 h 205.27178079907225 v -16.989926892894218 h -205.27178079907225 v 16.989926892894218 Z" /></g></g><g transform="matrix(1.0,0.0,0.0,1.0,2.834645669291376,2.834645669291376)"><g stroke="rgb(0,0,0)" stroke-opacity="1.0" fill="rgb(128,255,0)" fill-opacity="0.25" stroke-width="0.28346456692913385" font-size="1.0em"></g></g><g transform="matrix(1.0,0.0,0.0,1.0,2.834645669291376,2.834645669291376)"><g stroke="rgb(0,0,0)" stroke-opacity="1.0" fill="rgb(128,255,0)" fill-opacity="0.25" stroke-width="0.28346456692913385" font-size="1.0em"></g></g><g transform="matrix(1.0,0.0,0.0,1.0,2.834645669291376,2.834645669291376)"><g stroke="rgb(0,0,0)" stroke-opacity="1.0" fill="rgb(0,255,255)" fill-opacity="0.25" stroke-width="0.28346456692913385" font-size="1.0em"></g></g><g transform="matrix(1.0,0.0,0.0,1.0,2.834645669291376,2.834645669291376)"><g stroke="rgb(0,0,0)" stroke-opacity="1.0" fill="rgb(0,255,255)" fill-opacity="0.25" stroke-width="0.28346456692913385" font-size="1.0em"></g></g><g transform="matrix(1.0,0.0,0.0,1.0,2.834645669291376,2.834645669291376)"><g stroke="rgb(0,0,0)" stroke-opacity="1.0" fill="rgb(0,255,255)" fill-opacity="0.25" stroke-width="0.28346456692913385" font-size="1.0em"><path d="M 488.01084742923433,329.57515922316867 l -12.146459600282604,11.29162107677569 l -7.269585368898738,14.90604964190966 l -1.4187713730621354,16.523446225099708 l 4.622121944602689,15.927120772192463 l 10.04376834108027,13.196965744954248 l 14.119804929578986,8.6987525607652 l 16.304146353994867,3.0351275146685524 l 16.304146353994867,-3.0351275146685524 l 14.119804929578986,-8.6987525607652 l 10.04376834108027,-13.196965744954248 l 4.622121944602689,-15.927120772192463 l -1.4187713730621354,-16.523446225099708 l -7.269585368898738,-14.90604964190966 l -12.146459600282604,-11.29162107677569 l 9.291282673892638,-14.659979007874462 l 16.79935888927416,15.61706053886136 l 10.054318509856579,20.616054866716127 l 1.9622548678583271,22.85302156824479 l -6.392701077733285,22.028263932862327 l -13.891197477708772,18.252278531744803 l -19.528626304657617,12.030951484322827 l -22.549715307795363,4.19778256969969 l -22.549715307795363,-4.19778256969969 l -19.528626304657617,-12.030951484322827 l -13.891197477708772,-18.252278531744803 l -6.392701077733285,-22.028263932862327 l 1.9622548678583271,-22.85302156824479 l 10.054318509856579,-20.616054866716127 l 16.79935888927416,-15.61706053886136 Z" /></g></g><g transform="matrix(1.0,0.0,0.0,1.0,2.834645669291376,2.834645669291376)"><g stroke="rgb(0,0,0)" stroke-opacity="1.0" fill="rgb(0,255,255)" fill-opacity="0.25" stroke-width="0.28346456692913385" font-size="1.0em"><path d="M 459.9719216252921,285.3347590420244 l -26.187825310082047,24.344789342514453 l -15.673261014511525,32.137514710595916 l -3.058877903140754,35.62462952195371 l 9.965317140176026,34.338948977778756 l 21.6544128434777,28.452721609839102 l 30.4423673297894,18.754552352987517 l 35.15181794524674,6.543749517440816 l 35.15181794524674,-6.543749517440816 l 30.4423673297894,-18.754552352987517 l 21.6544128434777,-28.452721609839102 l 9.965317140176026,-34.338948977778756 l -3.058877903140754,-35.62462952195371 l -15.673261014511525,-32.137514710595916 l -26.187825310082047,-24.344789342514453 l 9.291282673892638,-14.659979007874469 l 30.840724599073596,28.67022880460013 l 18.457994155469365,37.84751993540238 l 3.6023613979369458,41.954204865098795 l -11.735896273306622,40.44009213844862 l -25.501841980106192,33.508034396629654 l -35.85118870486803,22.086751276545158 l -41.39738689904724,7.706404572471939 l -41.39738689904724,-7.706404572471939 l -35.85118870486803,-22.086751276545158 l -25.501841980106192,-33.508034396629654 l -11.735896273306622,-40.44009213844862 l 3.6023613979369458,-41.954204865098795 l 18.457994155469365,-37.84751993540238 l 30.840724599073596,-28.67022880460013 Z" /></g></g><g transform="matrix(1.0,0.0,0.0,1.0,2.834645669291376,2.834645669291376)"><g stroke="rgb(0,0,0)" stroke-opacity="1.0" fill="rgb(0,255,255)" fill-opacity="0.25" stroke-width="0.28346456692913385" font-size="1.0em"></g></g><g transform="matrix(1.0,0.0,0.0,1.0,2.834645669291376,2.834645669291376)"><g stroke="rgb(0,0,0)" stroke-opacity="1.0" fill="rgb(0,255,255)" fill-opacity="0.25" stroke-width="0.28346456692913385" font-size="1.0em"></g></g><g transform="matrix(1.0,0.0,0.0,1.0,2.834645669291376,2.834645669291376)"><g stroke="rgb(0,0,0)" stroke-opacity="1.0" fill="rgb(0,255,255)" fill-opacity="0.25" stroke-width="0.28346456692913385" font-size="1.0em"></g></g><g transform="matrix(1.0,0.0,0.0,1.0,2.834645669291376,2.834645669291376)"><g stroke="rgb(0,0,0)" stroke-opacity="1.0" fill="rgb(0,255,255)" fill-opacity="0.25" stroke-width="0.28346456692913385" font-size="1.0em"></g></g><g transform="matrix(1.0,0.0,0.0,1.0,2.834645669291376,2.834645669291376)"><g stroke="rgb(0,0,0)" stroke-opacity="1.0" fill="rgb(0,255,255)" fill-opacity="0.25" stroke-width="0.28346456692913385" font-size="1.0em"><path d="M 247.6996370374128,329.57515922316867 l -12.146459600282604,11.29162107677569 l -7.269585368898738,14.90604964190966 l -1.4187713730621354,16.523446225099708 l 4.622121944602689,15.927120772192463 l 10.04376834108027,13.196965744954248 l 14.119804929578986,8.6987525607652 l 16.304146353994867,3.0351275146685524 l 16.304146353994867,-3.0351275146685524 l 14.119804929578986,-8.6987525607652 l 10.04376834108027,-13.196965744954248 l 4.622121944602689,-15.927120772192463 l -1.4187713730621354,-16.523446225099708 l -7.269585368898738,-14.90604964190966 l -12.146459600282604,-11.29162107677569 l 9.291282673892638,-14.659979007874462 l 16.79935888927416,15.61706053886136 l 10.054318509856579,20.616054866716127 l 1.9622548678583271,22.85302156824479 l -6.392701077733285,22.028263932862327 l -13.891197477708772,18.252278531744803 l -19.528626304657617,12.030951484322827 l -22.549715307795363,4.19778256969969 l -22.549715307795363,-4.19778256969969 l -19.528626304657617,-12.030951484322827 l -13.891197477708772,-18.252278531744803 l -6.392701077733285,-22.028263932862327 l 1.9622548678583271,-22.85302156824479 l 10.054318509856579,-20.616054866716127 l 16.79935888927416,-15.61706053886136 Z" /></g></g><g transform="matrix(1.0,0.0,0.0,1.0,2.834645669291376,2.834645669291376)"><g stroke="rgb(0,0,0)" stroke-opacity="1.0" fill="rgb(0,255,255)" fill-opacity="0.25" stroke-width="0.28346456692913385" font-size="1.0em"><path d="M 219.66071123347058,285.3347590420244 l -26.187825310082047,24.344789342514453 l -15.673261014511525,32.137514710595916 l -3.058877903140754,35.62462952195371 l 9.965317140176026,34.338948977778756 l 21.6544128434777,28.452721609839102 l 30.4423673297894,18.754552352987517 l 35.15181794524674,6.543749517440816 l 35.15181794524674,-6.543749517440816 l 30.4423673297894,-18.754552352987517 l 21.6544128434777,-28.452721609839102 l 9.965317140176026,-34.338948977778756 l -3.058877903140754,-35.62462952195371 l -15.673261014511525,-32.137514710595916 l -26.187825310082047,-24.344789342514453 l 9.291282673892638,-14.659979007874469 l 30.840724599073596,28.67022880460013 l 18.457994155469365,37.84751993540238 l 3.6023613979369458,41.954204865098795 l -11.735896273306622,40.44009213844862 l -25.501841980106192,33.508034396629654 l -35.85118870486803,22.086751276545158 l -41.39738689904724,7.706404572471939 l -41.39738689904724,-7.706404572471939 l -35.85118870486803,-22.086751276545158 l -25.501841980106192,-33.508034396629654 l -11.735896273306622,-40.44009213844862 l 3.6023613979369458,-41.954204865098795 l 18.457994155469365,-37.84751993540238 l 30.840724599073596,-28.67022880460013 Z" /></g></g><g transform="matrix(1.0,0.0,0.0,1.0,2.834645669291376,2.834645669291376)"><g stroke="rgb(0,0,0)" stroke-opacity="1.0" fill="rgb(0,255,255)" fill-opacity="0.25" stroke-width="0.28346456692913385" font-size="1.0em"></g></g><g transform="matrix(1.0,0.0,0.0,1.0,2.834645669291376,2.834645669291376)"><g stroke="rgb(0,0,0)" stroke-opacity="1.0" fill="rgb(0,255,255)" fill-opacity="0.25" stroke-width="0.28346456692913385" font-size="1.0em"></g></g><g transform="matrix(1.0,0.0,0.0,1.0,2.834645669291376,2.834645669291376)"><g stroke="rgb(0,0,0)" stroke-opacity="1.0" fill="rgb(128,255,0)" fill-opacity="0.25" stroke-width="0.28346456692913385" font-size="1.0em"></g></g><g transform="matrix(1.0,0.0,0.0,1.0,2.834645669291376,2.834645669291376)"><g stroke="rgb(0,0,0)" stroke-opacity="1.0" fill="rgb(128,255,0)" fill-opacity="0.25" stroke-width="0.28346456692913385" font-size="1.0em"></g></g><g transform="matrix(1.0,0.0,0.0,1.0,2.834645669291376,2.834645669291376)"><g stroke="rgb(0,0,0)" stroke-opacity="1.0" fill="rgb(128,255,0)" fill-opacity="0.25" stroke-width="0.28346456692913385" fill-rule="evenodd" font-size="1.0em"></g></g><g transform="matrix(1.0,0.0,0.0,1.0,2.834645669291376,2.834645669291376)"><g stroke="rgb(0,0,0)" stroke-opacity="1.0" fill="rgb(128,255,0)" fill-opacity="0.25" stroke-width="0.28346456692913385" fill-rule="evenodd" font-size="1.0em"></g></g><g transform="matrix(1.0,0.0,0.0,1.0,2.834645669291376,2.834645669291376)"><g stroke="rgb(0,0,0)" stroke-opacity="1.0" fill="rgb(128,255,0)" fill-opacity="0.25" stroke-width="0.28346456692913385" fill-rule="evenodd" font-size="1.0em"><path d="M 123.69552676033528,438.83647511120097 l -12.427128617159376,-21.52441815711321 l -21.524418157113203,-12.427128617159376 l -24.85425723431875,-1.4210854715202004e-14 l -21.52441815711321,12.427128617159369 l -12.427128617159383,21.524418157113196 l -2.1316282072803006e-14,24.85425723431875 l 12.427128617159354,21.52441815711321 l 21.524418157113207,12.427128617159404 l 24.854257234318773,2.1316282072803006e-14 l 21.524418157113224,-12.427128617159383 l 12.42712861715939,-21.524418157113217 ZM 140.46047439134995,434.34432093232056 l -16.919282796039823,-29.305057430366986 l -29.30505743036698,-16.919282796039823 l -33.83856559207964,-1.4210854715202004e-14 l -29.305057430366986,16.91928279603981 l -16.919282796039838,29.30505743036697 l -2.842170943040401e-14,33.83856559207964 l 16.919282796039795,29.305057430366997 l 29.305057430366986,16.91928279603986 l 33.83856559207967,2.1316282072803006e-14 l 29.305057430367007,-16.919282796039823 l 16.919282796039838,-29.305057430367004 Z" /></g></g><g transform="matrix(1.0,0.0,0.0,1.0,2.834645669291376,2.834645669291376)"><g stroke="rgb(0,0,0)" stroke-opacity="1.0" fill="rgb(128,255,0)" fill-opacity="0.25" stroke-width="0.28346456692913385" fill-rule="evenodd" font-size="1.0em"></g></g><g transform="matrix(1.0,0.0,0.0,1.0,2.834645669291376,2.834645669291376)"><g stroke="rgb(0,0,0)" stroke-opacity="1.0" fill="rgb(128,255,0)" fill-opacity="0.25" stroke-width="0.28346456692913385" fill-rule="evenodd" font-size="1.0em"></g></g><g transform="matrix(1.0,0.0,0.0,1.0,2.834645669291376,2.834645669291376)"><g stroke="rgb(0,0,0)" stroke-opacity="1.0" fill="rgb(128,255,0)" fill-opacity="0.25" stroke-width="0.28346456692913385" font-size="1.0em"></g></g><g transform="matrix(1.0,0.0,0.0,1.0,2.834645669291376,2.834645669291376)"><g stroke="rgb(0,0,0)" stroke-opacity="1.0" fill="rgb(128,255,0)" fill-opacity="0.25" stroke-width="0.28346456692913385" font-size="1.0em"></g></g><g transform="matrix(1.0,0.0,0.0,1.0,2.834645669291376,2.834645669291376)"><g stroke="rgb(0,0,0)" stroke-opacity="1.0" fill="rgb(128,255,0)" fill-opacity="0.25" stroke-width="0.28346456692913385" font-size="1.0em"></g></g><g transform="matrix(1.0,0.0,0.0,1.0,2.834645669291376,2.834645669291376)"><g stroke="rgb(0,0,0)" stroke-opacity="1.0" fill="rgb(128,255,0)" fill-opacity="0.25" stroke-width="0.28346456692913385" font-size="1.0em"></g></g><g transform="matrix(1.0,0.0,0.0,1.0,2.834645669291376,2.834645669291376)"><g stroke="rgb(0,0,0)" stroke-opacity="1.0" fill="rgb(128,255,0)" fill-opacity="0.25" stroke-width="0.28346456692913385" fill-rule="evenodd" font-size="1.0em"></g></g><g transform="matrix(1.0,0.0,0.0,1.0,2.834645669291376,2.834645669291376)"><g stroke="rgb(0,0,0)" stroke-opacity="1.0" fill="rgb(128,255,0)" fill-opacity="0.25" stroke-width="0.28346456692913385" fill-rule="evenodd" font-size="1.0em"></g></g><g transform="matrix(1.0,0.0,0.0,1.0,2.834645669291376,2.834645669291376)"><g stroke="rgb(0,0,0)" stroke-opacity="1.0" fill="rgb(128,255,0)" fill-opacity="0.25" stroke-width="0.28346456692913385" fill-rule="evenodd" font-size="1.0em"><path d="M 123.69552676033528,289.87206371197686 l -12.427128617159376,-21.52441815711321 l -21.524418157113203,-12.427128617159376 l -24.85425723431875,-1.4210854715202004e-14 l -21.52441815711321,12.427128617159369 l -12.427128617159383,21.524418157113196 l -2.1316282072803006e-14,24.85425723431875 l 12.427128617159354,21.52441815711321 l 21.524418157113207,12.427128617159404 l 24.854257234318773,2.1316282072803006e-14 l 21.524418157113224,-12.427128617159383 l 12.42712861715939,-21.524418157113217 ZM 140.46047439134995,285.37990953309645 l -16.919282796039823,-29.305057430366986 l -29.30505743036698,-16.919282796039823 l -33.83856559207964,-1.4210854715202004e-14 l -29.305057430366986,16.91928279603981 l -16.919282796039838,29.30505743036697 l -2.842170943040401e-14,33.83856559207964 l 16.919282796039795,29.305057430366997 l 29.305057430366986,16.91928279603986 l 33.83856559207967,2.1316282072803006e-14 l 29.305057430367007,-16.919282796039823 l 16.919282796039838,-29.305057430367004 Z" /></g></g><g transform="matrix(1.0,0.0,0.0,1.0,2.834645669291376,2.834645669291376)"><g stroke="rgb(0,0,0)" stroke-opacity="1.0" fill="rgb(128,255,0)" fill-opacity="0.25" stroke-width="0.28346456692913385" fill-rule="evenodd" font-size="1.0em"></g></g><g transform="matrix(1.0,0.0,0.0,1.0,2.834645669291376,2.834645669291376)"><g stroke="rgb(0,0,0)" stroke-opacity="1.0" fill="rgb(128,255,0)" fill-opacity="0.25" stroke-width="0.28346456692913385" fill-rule="evenodd" font-size="1.0em"></g></g><g transform="matrix(1.0,0.0,0.0,1.0,2.834645669291376,2.834645669291376)"><g stroke="rgb(0,0,0)" stroke-opacity="1.0" fill="rgb(128,255,0)" fill-opacity="0.25" stroke-width="0.28346456692913385" font-size="1.0em"></g></g><g transform="matrix(1.0,0.0,0.0,1.0,2.834645669291376,2.834645669291376)"><g stroke="rgb(0,0,0)" stroke-opacity="1.0" fill="rgb(128,255,0)" fill-opacity="0.25" stroke-width="0.28346456692913385" font-size="1.0em"></g></g><g transform="matrix(1.0,0.0,0.0,1.0,2.834645669291376,2.834645669291376)"><g stroke="rgb(0,0,0)" stroke-opacity="1.0" fill="rgb(128,0,255)" fill-opacity="0.25" stroke-width="0.28346456692913385" font-size="1.0em"></g></g><g transform="matrix(1.0,0.0,0.0,1.0,2.834645669291376,2.834645669291376)"><g stroke="rgb(0,0,0)" stroke-opacity="1.0" fill="rgb(128,0,255)" fill-opacity="0.25" stroke-width="0.28346456692913385" font-size="1.0em"></g></g><g transform="matrix(1.0,0.0,0.0,1.0,2.834645669291376,2.834645669291376)"><g stroke="rgb(0,0,0)" stroke-opacity="1.0" fill="rgb(128,0,255)" fill-opacity="0.25" stroke-width="0.28346456692913385" font-size="1.0em"><path d="M 576.7787978616686,222.14769529094156 h 30.62251639974677 l 3.9705408525273143,-21.329014629947203 v -21.695438685264932 l -3.9705408525273143,-21.329014629947203 l -5.615192723600556,-20.956184538768348 l -3.9705408525273134,-21.329014629947203 v -21.695438685264932 l 3.9705408525273134,-21.329014629947203 l 5.615192723600556,-20.956184538768348 l 3.9705408525273143,-21.329014629947203 v -21.695438685264932 h -38.5635981048014 v 21.695438685264932 l 3.9705408525273143,21.329014629947203 l 5.615192723600556,20.956184538768348 l 3.9705408525273134,21.329014629947203 v 21.695438685264932 l -3.9705408525273134,21.329014629947203 l -5.615192723600556,20.956184538768348 l -3.9705408525273143,21.329014629947203 v 21.695438685264932 l 3.9705408525273143,21.329014629947203 Z" /></g></g><g transform="matrix(1.0,0.0,0.0,1.0,2.834645669291376,2.834645669291376)"><g stroke="rgb(0,0,0)" stroke-opacity="1.0" fill="rgb(128,0,255)" fill-opacity="0.25" stroke-width="0.28346456692913385" font-size="1.0em"></g></g><g transform="matrix(1.0,0.0,0.0,1.0,2.834645669291376,2.834645669291376)"><g stroke="rgb(0,0,0)" stroke-opacity="1.0" fill="rgb(128,0,255)" fill-opacity="0.25" stroke-width="0.28346456692913385" font-size="1.0em"></g></g><g transform="matrix(1.0,0.0,0.0,1.0,2.834645669291376,2.834645669291376)"><g stroke="rgb(0,0,0)" stroke-opacity="1.0" fill="rgb(255,0,0)" fill-opacity="0.25" stroke-width="0.28346456692913385" font-size="1.0em"></g></g><g transform="matrix(1.0,0.0,0.0,1.0,2.834645669291376,2.834645669291376)"><g stroke="rgb(0,0,0)" stroke-opacity="1.0" fill="rgb(255,0,0)" fill-opacity="0.25" stroke-width="0.28346456692913385" font-size="1.0em"></g></g><g transform="matrix(1.0,0.0,0.0,1.0,2.834645669291376,2.834645669291376)"><g stroke="rgb(0,0,0)" stroke-opacity="1.0" fill="rgb(255,0,0)" fill-opacity="0.25" stroke-width="0.28346456692913385" font-size="1.0em"><path d="M 526.8766170797019,222.14769529094156 h 30.62251639974677 l 3.9705408525273143,-21.329014629947203 v -21.695438685264932 l -3.9705408525273143,-21.329014629947203 l -5.615192723600556,-20.956184538768348 l -3.9705408525273134,-21.329014629947203 v -21.695438685264932 l 3.9705408525273134,-21.329014629947203 l 5.615192723600556,-20.956184538768348 l 3.9705408525273143,-21.329014629947203 v -21.695438685264932 h -38.5635981048014 v 21.695438685264932 l 3.9705408525273143,21.329014629947203 l 5.615192723600556,20.956184538768348 l 3.9705408525273134,21.329014629947203 v 21.695438685264932 l -3.9705408525273134,21.329014629947203 l -5.615192723600556,20.956184538768348 l -3.9705408525273143,21.329014629947203 v 21.695438685264932 l 3.9705408525273143,21.329014629947203 Z" /></g></g><g transform="matrix(1.0,0.0,0.0,1.0,2.834645669291376,2.834645669291376)"><g stroke="rgb(0,0,0)" stroke-opacity="1.0" fill="rgb(255,0,0)" fill-opacity="0.25" stroke-width="0.28346456692913385" font-size="1.0em"></g></g><g transform="matrix(1.0,0.0,0.0,1.0,2.834645669291376,2.834645669291376)"><g stroke="rgb(0,0,0)" stroke-opacity="1.0" fill="rgb(255,0,0)" fill-opacity="0.25" stroke-width="0.28346456692913385" font-size="1.0em"></g></g><g transform="matrix(1.0,0.0,0.0,1.0,2.834645669291376,2.834645669291376)"><g stroke="rgb(0,0,0)" stroke-opacity="1.0" fill="rgb(128,0,255)" fill-opacity="0.25" stroke-width="0.28346456692913385" font-size="1.0em"></g></g><g transform="matrix(1.0,0.0,0.0,1.0,2.834645669291376,2.834645669291376)"><g stroke="rgb(0,0,0)" stroke-opacity="1.0" fill="rgb(128,0,255)" fill-opacity="0.25" stroke-width="0.28346456692913385" font-size="1.0em"></g></g><g transform="matrix(1.0,0.0,0.0,1.0,2.834645669291376,2.834645669291376)"><g stroke="rgb(0,0,0)" stroke-opacity="1.0" fill="rgb(128,0,255)" fill-opacity="0.25" stroke-width="0.28346456692913385" font-size="1.0em"><path d="M 476.9744362977351,222.14769529094156 h 30.62251639974677 l 3.9705408525273143,-21.329014629947203 v -21.695438685264932 l -3.9705408525273143,-21.329014629947203 l -5.615192723600556,-20.956184538768348 l -3.9705408525273134,-21.329014629947203 v -21.695438685264932 l 3.9705408525273134,-21.329014629947203 l 5.615192723600556,-20.956184538768348 l 3.9705408525273143,-21.329014629947203 v -21.695438685264932 h -38.5635981048014 v 21.695438685264932 l 3.9705408525273143,21.329014629947203 l 5.615192723600556,20.956184538768348 l 3.9705408525273134,21.329014629947203 v 21.695438685264932 l -3.9705408525273134,21.329014629947203 l -5.615192723600556,20.956184538768348 l -3.9705408525273143,21.329014629947203 v 21.695438685264932 l 3.9705408525273143,21.329014629947203 Z" /></g></g><g transform="matrix(1.0,0.0,0.0,1.0,2.834645669291376,2.834645669291376)"><g stroke="rgb(0,0,0)" stroke-opacity="1.0" fill="rgb(128,0,255)" fill-opacity="0.25" stroke-width="0.28346456692913385" font-size="1.0em"></g></g><g transform="matrix(1.0,0.0,0.0,1.0,2.834645669291376,2.834645669291376)"><g stroke="rgb(0,0,0)" stroke-opacity="1.0" fill="rgb(128,0,255)" fill-opacity="0.25" stroke-width="0.28346456692913385" font-size="1.0em"></g></g><g transform="matrix(1.0,0.0,0.0,1.0,2.834645669291376,2.834645669291376)"><g stroke="rgb(0,0,0)" stroke-opacity="1.0" fill="rgb(255,0,0)" fill-opacity="0.25" stroke-width="0.28346456692913385" font-size="1.0em"></g></g><g transform="matrix(1.0,0.0,0.0,1.0,2.834645669291376,2.834645669291376)"><g stroke="rgb(0,0,0)" stroke-opacity="1.0" fill="rgb(255,0,0)" fill-opacity="0.25" stroke-width="0.28346456692913385" font-size="1.0em"></g></g><g transform="matrix(1.0,0.0,0.0,1.0,2.834645669291376,2.834645669291376)"><g stroke="rgb(0,0,0)" stroke-opacity="1.0" fill="rgb(255,0,0)" fill-opacity="0.25" stroke-width="0.28346456692913385" font-size="1.0em"><path d="M 427.07225551576835,222.14769529094156 h 30.62251639974677 l 3.9705408525273143,-21.329014629947203 v -21.695438685264932 l -3.9705408525273143,-21.329014629947203 l -5.615192723600556,-20.956184538768348 l -3.9705408525273134,-21.329014629947203 v -21.695438685264932 l 3.9705408525273134,-21.329014629947203 l 5.615192723600556,-20.956184538768348 l 3.9705408525273143,-21.329014629947203 v -21.695438685264932 h -38.5635981048014 v 21.695438685264932 l 3.9705408525273143,21.329014629947203 l 5.615192723600556,20.956184538768348 l 3.9705408525273134,21.329014629947203 v 21.695438685264932 l -3.9705408525273134,21.329014629947203 l -5.615192723600556,20.956184538768348 l -3.9705408525273143,21.329014629947203 v 21.695438685264932 l 3.9705408525273143,21.329014629947203 Z" /></g></g><g transform="matrix(1.0,0.0,0.0,1.0,2.834645669291376,2.834645669291376)"><g stroke="rgb(0,0,0)" stroke-opacity="1.0" fill="rgb(255,0,0)" fill-opacity="0.25" stroke-width="0.28346456692913385" font-size="1.0em"></g></g><g transform="matrix(1.0,0.0,0.0,1.0,2.834645669291376,2.834645669291376)"><g stroke="rgb(0,0,0)" stroke-opacity="1.0" fill="rgb(255,0,0)" fill-opacity="0.25" stroke-width="0.28346456692913385" font-size="1.0em"></g></g><g transform="matrix(1.0,0.0,0.0,1.0,2.834645669291376,2.834645669291376)"><g stroke="rgb(0,0,0)" stroke-opacity="1.0" fill="rgb(128,0,255)" fill-opacity="0.25" stroke-width="0.28346456692913385" font-size="1.0em"></g></g><g transform="matrix(1.0,0.0,0.0,1.0,2.834645669291376,2.834645669291376)"><g stroke="rgb(0,0,0)" stroke-opacity="1.0" fill="rgb(128,0,255)" fill-opacity="0.25" stroke-width="0.28346456692913385" font-size="1.0em"></g></g><g transform="matrix(1.0,0.0,0.0,1.0,2.834645669291376,2.834645669291376)"><g stroke="rgb(0,0,0)" stroke-opacity="1.0" fill="rgb(128,0,255)" fill-opacity="0.25" stroke-width="0.28346456692913385" font-size="1.0em"><path d="M 377.1700747338016,222.14769529094156 h 30.62251639974677 l 3.9705408525273143,-21.329014629947203 v -21.695438685264932 l -3.9705408525273143,-21.329014629947203 l -5.615192723600556,-20.956184538768348 l -3.9705408525273134,-21.329014629947203 v -21.695438685264932 l 3.9705408525273134,-21.329014629947203 l 5.615192723600556,-20.956184538768348 l 3.9705408525273143,-21.329014629947203 v -21.695438685264932 h -38.5635981048014 v 21.695438685264932 l 3.9705408525273143,21.329014629947203 l 5.615192723600556,20.956184538768348 l 3.9705408525273134,21.329014629947203 v 21.695438685264932 l -3.9705408525273134,21.329014629947203 l -5.615192723600556,20.956184538768348 l -3.9705408525273143,21.329014629947203 v 21.695438685264932 l 3.9705408525273143,21.329014629947203 Z" /></g></g><g transform="matrix(1.0,0.0,0.0,1.0,2.834645669291376,2.834645669291376)"><g stroke="rgb(0,0,0)" stroke-opacity="1.0" fill="rgb(128,0,255)" fill-opacity="0.25" stroke-width="0.28346456692913385" font-size="1.0em"></g></g><g transform="matrix(1.0,0.0,0.0,1.0,2.834645669291376,2.834645669291376)"><g stroke="rgb(0,0,0)" stroke-opacity="1.0" fill="rgb(128,0,255)" fill-opacity="0.25" stroke-width="0.28346456692913385" font-size="1.0em"></g></g><g transform="matrix(1.0,0.0,0.0,1.0,2.834645669291376,2.834645669291376)"><g stroke="rgb(0,0,0)" stroke-opacity="1.0" fill="rgb(255,0,0)" fill-opacity="0.25" stroke-width="0.28346456692913385" font-size="1.0em"></g></g><g transform="matrix(1.0,0.0,0.0,1.0,2.834645669291376,2.834645669291376)"><g stroke="rgb(0,0,0)" stroke-opacity="1.0" fill="rgb(255,0,0)" fill-opacity="0.25" stroke-width="0.28346456692913385" font-size="1.0em"></g></g><g transform="matrix(1.0,0.0,0.0,1.0,2.834645669291376,2.834645669291376)"><g stroke="rgb(0,0,0)" stroke-opacity="1.0" fill="rgb(255,0,0)" fill-opacity="0.25" stroke-width="0.28346456692913385" font-size="1.0em"><path d="M 327.2678939518348,222.14769529094156 h 30.62251639974677 l 3.9705408525273143,-21.329014629947203 v -21.695438685264932 l -3.9705408525273143,-21.329014629947203 l -5.615192723600556,-20.956184538768348 l -3.9705408525273134,-21.329014629947203 v -21.695438685264932 l 3.9705408525273134,-21.329014629947203 l 5.615192723600556,-20.956184538768348 l 3.9705408525273143,-21.329014629947203 v -21.695438685264932 h -38.5635981048014 v 21.695438685264932 l 3.9705408525273143,21.329014629947203 l 5.615192723600556,20.956184538768348 l 3.9705408525273134,21.329014629947203 v 21.695438685264932 l -3.9705408525273134,21.329014629947203 l -5.615192723600556,20.956184538768348 l -3.9705408525273143,21.329014629947203 v 21.695438685264932 l 3.9705408525273143,21.329014629947203 Z" /></g></g><g transform="matrix(1.0,0.0,0.0,1.0,2.834645669291376,2.834645669291376)"><g stroke="rgb(0,0,0)" stroke-opacity="1.0" fill="rgb(255,0,0)" fill-opacity="0.25" stroke-width="0.28346456692913385" font-size="1.0em"></g></g><g transform="matrix(1.0,0.0,0.0,1.0,2.834645669291376,2.834645669291376)"><g stroke="rgb(0,0,0)" stroke-opacity="1.0" fill="rgb(255,0,0)" fill-opacity="0.25" stroke-width="0.28346456692913385" font-size="1.0em"></g></g><g transform="matrix(1.0,0.0,0.0,1.0,2.834645669291376,2.834645669291376)"><g stroke="rgb(0,0,0)" stroke-opacity="1.0" fill="rgb(128,0,255)" fill-opacity="0.25" stroke-width="0.28346456692913385" font-size="1.0em"></g></g><g transform="matrix(1.0,0.0,0.0,1.0,2.834645669291376,2.834645669291376)"><g stroke="rgb(0,0,0)" stroke-opacity="1.0" fill="rgb(128,0,255)" fill-opacity="0.25" stroke-width="0.28346456692913385" font-size="1.0em"></g></g><g transform="matrix(1.0,0.0,0.0,1.0,2.834645669291376,2.834645669291376)"><g stroke="rgb(0,0,0)" stroke-opacity="1.0" fill="rgb(128,0,255)" fill-opacity="0.25" stroke-width="0.28346456692913385" font-size="1.0em"><path d="M 277.36571316986806,222.14769529094156 h 30.62251639974677 l 3.9705408525273143,-21.329014629947203 v -21.695438685264932 l -3.9705408525273143,-21.329014629947203 l -5.615192723600556,-20.956184538768348 l -3.9705408525273134,-21.329014629947203 v -21.695438685264932 l 3.9705408525273134,-21.329014629947203 l 5.615192723600556,-20.956184538768348 l 3.9705408525273143,-21.329014629947203 v -21.695438685264932 h -38.5635981048014 v 21.695438685264932 l 3.9705408525273143,21.329014629947203 l 5.615192723600556,20.956184538768348 l 3.9705408525273134,21.329014629947203 v 21.695438685264932 l -3.9705408525273134,21.329014629947203 l -5.615192723600556,20.956184538768348 l -3.9705408525273143,21.329014629947203 v 21.695438685264932 l 3.9705408525273143,21.329014629947203 Z" /></g></g><g transform="matrix(1.0,0.0,0.0,1.0,2.834645669291376,2.834645669291376)"><g stroke="rgb(0,0,0)" stroke-opacity="1.0" fill="rgb(128,0,255)" fill-opacity="0.25" stroke-width="0.28346456692913385" font-size="1.0em"></g></g><g transform="matrix(1.0,0.0,0.0,1.0,2.834645669291376,2.834645669291376)"><g stroke="rgb(0,0,0)" stroke-opacity="1.0" fill="rgb(128,0,255)" fill-opacity="0.25" stroke-width="0.28346456692913385" font-size="1.0em"></g></g><g transform="matrix(1.0,0.0,0.0,1.0,2.834645669291376,2.834645669291376)"><g stroke="rgb(0,0,0)" stroke-opacity="1.0" fill="rgb(255,0,0)" fill-opacity="0.25" stroke-width="0.28346456692913385" font-size="1.0em"></g></g><g transform="matrix(1.0,0.0,0.0,1.0,2.834645669291376,2.834645669291376)"><g stroke="rgb(0,0,0)" stroke-opacity="1.0" fill="rgb(255,0,0)" fill-opacity="0.25" stroke-width="0.28346456692913385" font-size="1.0em"></g></g><g transform="matrix(1.0,0.0,0.0,1.0,2.834645669291376,2.834645669291376)"><g stroke="rgb(0,0,0)" stroke-opacity="1.0" fill="rgb(255,0,0)" fill-opacity="0.25" stroke-width="0.28346456692913385" font-size="1.0em"><path d="M 227.46353238790132,222.14769529094156 h 30.62251639974677 l 3.9705408525273143,-21.329014629947203 v -21.695438685264932 l -3.9705408525273143,-21.329014629947203 l -5.615192723600556,-20.956184538768348 l -3.9705408525273134,-21.329014629947203 v -21.695438685264932 l 3.9705408525273134,-21.329014629947203 l 5.615192723600556,-20.956184538768348 l 3.9705408525273143,-21.329014629947203 v -21.695438685264932 h -38.5635981048014 v 21.695438685264932 l 3.9705408525273143,21.329014629947203 l 5.615192723600556,20.956184538768348 l 3.9705408525273134,21.329014629947203 v 21.695438685264932 l -3.9705408525273134,21.329014629947203 l -5.615192723600556,20.956184538768348 l -3.9705408525273143,21.329014629947203 v 21.695438685264932 l 3.9705408525273143,21.329014629947203 Z" /></g></g><g transform="matrix(1.0,0.0,0.0,1.0,2.834645669291376,2.834645669291376)"><g stroke="rgb(0,0,0)" stroke-opacity="1.0" fill="rgb(255,0,0)" fill-opacity="0.25" stroke-width="0.28346456692913385" font-size="1.0em"></g></g><g transform="matrix(1.0,0.0,0.0,1.0,2.834645669291376,2.834645669291376)"><g stroke="rgb(0,0,0)" stroke-opacity="1.0" fill="rgb(255,0,0)" fill-opacity="0.25" stroke-width="0.28346456692913385" font-size="1.0em"></g></g><g transform="matrix(1.0,0.0,0.0,1.0,2.834645669291376,2.834645669291376)"><g stroke="rgb(0,0,0)" stroke-opacity="1.0" fill="rgb(128,0,255)" fill-opacity="0.25" stroke-width="0.28346456692913385" font-size="1.0em"></g></g><g transform="matrix(1.0,0.0,0.0,1.0,2.834645669291376,2.834645669291376)"><g stroke="rgb(0,0,0)" stroke-opacity="1.0" fill="rgb(128,0,255)" fill-opacity="0.25" stroke-width="0.28346456692913385" font-size="1.0em"></g></g><g transform="matrix(1.0,0.0,0.0,1.0,2.834645669291376,2.834645669291376)"><g stroke="rgb(0,0,0)" stroke-opacity="1.0" fill="rgb(128,0,255)" fill-opacity="0.25" stroke-width="0.28346456692913385" font-size="1.0em"><path d="M 177.56135160593456,222.14769529094156 h 30.62251639974677 l 3.9705408525273143,-21.329014629947203 v -21.695438685264932 l -3.9705408525273143,-21.329014629947203 l -5.615192723600556,-20.956184538768348 l -3.9705408525273134,-21.329014629947203 v -21.695438685264932 l 3.9705408525273134,-21.329014629947203 l 5.615192723600556,-20.956184538768348 l 3.9705408525273143,-21.329014629947203 v -21.695438685264932 h -38.5635981048014 v 21.695438685264932 l 3.9705408525273143,21.329014629947203 l 5.615192723600556,20.956184538768348 l 3.9705408525273134,21.329014629947203 v 21.695438685264932 l -3.9705408525273134,21.329014629947203 l -5.615192723600556,20.956184538768348 l -3.9705408525273143,21.329014629947203 v 21.695438685264932 l 3.9705408525273143,21.329014629947203 Z" /></g></g><g transform="matrix(1.0,0.0,0.0,1.0,2.834645669291376,2.834645669291376)"><g stroke="rgb(0,0,0)" stroke-opacity="1.0" fill="rgb(128,0,255)" fill-opacity="0.25" stroke-width="0.28346456692913385" font-size="1.0em"></g></g><g transform="matrix(1.0,0.0,0.0,1.0,2.834645669291376,2.834645669291376)"><g stroke="rgb(0,0,0)" stroke-opacity="1.0" fill="rgb(128,0,255)" fill-opacity="0.25" stroke-width="0.28346456692913385" font-size="1.0em"></g></g><g transform="matrix(1.0,0.0,0.0,1.0,2.834645669291376,2.834645669291376)"><g stroke="rgb(0,0,0)" stroke-opacity="1.0" fill="rgb(255,0,0)" fill-opacity="0.25" stroke-width="0.28346456692913385" font-size="1.0em"></g></g><g transform="matrix(1.0,0.0,0.0,1.0,2.834645669291376,2.834645669291376)"><g stroke="rgb(0,0,0)" stroke-opacity="1.0" fill="rgb(255,0,0)" fill-opacity="0.25" stroke-width="0.28346456692913385" font-size="1.0em"></g></g><g transform="matrix(1.0,0.0,0.0,1.0,2.834645669291376,2.834645669291376)"><g stroke="rgb(0,0,0)" stroke-opacity="1.0" fill="rgb(255,0,0)" fill-opacity="0.25" stroke-width="0.28346456692913385" font-size="1.0em"><path d="M 127.65917082396783,222.14769529094156 h 30.62251639974677 l 3.9705408525273143,-21.329014629947203 v -21.695438685264932 l -3.9705408525273143,-21.329014629947203 l -5.615192723600556,-20.956184538768348 l -3.9705408525273134,-21.329014629947203 v -21.695438685264932 l 3.9705408525273134,-21.329014629947203 l 5.615192723600556,-20.956184538768348 l 3.9705408525273143,-21.329014629947203 v -21.695438685264932 h -38.5635981048014 v 21.695438685264932 l 3.9705408525273143,21.329014629947203 l 5.615192723600556,20.956184538768348 l 3.9705408525273134,21.329014629947203 v 21.695438685264932 l -3.9705408525273134,21.329014629947203 l -5.615192723600556,20.956184538768348 l -3.9705408525273143,21.329014629947203 v 21.695438685264932 l 3.9705408525273143,21.329014629947203 Z" /></g></g><g transform="matrix(1.0,0.0,0.0,1.0,2.834645669291376,2.834645669291376)"><g stroke="rgb(0,0,0)" stroke-opacity="1.0" fill="rgb(255,0,0)" fill-opacity="0.25" stroke-width="0.28346456692913385" font-size="1.0em"></g></g><g transform="matrix(1.0,0.0,0.0,1.0,2.834645669291376,2.834645669291376)"><g stroke="rgb(0,0,0)" stroke-opacity="1.0" fill="rgb(255,0,0)" fill-opacity="0.25" stroke-width="0.28346456692913385" font-size="1.0em"></g></g><g transform="matrix(1.0,0.0,0.0,1.0,2.834645669291376,2.834645669291376)"><g stroke="rgb(0,0,0)" stroke-opacity="1.0" fill="rgb(128,0,255)" fill-opacity="0.25" stroke-width="0.28346456692913385" font-size="1.0em"></g></g><g transform="matrix(1.0,0.0,0.0,1.0,2.834645669291376,2.834645669291376)"><g stroke="rgb(0,0,0)" stroke-opacity="1.0" fill="rgb(128,0,255)" fill-opacity="0.25" stroke-width="0.28346456692913385" font-size="1.0em"></g></g><g transform="matrix(1.0,0.0,0.0,1.0,2.834645669291376,2.834645669291376)"><g stroke="rgb(0,0,0)" stroke-opacity="1.0" fill="rgb(128,0,255)" fill-opacity="0.25" stroke-width="0.28346456692913385" font-size="1.0em"><path d="M 77.75699004200106,222.14769529094156 h 30.62251639974677 l 3.9705408525273143,-21.329014629947203 v -21.695438685264932 l -3.9705408525273143,-21.329014629947203 l -5.615192723600556,-20.956184538768348 l -3.9705408525273134,-21.329014629947203 v -21.695438685264932 l 3.9705408525273134,-21.329014629947203 l 5.615192723600556,-20.956184538768348 l 3.9705408525273143,-21.329014629947203 v -21.695438685264932 h -38.5635981048014 v 21.695438685264932 l 3.9705408525273143,21.329014629947203 l 5.615192723600556,20.956184538768348 l 3.9705408525273134,21.329014629947203 v 21.695438685264932 l -3.9705408525273134,21.329014629947203 l -5.615192723600556,20.956184538768348 l -3.9705408525273143,21.329014629947203 v 21.695438685264932 l 3.9705408525273143,21.329014629947203 Z" /></g></g><g transform="matrix(1.0,0.0,0.0,1.0,2.834645669291376,2.834645669291376)"><g stroke="rgb(0,0,0)" stroke-opacity="1.0" fill="rgb(128,0,255)" fill-opacity="0.25" stroke-width="0.28346456692913385" font-size="1.0em"></g></g><g transform="matrix(1.0,0.0,0.0,1.0,2.834645669291376,2.834645669291376)"><g stroke="rgb(0,0,0)" stroke-opacity="1.0" fill="rgb(128,0,255)" fill-opacity="0.25" stroke-width="0.28346456692913385" font-size="1.0em"></g></g><g transform="matrix(1.0,0.0,0.0,1.0,2.834645669291376,2.834645669291376)"><g stroke="rgb(0,0,0)" stroke-opacity="1.0" fill="rgb(255,0,0)" fill-opacity="0.25" stroke-width="0.28346456692913385" font-size="1.0em"></g></g><g transform="matrix(1.0,0.0,0.0,1.0,2.834645669291376,2.834645669291376)"><g stroke="rgb(0,0,0)" stroke-opacity="1.0" fill="rgb(255,0,0)" fill-opacity="0.25" stroke-width="0.28346456692913385" font-size="1.0em"></g></g><g transform="matrix(1.0,0.0,0.0,1.0,2.834645669291376,2.834645669291376)"><g stroke="rgb(0,0,0)" stroke-opacity="1.0" fill="rgb(255,0,0)" fill-opacity="0.25" stroke-width="0.28346456692913385" font-size="1.0em"><path d="M 27.854809260034294,222.14769529094156 h 30.62251639974677 l 3.9705408525273143,-21.329014629947203 v -21.695438685264932 l -3.9705408525273143,-21.329014629947203 l -5.615192723600556,-20.956184538768348 l -3.9705408525273134,-21.329014629947203 v -21.695438685264932 l 3.9705408525273134,-21.329014629947203 l 5.615192723600556,-20.956184538768348 l 3.9705408525273143,-21.329014629947203 v -21.695438685264932 h -38.5635981048014 v 21.695438685264932 l 3.9705408525273143,21.329014629947203 l 5.615192723600556,20.956184538768348 l 3.9705408525273134,21.329014629947203 v 21.695438685264932 l -3.9705408525273134,21.329014629947203 l -5.615192723600556,20.956184538768348 l -3.9705408525273143,21.329014629947203 v 21.695438685264932 l 3.9705408525273143,21.329014629947203 Z" /></g></g><g transform="matrix(1.0,0.0,0.0,1.0,2.834645669291376,2.834645669291376)"><g stroke="rgb(0,0,0)" stroke-opacity="1.0" fill="rgb(255,0,0)" fill-opacity="0.25" stroke-width="0.28346456692913385" font-size="1.0em"></g></g><g transform="matrix(1.0,0.0,0.0,1.0,2.834645669291376,2.834645669291376)"><g stroke="rgb(0,0,0)" stroke-opacity="1.0" fill="rgb(255,0,0)" fill-opacity="0.25" stroke-width="0.28346456692913385" font-size="1.0em"></g></g><g transform="matrix(1.0,0.0,0.0,1.0,2.834645669291376,2.834645669291376)"><g stroke="rgb(0,0,0)" stroke-opacity="1.0" fill="rgb(0,0,0)" fill-opacity="0.0" stroke-width="0.28346456692913385" font-size="1.0em"></g></g><g transform="matrix(1.0,0.0,0.0,1.0,2.834645669291376,2.834645669291376)"><g stroke="rgb(0,0,0)" stroke-opacity="1.0" fill="rgb(0,0,0)" fill-opacity="0.0" stroke-width="0.28346456692913385" font-size="1.0em"></g></g></g></svg>