<?xml version="1.0" encoding="UTF-8"?>
<!DOCTYPE svg PUBLIC "-//W3C//DTD SVG 1.1//EN"
    "http://www.w3.org/Graphics/SVG/1.1/DTD/svg11.dtd">
<svg xmlns="http://www.w3.org/2000/svg" xmlns:xlink="http://www.w3.org/1999/xlink" version="1.1" width="100.0" height="100.0" font-size="1" viewBox="0 0 100 100" stroke="rgb(0,0,0)" stroke-opacity="1"><g><g fill="rgb(0,0,0)" fill-opacity="0.0"><g stroke="rgb(0,0,0)" stroke-opacity="1.0" stroke-width="0.5" stroke-linecap="butt" stroke-linejoin="miter" stroke-miterlimit="10.0"><g fill="rgb(135,206,250)" fill-opacity="1.0" stroke-width="8.0"><g fill="rgb(135,206,250)" fill-opacity="1.0"><g fill="rgb(135,206,250)" fill-opacity="1.0"><path d="M 91.66666666666666,75.0 v -50.0 c 0.0,-9.204745830513223 -7.461920836153441,-16.666666666666664 -16.66666666666666 -16.666666666666664h -50.0 c -9.204745830513223,-5.636281259151483e-16 -16.666666666666664,7.46192083615344 -16.666666666666664 16.66666666666666v 50.0 c -1.1272562518302965e-15,9.204745830513223 7.461920836153438,16.666666666666664 16.66666666666666 16.66666666666667h 50.0 c 9.204745830513223,1.4802360254564898e-15 16.666666666666664,-7.461920836153437 16.666666666666657 -16.66666666666667Z" /></g></g></g><g fill="rgb(0,0,0)" fill-opacity="1.0"><g fill="rgb(0,0,0)" fill-opacity="1.0"><g fill="rgb(0,0,0)" fill-opacity="1.0"><g><g fill="rgb(0,0,0)" fill-opacity="1.0"><g fill="rgb(0,0,0)" fill-opacity="1.0"><path d="M 81.11111111111111,52.77777777777778 l -4.934324553889585e-16,-5.555555555555555 h -4.444444444444445 l -4.934324553889585e-16,5.555555555555555 Z" /></g></g></g><g fill="rgb(0,0,0)" fill-opacity="1.0"><g><g fill="rgb(0,0,0)" fill-opacity="1.0"><g fill="rgb(0,0,0)" fill-opacity="1.0"><g><g fill="rgb(0,0,0)" fill-opacity="1.0"><g fill="rgb(0,0,0)" fill-opacity="1.0"><g><g fill="rgb(0,0,0)" fill-opacity="1.0"><g fill="rgb(0,0,0)" fill-opacity="1.0"><path d="M 61.111111111111114,62.77777777777778 v -25.555555555555554 c -0.0,-0.613649722034215 0.497461389076896,-1.1111111111111112 1.1111111111111107 -1.1111111111111112h 3.333333333333333 c 0.613649722034215,-3.757520839434322e-17 1.1111111111111112,0.49746138907689597 1.1111111111111112 1.1111111111111107v 25.555555555555554 c 7.515041678868644e-17,0.613649722034215 -0.49746138907689597,1.1111111111111112 -1.1111111111111107 1.1111111111111114h -3.333333333333334 c -0.613649722034215,9.868240169709933e-17 -1.1111111111111112,-0.4974613890768959 -1.1111111111111107 -1.1111111111111107Z" /></g></g></g><g fill="rgb(0,0,0)" fill-opacity="1.0"><path d="M 68.33333333333334,60.0 v -19.999999999999996 c -0.0,-0.613649722034215 0.497461389076896,-1.1111111111111112 1.1111111111111107 -1.1111111111111112h 3.333333333333333 c 0.613649722034215,-3.757520839434322e-17 1.1111111111111112,0.49746138907689597 1.1111111111111112 1.1111111111111107v 20.0 c 7.515041678868644e-17,0.613649722034215 -0.49746138907689597,1.1111111111111112 -1.1111111111111107 1.1111111111111114h -3.333333333333334 c -0.613649722034215,9.868240169709933e-17 -1.1111111111111112,-0.4974613890768959 -1.1111111111111107 -1.1111111111111143Z" /></g></g></g></g><g fill="rgb(0,0,0)" fill-opacity="1.0"><path d="M 58.333333333333336,52.77777777777778 l -1.850371707708594e-15,-5.555555555555555 h -16.666666666666664 l -1.850371707708594e-15,5.555555555555555 Z" /></g></g></g></g><g fill="rgb(0,0,0)" fill-opacity="1.0"><g><g fill="rgb(0,0,0)" fill-opacity="1.0"><g fill="rgb(0,0,0)" fill-opacity="1.0"><g><g fill="rgb(0,0,0)" fill-opacity="1.0"><g fill="rgb(0,0,0)" fill-opacity="1.0"><path d="M 38.888888888888886,62.77777777777778 v -25.555555555555554 c 0.0,-0.613649722034215 -0.497461389076896,-1.1111111111111112 -1.1111111111111107 -1.1111111111111112h -3.333333333333333 c -0.613649722034215,-3.757520839434322e-17 -1.1111111111111112,0.49746138907689597 -1.1111111111111112 1.1111111111111107v 25.555555555555554 c -7.515041678868644e-17,0.613649722034215 0.49746138907689597,1.1111111111111112 1.1111111111111107 1.1111111111111114h 3.333333333333334 c 0.613649722034215,9.868240169709933e-17 1.1111111111111112,-0.4974613890768959 1.1111111111111107 -1.1111111111111107Z" /></g></g></g><g fill="rgb(0,0,0)" fill-opacity="1.0"><path d="M 31.666666666666664,60.0 v -19.999999999999996 c 0.0,-0.613649722034215 -0.497461389076896,-1.1111111111111112 -1.1111111111111107 -1.1111111111111112h -3.333333333333333 c -0.613649722034215,-3.757520839434322e-17 -1.1111111111111112,0.49746138907689597 -1.1111111111111112 1.1111111111111107v 20.0 c -7.515041678868644e-17,0.613649722034215 0.49746138907689597,1.1111111111111112 1.1111111111111107 1.1111111111111114h 3.333333333333334 c 0.613649722034215,9.868240169709933e-17 1.1111111111111112,-0.4974613890768959 1.1111111111111107 -1.1111111111111143Z" /></g></g></g></g><g fill="rgb(0,0,0)" fill-opacity="1.0"><path d="M 23.33333333333333,52.77777777777778 l -4.934324553889585e-16,-5.555555555555555 h -4.444444444444445 l -4.934324553889585e-16,5.555555555555555 Z" /></g></g></g></g></g></g></g></g></g></svg>