<?xml version="1.0" encoding="UTF-8"?>
<!DOCTYPE svg PUBLIC "-//W3C//DTD SVG 1.1//EN"
    "http://www.w3.org/Graphics/SVG/1.1/DTD/svg11.dtd">
<svg xmlns="http://www.w3.org/2000/svg" xmlns:xlink="http://www.w3.org/1999/xlink" version="1.1" width="100.0" height="100.0" font-size="1" viewBox="0 0 100 100" stroke="rgb(0,0,0)" stroke-opacity="1"><g><g fill="rgb(0,0,0)" fill-opacity="0.0"><g stroke="rgb(0,0,0)" stroke-opacity="1.0" stroke-width="0.5" stroke-linecap="butt" stroke-linejoin="miter" stroke-miterlimit="10.0"><g fill="rgb(221,160,221)" fill-opacity="1.0" stroke-width="8.0"><g fill="rgb(221,160,221)" fill-opacity="1.0"><g fill="rgb(221,160,221)" fill-opacity="1.0"><path d="M 91.66666666666667,50.00000000000001 c 0.0,-23.011864576283067 -18.65480209038361,-41.66666666666668 -41.66666666666667 -41.66666666666668c -23.011864576283067,-1.409070314787871e-15 -41.66666666666668,18.654802090383605 -41.66666666666668 41.666666666666664c -2.818140629575742e-15,23.011864576283067 18.6548020903836,41.66666666666668 41.66666666666666 41.66666666666668c 23.011864576283067,4.2272109443636134e-15 41.66666666666668,-18.6548020903836 41.666666666666686 -41.666666666666664Z" /></g></g></g><g fill="rgb(0,0,0)" fill-opacity="1.0" stroke-width="0.0"><g fill="rgb(0,0,0)" fill-opacity="1.0"><g fill="rgb(0,0,0)" fill-opacity="1.0"><g><g fill="rgb(0,0,0)" fill-opacity="1.0"><g fill="rgb(0,0,0)" fill-opacity="1.0"><path d="M 73.95646268592716,27.93198214011553 l -6.383703692658153,-5.356563414054497 c -0.8814055492234051,-0.7395870712709671 -2.195479705407195,-0.6246204795724912 -2.9350667766781617 0.2567850696509134l -5.356563414054497,6.383703692658153 l 9.575555538987228,8.034845121081744 l 5.356563414054497,-6.383703692658153 c 0.7395870712709672,-0.8814055492234049 0.6246204795724914,-2.1954797054071946 -0.2567850696509133 -2.935066776678161Z" /></g></g></g><g fill="rgb(0,0,0)" fill-opacity="1.0"><g><g fill="rgb(0,0,0)" fill-opacity="1.0"><g fill="rgb(0,0,0)" fill-opacity="1.0"><path d="M 67.51754348800996,38.84667853261638 l -9.575555538987231,-8.03484512108174 l -26.782817070272483,31.91851846329076 l 9.575555538987224,8.034845121081748 Z" /></g></g></g><g><g fill="rgb(0,0,0)" fill-opacity="1.0"><g fill="rgb(0,0,0)" fill-opacity="1.0"><path d="M 29.820030025236633,64.32627779798995 l -1.4283893451826906,8.100798524670244 c -0.23666329564955796,1.34218424598815 0.6595385078581156,2.622093065306322 2.0017227538462654 2.85875636095588c 0.42659614329005163,7.522040992821019e-2 0.8654768422186182,3.682332413162656e-2 1.2725301444283745 -0.1113319616324892l 7.729691985895279,-2.8133778029118894 Z" /></g></g></g></g></g></g></g></g></g></g></svg>